M48
;Layer_Color=4078848
;FILE_FORMAT=4:4
METRIC,LZ
;TYPE=PLATED
T1F00S00C0.2032
T2F00S00C0.3048
%
T01
X00428418Y00421386
X00432228
X00430604Y00426
Y00429818
X00440436Y00427482
X00440396Y0042175
X00447
X00453604
X00453644Y00427228
X00460248Y00432308
X00460208Y0042175
X00466812
X00466852Y00427228
X00476604Y00426
X00476604Y00429818
X0047498Y00421386
X0047879
X0044704Y00432562
X00379491Y00613158
X00375826Y00615539
X00377621Y0061824
X00379472Y00621187
X0037577Y00623038
X00366451Y00621441
X003646Y00618494
X00362805Y00615793
X0036647Y00613412
X0035369Y00613458
X00350025Y00615839
X0035182Y0061854
X00353672Y00621487
X00349969Y00623338
X00340531Y00621606
X0033868Y00618659
X00336885Y00615958
X0034055Y00613577
X00336829Y00623458
X00362749Y00623293
T02
X004305Y00445
X00440484Y0044216
X00453681Y00442174
X00466852Y00441706
X00476593Y00444662
X00476268Y00453594
X00472561Y00461502
X00460248Y00447802
X00446978Y00447688
X00430069Y00453576
X0042787Y00462328
X00380606Y00601824
X00373388Y00601869
X00364539Y00605479
X00351556Y00605627
X00356446Y00592715
X00356338Y00584029
X00334811Y00593329
Y00602327
M30
