G04*
G04 #@! TF.GenerationSoftware,Altium Limited,Altium Designer,20.0.13 (296)*
G04*
G04 Layer_Color=3132362*
%FSLAX44Y44*%
%MOMM*%
G71*
G01*
G75*
%ADD10C,0.2540*%
G36*
X455306Y477931D02*
X455331Y477923D01*
X455381Y477906D01*
X455430Y477890D01*
X455505Y477865D01*
X455596Y477823D01*
X455688Y477782D01*
X455796Y477724D01*
X455903Y477666D01*
X456028Y477591D01*
X456285Y477434D01*
X456559Y477226D01*
X456824Y476977D01*
X456899Y476902D01*
X456941Y476844D01*
X456999Y476786D01*
X457065Y476703D01*
X457206Y476512D01*
X457355Y476280D01*
X457488Y476031D01*
X457604Y475749D01*
X457671Y475450D01*
X457679Y475442D01*
X457671Y475417D01*
X457687Y475318D01*
X457679Y475177D01*
X457663Y474977D01*
X457613Y474762D01*
X457522Y474538D01*
X457397Y474297D01*
X457297Y474181D01*
X457198Y474065D01*
X457190Y474056D01*
X457156Y474023D01*
X457098Y473982D01*
X457015Y473915D01*
X456924Y473857D01*
X456816Y473783D01*
X456683Y473716D01*
X456534Y473650D01*
X456368Y473600D01*
X456194Y473558D01*
X456003Y473534D01*
X455804D01*
X455596Y473558D01*
X455381Y473608D01*
X455148Y473691D01*
X454908Y473816D01*
X454891Y473799D01*
X454916Y473774D01*
X454933Y473741D01*
X454966Y473691D01*
X455040Y473583D01*
X455132Y473426D01*
X455206Y473235D01*
X455281Y473027D01*
X455339Y472803D01*
X455356Y472554D01*
Y472521D01*
X455348Y472447D01*
X455323Y472322D01*
X455298Y472164D01*
X455240Y471990D01*
X455148Y471799D01*
X455024Y471609D01*
X454866Y471418D01*
X454858Y471409D01*
X454833Y471384D01*
X454800Y471351D01*
X454742Y471310D01*
X454667Y471252D01*
X454592Y471194D01*
X454385Y471069D01*
X454136Y470953D01*
X454003Y470903D01*
X453854Y470853D01*
X453696Y470829D01*
X453530Y470812D01*
X453364D01*
X453190Y470820D01*
X453173D01*
X453148Y470829D01*
X453099Y470845D01*
X453024Y470853D01*
X452949Y470878D01*
X452850Y470911D01*
X452734Y470945D01*
X452617Y470994D01*
X452476Y471053D01*
X452335Y471127D01*
X452178Y471202D01*
X452020Y471310D01*
X451862Y471418D01*
X451688Y471542D01*
X451530Y471683D01*
X451356Y471841D01*
X451282Y471916D01*
X451232Y471982D01*
X451165Y472048D01*
X451099Y472131D01*
X451024Y472223D01*
X450933Y472330D01*
X450759Y472554D01*
X450593Y472820D01*
X450443Y473086D01*
X450336Y473359D01*
X451282Y474305D01*
X451290Y474297D01*
Y474264D01*
X451298Y474222D01*
X451315Y474156D01*
X451331Y474073D01*
X451356Y473982D01*
X451389Y473882D01*
X451431Y473774D01*
X451539Y473534D01*
X451680Y473260D01*
X451862Y472994D01*
X451979Y472861D01*
X452095Y472729D01*
X452169Y472654D01*
X452252Y472588D01*
X452369Y472505D01*
X452510Y472413D01*
X452651Y472339D01*
X452808Y472264D01*
X452974Y472231D01*
X452991D01*
X453049Y472223D01*
X453140Y472231D01*
X453248Y472239D01*
X453364Y472272D01*
X453505Y472330D01*
X453646Y472405D01*
X453779Y472521D01*
X453787Y472529D01*
X453796Y472538D01*
X453829Y472588D01*
X453887Y472662D01*
X453945Y472770D01*
X454003Y472895D01*
X454036Y473044D01*
X454053Y473210D01*
X454028Y473384D01*
X454020Y473409D01*
X454003Y473475D01*
X453962Y473567D01*
X453912Y473699D01*
X453821Y473857D01*
X453704Y474023D01*
X453555Y474222D01*
X453373Y474421D01*
X452916Y474878D01*
X453746Y475708D01*
X454211Y475243D01*
X454269Y475201D01*
X454335Y475135D01*
X454435Y475069D01*
X454526Y474994D01*
X454767Y474853D01*
X454908Y474795D01*
X455040Y474745D01*
X455182Y474720D01*
X455331Y474703D01*
X455480Y474720D01*
X455621Y474762D01*
X455754Y474828D01*
X455887Y474944D01*
X455895Y474953D01*
X455912Y474969D01*
X455937Y475011D01*
X455986Y475060D01*
X456053Y475193D01*
X456094Y475284D01*
X456119Y475376D01*
X456136Y475475D01*
X456152Y475591D01*
X456136Y475708D01*
X456119Y475840D01*
X456069Y475973D01*
X455995Y476114D01*
X455895Y476247D01*
X455762Y476396D01*
X455713Y476446D01*
X455663Y476479D01*
X455621Y476521D01*
X455555Y476571D01*
X455397Y476678D01*
X455206Y476786D01*
X454974Y476902D01*
X454717Y476994D01*
X454418Y477060D01*
X455298Y477940D01*
X455306Y477931D01*
D02*
G37*
G36*
X450883Y482736D02*
X448817Y480670D01*
X450999Y478487D01*
X453066Y480553D01*
X454161Y479458D01*
X449033Y474330D01*
X447938Y475425D01*
X450053Y477541D01*
X447871Y479724D01*
X445755Y477608D01*
X444660Y478703D01*
X449788Y483831D01*
X450883Y482736D01*
D02*
G37*
G36*
X341844Y596619D02*
X337150Y593544D01*
X337138Y593532D01*
X337091Y593509D01*
X337021Y593462D01*
X336939Y593415D01*
X336751Y593298D01*
X336657Y593239D01*
X336563Y593192D01*
Y593169D01*
X336575D01*
X336633Y593180D01*
X336727D01*
X336845Y593192D01*
X337009Y593204D01*
X337209D01*
X337443Y593216D01*
X337725D01*
X341844D01*
Y591749D01*
X334592D01*
Y593438D01*
X339156Y596396D01*
X339180Y596407D01*
X339227Y596443D01*
X339309Y596490D01*
X339403Y596548D01*
X339497Y596619D01*
X339591Y596677D01*
X339673Y596724D01*
X339731Y596759D01*
Y596783D01*
X339720D01*
X339684Y596771D01*
X339614D01*
X339509Y596759D01*
X339368Y596748D01*
X339192D01*
X338980Y596736D01*
X338722D01*
X334592D01*
Y598203D01*
X341844D01*
Y596619D01*
D02*
G37*
G36*
Y588533D02*
X334592D01*
Y590071D01*
X341844D01*
Y588533D01*
D02*
G37*
G36*
Y585928D02*
X340189Y585388D01*
Y582748D01*
X341844Y582208D01*
Y580530D01*
X334592Y583194D01*
Y585013D01*
X341844Y587618D01*
Y585928D01*
D02*
G37*
G36*
Y578089D02*
X337443D01*
X337431D01*
X337420D01*
X337384D01*
X337338D01*
X337267D01*
X337197D01*
X337021Y578101D01*
X336798D01*
X336540Y578125D01*
X336235Y578136D01*
X335906Y578160D01*
Y578113D01*
X335918D01*
X335941D01*
X335976Y578101D01*
X336023Y578089D01*
X336141Y578066D01*
X336281Y578031D01*
X336446Y577995D01*
X336598Y577960D01*
X336739Y577925D01*
X336845Y577890D01*
X341844Y576106D01*
Y574874D01*
X336892Y573055D01*
X336880D01*
X336856Y573044D01*
X336798Y573020D01*
X336704Y572996D01*
X336575Y572973D01*
X336493Y572950D01*
X336399Y572926D01*
X336293Y572903D01*
X336176Y572879D01*
X336047Y572856D01*
X335906Y572821D01*
Y572785D01*
X335918D01*
X335941D01*
X336000D01*
X336059Y572797D01*
X336141D01*
X336246Y572809D01*
X336352D01*
X336481Y572821D01*
X336763D01*
X337068Y572832D01*
X337408Y572844D01*
X337748D01*
X341844D01*
Y571447D01*
X334592D01*
Y573701D01*
X338980Y575261D01*
X339004Y575273D01*
X339074Y575297D01*
X339180Y575332D01*
X339309Y575367D01*
X339462Y575414D01*
X339638Y575461D01*
X339814Y575496D01*
X340001Y575531D01*
Y575566D01*
X339990D01*
X339978Y575578D01*
X339943D01*
X339896Y575590D01*
X339790Y575625D01*
X339649Y575660D01*
X339485Y575695D01*
X339309Y575754D01*
X339133Y575801D01*
X338969Y575860D01*
X334592Y577432D01*
Y579627D01*
X341844D01*
Y578089D01*
D02*
G37*
G36*
X350731Y539797D02*
X346069Y534242D01*
X344892Y535230D01*
X349553Y540785D01*
X350731Y539797D01*
D02*
G37*
G36*
X352133Y537579D02*
X352266Y537574D01*
X352426Y537563D01*
X352603Y537537D01*
X352797Y537512D01*
X353008Y537472D01*
X353231Y537409D01*
X353471Y537330D01*
X353712Y537234D01*
X353955Y537122D01*
X354209Y536986D01*
X354456Y536824D01*
X354706Y536630D01*
X354841Y536517D01*
X354906Y536447D01*
X354986Y536380D01*
X355069Y536295D01*
X355160Y536203D01*
X355344Y536003D01*
X355548Y535771D01*
X355727Y535528D01*
X355883Y535275D01*
X354925Y534133D01*
X354916Y534141D01*
X354913Y534174D01*
X354893Y534206D01*
X354871Y534270D01*
X354832Y534334D01*
X354792Y534413D01*
X354750Y534510D01*
X354692Y534604D01*
X354556Y534826D01*
X354378Y535052D01*
X354165Y535291D01*
X353920Y535528D01*
X353839Y535596D01*
X353777Y535632D01*
X353698Y535684D01*
X353610Y535743D01*
X353504Y535800D01*
X353400Y535858D01*
X353140Y535968D01*
X352994Y536014D01*
X352840Y536067D01*
X352679Y536094D01*
X352520Y536105D01*
X352353Y536107D01*
X352179Y536101D01*
X352162Y536099D01*
X352138Y536089D01*
X352089Y536084D01*
X352032Y536071D01*
X351950Y536047D01*
X351852Y536022D01*
X351747Y535988D01*
X351634Y535945D01*
X351506Y535883D01*
X351379Y535822D01*
X351252Y535745D01*
X351101Y535656D01*
X350829Y535441D01*
X350692Y535296D01*
X350554Y535150D01*
X350547Y535141D01*
X350524Y535115D01*
X350486Y535070D01*
X350450Y535008D01*
X350399Y534929D01*
X350340Y534840D01*
X350274Y534743D01*
X350216Y534638D01*
X350089Y534377D01*
X349998Y534086D01*
X349945Y533931D01*
X349917Y533770D01*
X349906Y533611D01*
X349904Y533444D01*
X349906Y533428D01*
X349907Y533411D01*
X349911Y533362D01*
X349926Y533288D01*
X349941Y533214D01*
X349965Y533133D01*
X349999Y533028D01*
X350033Y532923D01*
X350078Y532793D01*
X350130Y532673D01*
X350285Y532420D01*
X350484Y532146D01*
X350611Y532024D01*
X350748Y531894D01*
X350820Y531833D01*
X350881Y531797D01*
X350944Y531744D01*
X351032Y531686D01*
X351121Y531627D01*
X351235Y531562D01*
X351479Y531433D01*
X351757Y531307D01*
X352066Y531201D01*
X352398Y531122D01*
X351485Y530034D01*
X351476Y530042D01*
X351451Y530048D01*
X351399Y530060D01*
X351339Y530080D01*
X351261Y530115D01*
X351167Y530148D01*
X351063Y530189D01*
X350942Y530245D01*
X350811Y530308D01*
X350672Y530380D01*
X350514Y530466D01*
X350364Y530561D01*
X350197Y530671D01*
X350020Y530789D01*
X349841Y530923D01*
X349608Y531119D01*
X349552Y531181D01*
X349462Y531257D01*
X349370Y531365D01*
X349251Y531480D01*
X349139Y531620D01*
X349018Y531768D01*
X348894Y531948D01*
X348770Y532129D01*
X348661Y532328D01*
X348550Y532543D01*
X348464Y532769D01*
X348385Y533003D01*
X348323Y533239D01*
X348292Y533495D01*
X348291Y533511D01*
X348295Y533553D01*
X348288Y533636D01*
X348288Y533728D01*
X348302Y533854D01*
X348315Y533997D01*
X348335Y534148D01*
X348368Y534334D01*
X348410Y534530D01*
X348475Y534735D01*
X348548Y534950D01*
X348645Y535175D01*
X348758Y535401D01*
X348896Y535638D01*
X349050Y535877D01*
X349229Y536109D01*
X349244Y536127D01*
X349282Y536172D01*
X349344Y536227D01*
X349419Y536317D01*
X349535Y536419D01*
X349659Y536530D01*
X349814Y536660D01*
X349978Y536783D01*
X350158Y536923D01*
X350355Y537049D01*
X350578Y537168D01*
X350810Y537280D01*
X351050Y537384D01*
X351318Y537466D01*
X351587Y537531D01*
X351867Y537573D01*
X351883Y537574D01*
X351933Y537578D01*
X352016Y537585D01*
X352133Y537579D01*
D02*
G37*
G36*
X357012Y533500D02*
X357146Y533495D01*
X357296Y533491D01*
X357465Y533473D01*
X357658Y533448D01*
X357861Y533416D01*
X358074Y533359D01*
X358297Y533296D01*
X358529Y533208D01*
X358772Y533096D01*
X359000Y532966D01*
X359247Y532804D01*
X359480Y532625D01*
X359534Y532579D01*
X359589Y532518D01*
X359670Y532450D01*
X359754Y532349D01*
X359855Y532233D01*
X359975Y532102D01*
X360089Y531945D01*
X360195Y531779D01*
X360312Y531590D01*
X360420Y531391D01*
X360505Y531182D01*
X360592Y530956D01*
X360663Y530712D01*
X360709Y530475D01*
X360732Y530210D01*
X360733Y530194D01*
X360738Y530144D01*
X360736Y530069D01*
X360728Y529968D01*
X360714Y529842D01*
X360702Y529700D01*
X360674Y529539D01*
X360640Y529353D01*
X360583Y529156D01*
X360517Y528950D01*
X360437Y528727D01*
X360340Y528502D01*
X360236Y528268D01*
X360098Y528031D01*
X359927Y527791D01*
X359748Y527559D01*
X359733Y527541D01*
X359703Y527505D01*
X359633Y527440D01*
X359558Y527351D01*
X359449Y527258D01*
X359335Y527139D01*
X359187Y527018D01*
X359032Y526888D01*
X358851Y526764D01*
X358663Y526631D01*
X358449Y526504D01*
X358234Y526393D01*
X357993Y526289D01*
X357751Y526201D01*
X357491Y526129D01*
X357228Y526089D01*
X357211Y526087D01*
X357162Y526083D01*
X357086Y526085D01*
X356987Y526076D01*
X356854Y526081D01*
X356711Y526093D01*
X356543Y526112D01*
X356366Y526138D01*
X356163Y526171D01*
X355950Y526227D01*
X355735Y526300D01*
X355502Y526388D01*
X355268Y526492D01*
X355040Y526622D01*
X354802Y526776D01*
X354570Y526956D01*
X354516Y527001D01*
X354460Y527063D01*
X354380Y527131D01*
X354296Y527232D01*
X354194Y527348D01*
X354074Y527479D01*
X353961Y527635D01*
X353838Y527800D01*
X353730Y527982D01*
X353621Y528181D01*
X353520Y528388D01*
X353433Y528614D01*
X353362Y528857D01*
X353307Y529103D01*
X353277Y529358D01*
X353275Y529375D01*
X353271Y529424D01*
X353273Y529499D01*
X353281Y529600D01*
X353287Y529717D01*
X353307Y529869D01*
X353326Y530037D01*
X353368Y530216D01*
X353410Y530411D01*
X353466Y530624D01*
X353546Y530848D01*
X353643Y531073D01*
X353757Y531299D01*
X353894Y531536D01*
X354048Y531774D01*
X354228Y532007D01*
X354243Y532025D01*
X354273Y532061D01*
X354342Y532125D01*
X354418Y532215D01*
X354526Y532308D01*
X354658Y532427D01*
X354796Y532556D01*
X354960Y532679D01*
X355132Y532811D01*
X355329Y532936D01*
X355543Y533063D01*
X355766Y533182D01*
X355999Y533278D01*
X356249Y533375D01*
X356501Y533438D01*
X356772Y533487D01*
X356789Y533489D01*
X356838Y533493D01*
X356921Y533500D01*
X357012Y533500D01*
D02*
G37*
G36*
X364988Y527834D02*
X365025Y527787D01*
X365079Y527742D01*
X365199Y527611D01*
X365338Y527448D01*
X365479Y527269D01*
X365622Y527057D01*
X365760Y526819D01*
X365866Y526561D01*
X365956Y526286D01*
X366007Y525999D01*
X366025Y525692D01*
X365994Y525381D01*
X365950Y525219D01*
X365897Y525065D01*
X365820Y524900D01*
X365733Y524742D01*
X365623Y524574D01*
X365496Y524405D01*
X365489Y524396D01*
X365466Y524369D01*
X365428Y524324D01*
X365367Y524269D01*
X365297Y524204D01*
X365211Y524138D01*
X365118Y524064D01*
X365000Y523979D01*
X364891Y523902D01*
X364748Y523823D01*
X364603Y523760D01*
X364451Y523689D01*
X364272Y523640D01*
X364101Y523600D01*
X363911Y523575D01*
X363721Y523567D01*
X363704Y523565D01*
X363678Y523571D01*
X363620Y523574D01*
X363536Y523584D01*
X363452Y523593D01*
X363333Y523616D01*
X363214Y523639D01*
X363078Y523677D01*
X362932Y523722D01*
X362778Y523776D01*
X362605Y523844D01*
X362440Y523921D01*
X362266Y524006D01*
X362089Y524123D01*
X361912Y524241D01*
X361130Y524898D01*
X359509Y522965D01*
X358322Y523960D01*
X362983Y529516D01*
X364988Y527834D01*
D02*
G37*
G36*
X368539Y524854D02*
X367694Y521949D01*
X367687Y521923D01*
X367681Y521897D01*
X367653Y521845D01*
X367625Y521776D01*
X367584Y521672D01*
X367528Y521551D01*
X367459Y521395D01*
X367468Y521387D01*
X367475Y521396D01*
X367515Y521425D01*
X367561Y521462D01*
X367632Y521510D01*
X367781Y521615D01*
X367947Y521721D01*
X370696Y523044D01*
X371955Y521988D01*
X367137Y519934D01*
X365477Y517956D01*
X364291Y518952D01*
X365935Y520912D01*
X367182Y525993D01*
X368539Y524854D01*
D02*
G37*
G36*
X373564Y520638D02*
X372974Y518237D01*
X372976Y518221D01*
X372962Y518186D01*
X372942Y518126D01*
X372924Y518050D01*
X372891Y517955D01*
X372857Y517861D01*
X372760Y517636D01*
X372769Y517628D01*
X372777Y517637D01*
X372818Y517649D01*
X372873Y517679D01*
X372944Y517727D01*
X373031Y517776D01*
X373135Y517827D01*
X373358Y517946D01*
X375685Y518858D01*
X377007Y517749D01*
X373010Y516400D01*
X372390Y512156D01*
X370979Y513340D01*
X371527Y516020D01*
X371535Y516029D01*
X371534Y516046D01*
X371547Y516080D01*
X371559Y516131D01*
X371587Y516200D01*
X371621Y516278D01*
X371664Y516365D01*
X371721Y516470D01*
X371703Y516485D01*
X371696Y516476D01*
X371672Y516466D01*
X371649Y516439D01*
X371601Y516418D01*
X371538Y516379D01*
X371467Y516331D01*
X371380Y516282D01*
X371268Y516222D01*
X368723Y515233D01*
X367311Y516418D01*
X371422Y517702D01*
X372126Y521845D01*
X373564Y520638D01*
D02*
G37*
G36*
X374503Y507901D02*
X374111Y507434D01*
X370821Y510194D01*
X371213Y510662D01*
X374503Y507901D01*
D02*
G37*
G36*
X382167Y513419D02*
X379451Y510183D01*
X379436Y510165D01*
X379398Y510120D01*
X379355Y510050D01*
X379288Y509952D01*
X379216Y509829D01*
X379136Y509697D01*
X379066Y509541D01*
X379005Y509378D01*
X378955Y509190D01*
X378921Y509004D01*
X378913Y508812D01*
X378931Y508613D01*
X378972Y508425D01*
X379072Y508234D01*
X379205Y508046D01*
X379379Y507869D01*
X379424Y507832D01*
X379485Y507795D01*
X379565Y507744D01*
X379668Y507703D01*
X379781Y507655D01*
X379908Y507624D01*
X380061Y507588D01*
X380221Y507577D01*
X380378Y507582D01*
X380559Y507615D01*
X380753Y507682D01*
X380953Y507774D01*
X381158Y507909D01*
X381367Y508085D01*
X381572Y508311D01*
X384333Y511601D01*
X385520Y510606D01*
X382865Y507441D01*
X382857Y507433D01*
X382842Y507415D01*
X382812Y507379D01*
X382774Y507334D01*
X382720Y507287D01*
X382658Y507232D01*
X382581Y507158D01*
X382504Y507085D01*
X382310Y506926D01*
X382083Y506765D01*
X381831Y506593D01*
X381536Y506442D01*
X381214Y506314D01*
X380873Y506218D01*
X380692Y506185D01*
X380519Y506162D01*
X380329Y506153D01*
X380136Y506162D01*
X379934Y506194D01*
X379738Y506235D01*
X379534Y506284D01*
X379327Y506366D01*
X379119Y506464D01*
X378900Y506586D01*
X378687Y506734D01*
X378473Y506899D01*
X378419Y506944D01*
X378381Y506991D01*
X378336Y507029D01*
X378281Y507090D01*
X378152Y507229D01*
X378021Y507401D01*
X377877Y507613D01*
X377731Y507859D01*
X377614Y508140D01*
X377513Y508439D01*
X377444Y508758D01*
X377428Y508940D01*
X377421Y509114D01*
X377429Y509306D01*
X377446Y509491D01*
X377478Y509694D01*
X377536Y509891D01*
X377601Y510096D01*
X377700Y510305D01*
X377806Y510522D01*
X377937Y510734D01*
X378093Y510956D01*
X378265Y511179D01*
X380980Y514415D01*
X382167Y513419D01*
D02*
G37*
G36*
X386778Y508983D02*
X386794Y508985D01*
X386820Y508979D01*
X386871Y508966D01*
X386946Y508965D01*
X387032Y508939D01*
X387134Y508914D01*
X387252Y508891D01*
X387381Y508844D01*
X387518Y508806D01*
X387674Y508737D01*
X387830Y508667D01*
X387995Y508590D01*
X388171Y508489D01*
X388347Y508371D01*
X388517Y508244D01*
X388704Y508102D01*
X388839Y507989D01*
X388903Y507920D01*
X388984Y507852D01*
X389067Y507767D01*
X389158Y507676D01*
X389351Y507467D01*
X389555Y507235D01*
X389734Y506993D01*
X389889Y506740D01*
X388954Y505625D01*
X388953Y505642D01*
X388942Y505666D01*
X388930Y505706D01*
X388908Y505771D01*
X388877Y505843D01*
X388844Y505932D01*
X388802Y506029D01*
X388751Y506132D01*
X388606Y506361D01*
X388435Y506613D01*
X388221Y506869D01*
X388110Y506992D01*
X387894Y507174D01*
X387806Y507232D01*
X387699Y507306D01*
X387576Y507379D01*
X387429Y507441D01*
X387282Y507503D01*
X387129Y507540D01*
X387113Y507538D01*
X387071Y507543D01*
X386995Y507545D01*
X386905Y507528D01*
X386798Y507511D01*
X386702Y507469D01*
X386598Y507418D01*
X386506Y507327D01*
X386499Y507318D01*
X386476Y507291D01*
X386447Y507239D01*
X386428Y507178D01*
X386393Y507100D01*
X386359Y507006D01*
X386352Y506905D01*
X386354Y506781D01*
X386356Y506764D01*
X386360Y506714D01*
X386393Y506626D01*
X386428Y506504D01*
X386452Y506423D01*
X386485Y506334D01*
X386519Y506229D01*
X386562Y506116D01*
X386623Y505988D01*
X386677Y505851D01*
X386749Y505699D01*
X386829Y505539D01*
X386838Y505532D01*
X386850Y505491D01*
X386880Y505435D01*
X386911Y505363D01*
X386952Y505284D01*
X386995Y505171D01*
X387090Y504938D01*
X387188Y504671D01*
X387272Y504387D01*
X387322Y504100D01*
X387333Y503968D01*
X387336Y503843D01*
X387339Y503810D01*
X387329Y503726D01*
X387307Y503607D01*
X387271Y503437D01*
X387212Y503257D01*
X387130Y503050D01*
X387015Y502840D01*
X386858Y502635D01*
X386851Y502626D01*
X386828Y502599D01*
X386798Y502563D01*
X386736Y502508D01*
X386675Y502452D01*
X386598Y502379D01*
X386409Y502246D01*
X386181Y502101D01*
X386053Y502040D01*
X385907Y501994D01*
X385761Y501948D01*
X385606Y501909D01*
X385441Y501894D01*
X385274Y501897D01*
X385265Y501904D01*
X385232Y501901D01*
X385181Y501913D01*
X385113Y501924D01*
X385029Y501934D01*
X384927Y501958D01*
X384816Y501990D01*
X384687Y502037D01*
X384549Y502091D01*
X384402Y502154D01*
X384237Y502231D01*
X384063Y502315D01*
X383887Y502417D01*
X383702Y502542D01*
X383514Y502684D01*
X383318Y502833D01*
X383228Y502909D01*
X383163Y502978D01*
X383083Y503046D01*
X383000Y503130D01*
X382900Y503230D01*
X382800Y503329D01*
X382578Y503577D01*
X382363Y503849D01*
X382162Y504140D01*
X382003Y504442D01*
X382998Y505629D01*
X383000Y505612D01*
X383003Y505579D01*
X383016Y505522D01*
X383040Y505441D01*
X383072Y505352D01*
X383099Y505238D01*
X383151Y505118D01*
X383205Y504981D01*
X383268Y504836D01*
X383347Y504693D01*
X383532Y504385D01*
X383637Y504235D01*
X383758Y504088D01*
X383895Y503942D01*
X384050Y503797D01*
X384131Y503729D01*
X384228Y503663D01*
X384335Y503589D01*
X384483Y503510D01*
X384622Y503439D01*
X384777Y503386D01*
X384921Y503357D01*
X384938Y503358D01*
X384980Y503354D01*
X385062Y503361D01*
X385145Y503368D01*
X385243Y503393D01*
X385348Y503427D01*
X385451Y503495D01*
X385535Y503577D01*
X385543Y503586D01*
X385565Y503613D01*
X385594Y503665D01*
X385621Y503735D01*
X385656Y503812D01*
X385680Y503915D01*
X385694Y504041D01*
X385692Y504165D01*
X385690Y504182D01*
X385677Y504239D01*
X385652Y504337D01*
X385646Y504403D01*
X385615Y504475D01*
X385582Y504564D01*
X385548Y504669D01*
X385504Y504782D01*
X385443Y504910D01*
X385381Y505055D01*
X385317Y505215D01*
X385227Y505382D01*
X385127Y505574D01*
X385117Y505598D01*
X385096Y505646D01*
X385056Y505726D01*
X385003Y505846D01*
X384957Y505992D01*
X384910Y506154D01*
X384861Y506333D01*
X384819Y506521D01*
X384784Y506735D01*
X384773Y506959D01*
X384770Y507175D01*
X384792Y507402D01*
X384838Y507639D01*
X384911Y507854D01*
X385033Y508073D01*
X385174Y508276D01*
X385181Y508285D01*
X385204Y508312D01*
X385234Y508348D01*
X385288Y508395D01*
X385350Y508450D01*
X385436Y508516D01*
X385615Y508657D01*
X385853Y508794D01*
X385981Y508855D01*
X386127Y508901D01*
X386273Y508947D01*
X386429Y508969D01*
X386602Y508993D01*
X386778Y508983D01*
D02*
G37*
G36*
X393233Y504134D02*
X393288Y504072D01*
X393360Y504012D01*
X393442Y503927D01*
X393534Y503835D01*
X393618Y503734D01*
X393812Y503510D01*
X393993Y503251D01*
X394150Y502981D01*
X394203Y502844D01*
X394249Y502699D01*
X394258Y502691D01*
X394252Y502665D01*
X394278Y502568D01*
X394282Y502426D01*
X394298Y502245D01*
X394267Y502025D01*
X394203Y501803D01*
X394107Y501562D01*
X394026Y501446D01*
X393944Y501331D01*
X393937Y501322D01*
X393929Y501313D01*
X393907Y501286D01*
X393876Y501250D01*
X393791Y501184D01*
X393682Y501091D01*
X393541Y500996D01*
X393373Y500906D01*
X393179Y500839D01*
X392967Y500787D01*
X392934Y500784D01*
X392868Y500779D01*
X392752Y500768D01*
X392602Y500772D01*
X392425Y500798D01*
X392231Y500823D01*
X392018Y500879D01*
X391811Y500961D01*
X391796Y500943D01*
X391823Y500920D01*
X391842Y500889D01*
X391880Y500842D01*
X391956Y500732D01*
X392061Y500583D01*
X392168Y500401D01*
X392253Y500192D01*
X392331Y499973D01*
X392369Y499727D01*
X392372Y499694D01*
X392370Y499619D01*
X392365Y499485D01*
X392345Y499333D01*
X392295Y499146D01*
X392229Y498940D01*
X392122Y498739D01*
X391974Y498526D01*
X391967Y498517D01*
X391944Y498490D01*
X391914Y498454D01*
X391860Y498408D01*
X391798Y498353D01*
X391728Y498288D01*
X391549Y498148D01*
X391311Y498010D01*
X391192Y497941D01*
X391055Y497888D01*
X390910Y497842D01*
X390755Y497803D01*
X390598Y497781D01*
X390424Y497774D01*
X390407Y497773D01*
X390382Y497779D01*
X390340Y497784D01*
X390265Y497785D01*
X390188Y497804D01*
X390095Y497821D01*
X389977Y497843D01*
X389856Y497883D01*
X389720Y497921D01*
X389582Y497976D01*
X389418Y498036D01*
X389270Y498115D01*
X389103Y498209D01*
X388928Y498310D01*
X388759Y498437D01*
X388580Y498571D01*
X386504Y500313D01*
X391165Y505869D01*
X393233Y504134D01*
D02*
G37*
G36*
X402663Y496221D02*
X401848Y495250D01*
X399861Y496917D01*
X398662Y495488D01*
X400487Y493957D01*
X399680Y492995D01*
X397855Y494526D01*
X396014Y492333D01*
X394828Y493329D01*
X399489Y498884D01*
X402663Y496221D01*
D02*
G37*
G36*
X392958Y492415D02*
X392566Y491948D01*
X389276Y494709D01*
X389668Y495176D01*
X392958Y492415D01*
D02*
G37*
G36*
X405602Y493755D02*
X405639Y493708D01*
X405693Y493663D01*
X405813Y493532D01*
X405952Y493369D01*
X406093Y493190D01*
X406236Y492977D01*
X406374Y492739D01*
X406480Y492482D01*
X406570Y492207D01*
X406620Y491920D01*
X406639Y491613D01*
X406608Y491302D01*
X406564Y491140D01*
X406511Y490985D01*
X406433Y490821D01*
X406347Y490663D01*
X406237Y490495D01*
X406110Y490326D01*
X406103Y490317D01*
X406080Y490290D01*
X406042Y490245D01*
X405981Y490190D01*
X405911Y490125D01*
X405825Y490059D01*
X405732Y489985D01*
X405615Y489899D01*
X405505Y489823D01*
X405362Y489744D01*
X405217Y489681D01*
X405065Y489610D01*
X404886Y489561D01*
X404715Y489521D01*
X404525Y489496D01*
X404334Y489487D01*
X404318Y489486D01*
X404292Y489492D01*
X404234Y489495D01*
X404150Y489505D01*
X404066Y489514D01*
X403947Y489537D01*
X403828Y489560D01*
X403692Y489598D01*
X403546Y489643D01*
X403392Y489696D01*
X403219Y489765D01*
X403054Y489842D01*
X402880Y489927D01*
X402703Y490044D01*
X402526Y490162D01*
X401744Y490818D01*
X400122Y488886D01*
X398936Y489881D01*
X403597Y495437D01*
X405602Y493755D01*
D02*
G37*
G36*
X408550Y490239D02*
X408684Y490234D01*
X408843Y490223D01*
X409020Y490197D01*
X409214Y490173D01*
X409426Y490133D01*
X409648Y490069D01*
X409888Y489990D01*
X410130Y489894D01*
X410373Y489782D01*
X410626Y489646D01*
X410873Y489485D01*
X411124Y489290D01*
X411259Y489177D01*
X411323Y489108D01*
X411404Y489040D01*
X411486Y488955D01*
X411577Y488863D01*
X411762Y488663D01*
X411965Y488431D01*
X412145Y488188D01*
X412300Y487935D01*
X411342Y486794D01*
X411333Y486801D01*
X411330Y486834D01*
X411311Y486866D01*
X411288Y486931D01*
X411250Y486994D01*
X411209Y487074D01*
X411167Y487170D01*
X411109Y487265D01*
X410973Y487486D01*
X410795Y487712D01*
X410583Y487952D01*
X410337Y488188D01*
X410256Y488256D01*
X410195Y488293D01*
X410115Y488344D01*
X410027Y488403D01*
X409922Y488460D01*
X409817Y488518D01*
X409557Y488628D01*
X409412Y488674D01*
X409257Y488727D01*
X409096Y488755D01*
X408937Y488766D01*
X408770Y488768D01*
X408596Y488761D01*
X408580Y488759D01*
X408555Y488749D01*
X408506Y488745D01*
X408449Y488731D01*
X408368Y488707D01*
X408270Y488682D01*
X408164Y488648D01*
X408052Y488605D01*
X407924Y488544D01*
X407796Y488483D01*
X407669Y488405D01*
X407519Y488317D01*
X407246Y488101D01*
X407109Y487956D01*
X406972Y487811D01*
X406964Y487802D01*
X406941Y487775D01*
X406904Y487730D01*
X406868Y487668D01*
X406816Y487589D01*
X406757Y487500D01*
X406691Y487403D01*
X406633Y487298D01*
X406506Y487037D01*
X406415Y486746D01*
X406362Y486591D01*
X406334Y486431D01*
X406323Y486271D01*
X406321Y486105D01*
X406323Y486088D01*
X406324Y486072D01*
X406329Y486022D01*
X406343Y485948D01*
X406358Y485874D01*
X406382Y485793D01*
X406416Y485688D01*
X406450Y485583D01*
X406495Y485453D01*
X406547Y485333D01*
X406702Y485080D01*
X406901Y484806D01*
X407029Y484684D01*
X407165Y484554D01*
X407237Y484494D01*
X407298Y484458D01*
X407361Y484405D01*
X407450Y484346D01*
X407538Y484287D01*
X407652Y484222D01*
X407897Y484093D01*
X408174Y483968D01*
X408483Y483862D01*
X408815Y483782D01*
X407902Y482695D01*
X407893Y482702D01*
X407868Y482708D01*
X407817Y482720D01*
X407757Y482740D01*
X407679Y482775D01*
X407584Y482808D01*
X407481Y482849D01*
X407359Y482905D01*
X407229Y482969D01*
X407089Y483040D01*
X406932Y483126D01*
X406782Y483221D01*
X406614Y483331D01*
X406437Y483449D01*
X406259Y483584D01*
X406025Y483780D01*
X405970Y483842D01*
X405880Y483917D01*
X405787Y484025D01*
X405669Y484140D01*
X405556Y484280D01*
X405435Y484428D01*
X405311Y484608D01*
X405187Y484789D01*
X405078Y484988D01*
X404967Y485203D01*
X404881Y485429D01*
X404802Y485663D01*
X404740Y485900D01*
X404709Y486155D01*
X404708Y486172D01*
X404713Y486214D01*
X404705Y486296D01*
X404706Y486388D01*
X404720Y486514D01*
X404732Y486657D01*
X404752Y486809D01*
X404786Y486995D01*
X404827Y487190D01*
X404892Y487396D01*
X404965Y487610D01*
X405062Y487835D01*
X405176Y488062D01*
X405313Y488299D01*
X405467Y488537D01*
X405647Y488769D01*
X405662Y488787D01*
X405700Y488832D01*
X405761Y488888D01*
X405837Y488978D01*
X405953Y489079D01*
X406076Y489190D01*
X406232Y489320D01*
X406396Y489443D01*
X406575Y489584D01*
X406772Y489709D01*
X406995Y489828D01*
X407227Y489940D01*
X407468Y490045D01*
X407735Y490126D01*
X408004Y490192D01*
X408284Y490233D01*
X408301Y490234D01*
X408350Y490238D01*
X408433Y490246D01*
X408550Y490239D01*
D02*
G37*
G36*
X410155Y477986D02*
X409763Y477518D01*
X406473Y480279D01*
X406865Y480746D01*
X410155Y477986D01*
D02*
G37*
G36*
X417360Y483889D02*
X415269Y478949D01*
X415261Y478940D01*
X415241Y478880D01*
X415205Y478819D01*
X415163Y478732D01*
X415113Y478636D01*
X415048Y478522D01*
X414916Y478311D01*
X414943Y478288D01*
X414951Y478297D01*
X414990Y478325D01*
X415044Y478372D01*
X415113Y478436D01*
X415199Y478502D01*
X415293Y478577D01*
X415528Y478747D01*
X420021Y481656D01*
X421262Y480615D01*
X414667Y476681D01*
X413328Y477805D01*
X416084Y484960D01*
X417360Y483889D01*
D02*
G37*
G36*
X421394Y479294D02*
X421445Y479282D01*
X421506Y479245D01*
X421592Y479219D01*
X421704Y479171D01*
X421833Y479124D01*
X421979Y479078D01*
X422150Y479027D01*
X422509Y478925D01*
X422917Y478827D01*
X423348Y478757D01*
X423785Y478712D01*
X424531Y478086D01*
X419764Y472404D01*
X418596Y473385D01*
X422262Y477754D01*
X422245Y477752D01*
X422203Y477757D01*
X422119Y477766D01*
X422018Y477774D01*
X421883Y477795D01*
X421739Y477825D01*
X421577Y477869D01*
X421389Y477919D01*
X421364Y477925D01*
X421304Y477945D01*
X421209Y477978D01*
X421096Y478027D01*
X420959Y478081D01*
X420828Y478145D01*
X420680Y478223D01*
X420547Y478303D01*
X421385Y479301D01*
X421394Y479294D01*
D02*
G37*
G36*
X422591Y471702D02*
X422659Y471691D01*
X422752Y471674D01*
X422854Y471650D01*
X422957Y471609D01*
X423062Y471552D01*
X423178Y471470D01*
X423223Y471432D01*
X423269Y471378D01*
X423325Y471316D01*
X423383Y471222D01*
X423432Y471134D01*
X423475Y471021D01*
X423503Y470891D01*
X423505Y470874D01*
X423508Y470841D01*
X423506Y470766D01*
X423504Y470691D01*
X423487Y470598D01*
X423455Y470486D01*
X423405Y470391D01*
X423331Y470284D01*
X423324Y470275D01*
X423294Y470239D01*
X423247Y470202D01*
X423176Y470154D01*
X423098Y470097D01*
X423002Y470055D01*
X422887Y470029D01*
X422764Y470010D01*
X422748Y470008D01*
X422706Y470013D01*
X422638Y470023D01*
X422561Y470042D01*
X422467Y470075D01*
X422363Y470116D01*
X422249Y470181D01*
X422134Y470263D01*
X422089Y470300D01*
X422043Y470355D01*
X421987Y470416D01*
X421929Y470511D01*
X421871Y470606D01*
X421828Y470719D01*
X421792Y470841D01*
X421790Y470857D01*
X421787Y470890D01*
X421789Y470965D01*
X421791Y471041D01*
X421808Y471134D01*
X421832Y471236D01*
X421890Y471341D01*
X421956Y471438D01*
X421964Y471447D01*
X421994Y471483D01*
X422048Y471530D01*
X422111Y471568D01*
X422199Y471618D01*
X422295Y471659D01*
X422400Y471694D01*
X422533Y471705D01*
X422549Y471707D01*
X422591Y471702D01*
D02*
G37*
G36*
X428028Y473727D02*
X428079Y473715D01*
X428140Y473679D01*
X428226Y473653D01*
X428339Y473604D01*
X428468Y473557D01*
X428613Y473512D01*
X428784Y473460D01*
X429143Y473358D01*
X429551Y473260D01*
X429982Y473190D01*
X430420Y473145D01*
X431166Y472519D01*
X426398Y466838D01*
X425230Y467818D01*
X428896Y472187D01*
X428879Y472186D01*
X428837Y472190D01*
X428753Y472199D01*
X428652Y472207D01*
X428517Y472229D01*
X428373Y472258D01*
X428211Y472302D01*
X428023Y472352D01*
X427998Y472358D01*
X427938Y472378D01*
X427843Y472411D01*
X427731Y472460D01*
X427593Y472514D01*
X427462Y472578D01*
X427314Y472657D01*
X427182Y472737D01*
X428019Y473735D01*
X428028Y473727D01*
D02*
G37*
%LPC*%
G36*
X338992Y585025D02*
X336469Y584192D01*
X336457D01*
X336422Y584180D01*
X336375Y584168D01*
X336305Y584145D01*
X336211Y584133D01*
X336105Y584109D01*
X335976Y584098D01*
X335835Y584086D01*
Y584039D01*
X335847D01*
X335894D01*
X335953Y584027D01*
X336035Y584016D01*
X336129Y583992D01*
X336235Y583980D01*
X336457Y583910D01*
X338992Y583088D01*
Y585025D01*
D02*
G37*
G36*
X357347Y532055D02*
X357198Y532042D01*
X357042Y532020D01*
X357034Y532011D01*
X357001Y532008D01*
X356961Y531996D01*
X356904Y531983D01*
X356832Y531951D01*
X356743Y531919D01*
X356646Y531877D01*
X356543Y531826D01*
X356431Y531766D01*
X356312Y531698D01*
X356061Y531526D01*
X355797Y531303D01*
X355667Y531166D01*
X355530Y531021D01*
X355523Y531012D01*
X355500Y530985D01*
X355462Y530940D01*
X355426Y530879D01*
X355366Y530807D01*
X355307Y530718D01*
X355257Y530622D01*
X355183Y530516D01*
X355056Y530255D01*
X354938Y529986D01*
X354848Y529679D01*
X354811Y529526D01*
X354800Y529366D01*
X354802Y529350D01*
X354803Y529333D01*
X354808Y529284D01*
X354804Y529225D01*
X354826Y529069D01*
X354877Y528873D01*
X354947Y528646D01*
X355059Y528414D01*
X355136Y528288D01*
X355221Y528171D01*
X355331Y528064D01*
X355449Y527949D01*
X355512Y527896D01*
X355574Y527860D01*
X355635Y527824D01*
X355714Y527772D01*
X355897Y527680D01*
X356114Y527591D01*
X356369Y527530D01*
X356511Y527517D01*
X356654Y527505D01*
X356795Y527509D01*
X356943Y527538D01*
X356959Y527540D01*
X356983Y527550D01*
X357024Y527562D01*
X357081Y527575D01*
X357153Y527607D01*
X357234Y527630D01*
X357331Y527672D01*
X357435Y527723D01*
X357546Y527783D01*
X357665Y527851D01*
X357791Y527929D01*
X357916Y528023D01*
X358180Y528246D01*
X358319Y528375D01*
X358447Y528528D01*
X358455Y528537D01*
X358477Y528564D01*
X358515Y528609D01*
X358559Y528679D01*
X358619Y528751D01*
X358685Y528848D01*
X358752Y528946D01*
X358825Y529069D01*
X358961Y529322D01*
X359085Y529616D01*
X359176Y529907D01*
X359224Y530220D01*
X359231Y530229D01*
X359221Y530253D01*
X359220Y530361D01*
X359207Y530510D01*
X359156Y530705D01*
X359088Y530916D01*
X358967Y531155D01*
X358804Y531399D01*
X358695Y531506D01*
X358576Y531621D01*
X358513Y531674D01*
X358452Y531710D01*
X358390Y531746D01*
X358311Y531798D01*
X358128Y531890D01*
X357895Y531978D01*
X357768Y532008D01*
X357640Y532039D01*
X357497Y532051D01*
X357347Y532055D01*
D02*
G37*
G36*
X363401Y527603D02*
X361892Y525806D01*
X362449Y525338D01*
X362511Y525302D01*
X362581Y525258D01*
X362670Y525199D01*
X362775Y525141D01*
X362887Y525093D01*
X363024Y525055D01*
X363161Y525017D01*
X363303Y525004D01*
X363453Y525001D01*
X363610Y525023D01*
X363756Y525069D01*
X363915Y525150D01*
X364064Y525254D01*
X364209Y525409D01*
X364217Y525418D01*
X364239Y525444D01*
X364268Y525497D01*
X364312Y525567D01*
X364356Y525638D01*
X364389Y525732D01*
X364421Y525844D01*
X364460Y525964D01*
X364474Y526090D01*
X364470Y526231D01*
X364450Y526371D01*
X364411Y526526D01*
X364331Y526685D01*
X364234Y526843D01*
X364094Y527006D01*
X363922Y527166D01*
X363401Y527603D01*
D02*
G37*
G36*
X391613Y503992D02*
X390458Y502617D01*
X391088Y502089D01*
X391176Y502030D01*
X391281Y501972D01*
X391395Y501907D01*
X391533Y501853D01*
X391679Y501807D01*
X391821Y501795D01*
X391838Y501796D01*
X391888Y501800D01*
X391961Y501815D01*
X392059Y501841D01*
X392172Y501884D01*
X392283Y501943D01*
X392401Y502029D01*
X392515Y502147D01*
X392523Y502156D01*
X392538Y502174D01*
X392559Y502217D01*
X392580Y502261D01*
X392636Y502382D01*
X392653Y502476D01*
X392670Y502569D01*
X392670Y502660D01*
X392660Y502776D01*
X392625Y502898D01*
X392572Y503018D01*
X392495Y503145D01*
X392399Y503286D01*
X392270Y503425D01*
X392116Y503570D01*
X391613Y503992D01*
D02*
G37*
G36*
X389712Y501727D02*
X388429Y500199D01*
X389202Y499550D01*
X389291Y499491D01*
X389414Y499418D01*
X389544Y499355D01*
X389691Y499293D01*
X389846Y499240D01*
X390005Y499229D01*
X390022Y499230D01*
X390071Y499234D01*
X390154Y499242D01*
X390259Y499276D01*
X390372Y499319D01*
X390500Y499380D01*
X390625Y499474D01*
X390740Y499593D01*
X390755Y499611D01*
X390785Y499647D01*
X390836Y499726D01*
X390879Y499813D01*
X390918Y499933D01*
X390949Y500061D01*
X390961Y500204D01*
X390948Y500352D01*
X390947Y500369D01*
X390926Y500417D01*
X390893Y500506D01*
X390851Y500602D01*
X390774Y500728D01*
X390687Y500863D01*
X390558Y501001D01*
X390404Y501146D01*
X389712Y501727D01*
D02*
G37*
G36*
X404015Y493524D02*
X402506Y491726D01*
X403063Y491259D01*
X403125Y491222D01*
X403195Y491179D01*
X403284Y491120D01*
X403389Y491062D01*
X403501Y491014D01*
X403638Y490976D01*
X403774Y490938D01*
X403917Y490925D01*
X404067Y490922D01*
X404224Y490944D01*
X404370Y490990D01*
X404529Y491070D01*
X404678Y491175D01*
X404823Y491329D01*
X404831Y491338D01*
X404853Y491365D01*
X404882Y491418D01*
X404926Y491488D01*
X404970Y491559D01*
X405003Y491653D01*
X405035Y491764D01*
X405074Y491884D01*
X405088Y492010D01*
X405084Y492152D01*
X405064Y492292D01*
X405025Y492447D01*
X404945Y492606D01*
X404847Y492764D01*
X404708Y492927D01*
X404536Y493087D01*
X404015Y493524D01*
D02*
G37*
%LPD*%
D10*
X460490Y469532D02*
X464702Y465319D01*
X464734Y458465D02*
Y465287D01*
X464665Y458396D02*
X464734Y458465D01*
Y458117D02*
X464803D01*
X468348Y461662D01*
X461200Y461712D02*
X464744Y458167D01*
X349024Y597711D02*
X352568Y594166D01*
X345420Y594216D02*
X348965Y597760D01*
X349034D01*
Y597413D02*
X349103Y597482D01*
X349034Y571143D02*
Y597413D01*
M02*
