G04*
G04 #@! TF.GenerationSoftware,Altium Limited,Altium Designer,20.0.13 (296)*
G04*
G04 Layer_Physical_Order=2*
G04 Layer_Color=16711680*
%FSLAX44Y44*%
%MOMM*%
G71*
G01*
G75*
%ADD16C,0.5080*%
%ADD20R,0.3500X2.3250*%
%ADD21R,0.3500X1.3500*%
%ADD22R,0.7000X1.1000*%
%ADD23R,0.8000X1.5000*%
%ADD24C,0.6096*%
%ADD25C,0.4064*%
G36*
X347295Y607480D02*
X347249Y607411D01*
X346894Y605627D01*
X347249Y603843D01*
X347412Y603599D01*
Y603559D01*
X347383Y602301D01*
X347313Y602133D01*
X347334Y602113D01*
X347330Y602106D01*
X345300Y599633D01*
X343788Y596804D01*
X342857Y593735D01*
X342544Y590551D01*
X342542Y590543D01*
Y577169D01*
X342531D01*
X342894Y572545D01*
X343977Y568036D01*
X345752Y563751D01*
X348175Y559796D01*
X351187Y556270D01*
X351195Y556278D01*
X368126Y539347D01*
X368375Y538974D01*
X450921Y456428D01*
X453670Y453679D01*
X453731Y453638D01*
X455012Y451970D01*
X455844Y449959D01*
X455913Y449441D01*
X455591Y447823D01*
X455586Y447802D01*
X454618Y446650D01*
X453681Y446836D01*
X452743Y446650D01*
X452728D01*
X451641Y447687D01*
X451613Y447823D01*
X451284Y449472D01*
X450274Y450984D01*
X450066Y451123D01*
X449916Y451484D01*
X448886Y451911D01*
X448762Y451995D01*
X446978Y452349D01*
X445194Y451995D01*
X444997Y451863D01*
X444084Y451484D01*
X443951Y451164D01*
X443682Y450984D01*
X442671Y449472D01*
X442316Y447688D01*
X442671Y445904D01*
X443600Y444513D01*
Y436886D01*
X426877D01*
Y446893D01*
X426868Y446940D01*
X426875Y446987D01*
X426873Y447044D01*
X426873Y447046D01*
X426873Y447049D01*
X426872Y447073D01*
X426872Y447073D01*
X426872Y447073D01*
X426871Y447103D01*
X426871Y447105D01*
X426871Y447107D01*
X426870Y447122D01*
X426870Y447146D01*
X426869Y447149D01*
X426870Y447151D01*
X426869Y447176D01*
X426869Y447176D01*
X426869Y447176D01*
X426868Y447191D01*
X426868Y447193D01*
X426868Y447195D01*
X426867Y447220D01*
X426866Y447222D01*
X426867Y447225D01*
X426866Y447249D01*
X426866Y447252D01*
X426866Y447254D01*
X426865Y447279D01*
X426864Y447281D01*
X426865Y447283D01*
X426864Y447308D01*
X426863Y447310D01*
X426864Y447313D01*
X426863Y447337D01*
X426862Y447340D01*
X426863Y447342D01*
X426861Y447396D01*
X426860Y447398D01*
X426861Y447401D01*
X426860Y447415D01*
X426860Y447415D01*
X426860Y447415D01*
X426859Y447444D01*
X426859Y447445D01*
X426859Y447445D01*
X426858Y447474D01*
X426858Y447474D01*
X426858Y447474D01*
X426857Y447503D01*
X426857Y447503D01*
X426857Y447503D01*
X426856Y447533D01*
X426855Y447535D01*
X426856Y447537D01*
X426855Y447562D01*
X426855Y447562D01*
X426855Y447562D01*
X426854Y447577D01*
X426854Y447579D01*
X426854Y447581D01*
X426854Y447591D01*
X426853Y447606D01*
X426853Y447608D01*
X426853Y447610D01*
X426853Y447621D01*
X426852Y447635D01*
X426852Y447638D01*
X426852Y447640D01*
X426851Y447654D01*
X426851Y447654D01*
X426851Y447655D01*
X426850Y447679D01*
X426850Y447694D01*
X426849Y447696D01*
X426850Y447698D01*
X426849Y447713D01*
X426849Y447713D01*
X426849Y447713D01*
X426848Y447743D01*
X426847Y447745D01*
X426848Y447747D01*
X426847Y447772D01*
X426847Y447772D01*
X426847Y447772D01*
X426846Y447787D01*
X426846Y447789D01*
X426846Y447791D01*
X426845Y447816D01*
X426845Y447818D01*
X426845Y447820D01*
X426844Y447845D01*
X426843Y447848D01*
X426844Y447850D01*
X426843Y447864D01*
X426843Y447864D01*
X426843Y447865D01*
X426842Y447908D01*
X426841Y447909D01*
X426842Y447909D01*
X426840Y447938D01*
X426840Y447938D01*
X426840Y447938D01*
X426839Y447967D01*
X426839Y447969D01*
X426839Y447972D01*
X426838Y447997D01*
X426837Y447999D01*
X426838Y448001D01*
X426837Y448016D01*
X426837Y448016D01*
X426837Y448016D01*
X426836Y448040D01*
X426836Y448043D01*
X426836Y448045D01*
X426835Y448074D01*
X426834Y448077D01*
X426834Y448079D01*
X426834Y448089D01*
Y448089D01*
X426833Y448119D01*
X426832Y448121D01*
X426833Y448123D01*
X426832Y448133D01*
Y448133D01*
X426832Y448148D01*
X426831Y448150D01*
X426831Y448152D01*
X426831Y448167D01*
X426831Y448167D01*
X426831Y448167D01*
X426829Y448211D01*
X426829Y448211D01*
X426829Y448211D01*
X426828Y448240D01*
X426827Y448243D01*
X426827Y448245D01*
X426826Y448270D01*
X426826Y448272D01*
X426826Y448274D01*
X426825Y448299D01*
X426824Y448301D01*
X426825Y448304D01*
X426824Y448333D01*
X426823Y448335D01*
X426823Y448337D01*
X426823Y448349D01*
X426822Y448377D01*
X426821Y448379D01*
X426821Y448382D01*
X426820Y448406D01*
X426820Y448408D01*
X426820Y448411D01*
X426818Y448455D01*
X426817Y448457D01*
X426818Y448459D01*
X426817Y448470D01*
X426816Y448484D01*
X426816Y448487D01*
X426816Y448489D01*
X426814Y448530D01*
X426814Y448532D01*
X426814Y448533D01*
X426813Y448562D01*
X426813Y448563D01*
X426813Y448564D01*
X426810Y448623D01*
X426810Y448624D01*
X426810Y448625D01*
X426808Y448655D01*
X426808Y448656D01*
X426808Y448657D01*
X426805Y448716D01*
X426805Y448717D01*
X426805Y448718D01*
X426803Y448747D01*
X426803Y448748D01*
X426803Y448749D01*
X426800Y448808D01*
X426800Y448809D01*
X426800Y448810D01*
X426799Y448840D01*
X426798Y448841D01*
X426798Y448842D01*
X426795Y448901D01*
X426795Y448903D01*
X426795Y448905D01*
X426790Y448993D01*
X426789Y448996D01*
X426790Y448998D01*
X426786Y449056D01*
X426786Y449058D01*
X426786Y449059D01*
X426784Y449088D01*
X426784Y449089D01*
X426784Y449090D01*
X426782Y449120D01*
X426782Y449121D01*
X426782Y449122D01*
X426779Y449180D01*
X426778Y449183D01*
X426778Y449185D01*
X426775Y449244D01*
X426775Y449245D01*
X426775Y449246D01*
X426773Y449275D01*
X426773Y449276D01*
X426773Y449277D01*
X426771Y449307D01*
X426771Y449308D01*
X426771Y449309D01*
X426769Y449338D01*
X426769Y449339D01*
X426767Y449368D01*
X426766Y449370D01*
X426767Y449372D01*
X426765Y449402D01*
X426764Y449403D01*
X426764Y449404D01*
X426760Y449463D01*
X426760Y449465D01*
X426760Y449467D01*
X426758Y449496D01*
Y449496D01*
X426756Y449526D01*
X426755Y449528D01*
X426756Y449530D01*
X426752Y449589D01*
X426751Y449590D01*
X426752Y449591D01*
X426749Y449621D01*
X426749Y449623D01*
X426749Y449625D01*
X426745Y449684D01*
X426744Y449685D01*
X426745Y449686D01*
X426742Y449715D01*
X426742Y449717D01*
X426742Y449720D01*
X426740Y449749D01*
X426740Y449749D01*
X426738Y449779D01*
X426737Y449781D01*
X426737Y449783D01*
X426733Y449841D01*
X426732Y449844D01*
X426732Y449846D01*
X426730Y449875D01*
X426730Y449877D01*
X426730Y449878D01*
X426727Y449907D01*
X426727Y449908D01*
X426727Y449909D01*
X426725Y449939D01*
X426725Y449940D01*
X426725Y449941D01*
X426722Y449970D01*
X426722Y449971D01*
X426722Y449972D01*
X426720Y450002D01*
X426719Y450003D01*
X426719Y450004D01*
X426717Y450033D01*
X426716Y450036D01*
X426716Y450038D01*
X426712Y450096D01*
X426711Y450099D01*
X426711Y450102D01*
X426707Y450146D01*
X426707Y450147D01*
X426707Y450149D01*
X426703Y450192D01*
X426702Y450195D01*
X426703Y450197D01*
X426699Y450241D01*
X426698Y450243D01*
X426698Y450246D01*
X426694Y450289D01*
X426693Y450292D01*
X426694Y450294D01*
X426690Y450338D01*
X426689Y450339D01*
X426689Y450341D01*
X426685Y450385D01*
X426684Y450388D01*
X426684Y450391D01*
X426680Y450435D01*
X426680Y450436D01*
X426680Y450438D01*
X426675Y450482D01*
X426675Y450484D01*
X426675Y450486D01*
X426671Y450530D01*
X426670Y450532D01*
X426670Y450535D01*
X426666Y450578D01*
X426665Y450581D01*
X426665Y450583D01*
X426661Y450627D01*
X426660Y450630D01*
X426660Y450633D01*
X426655Y450677D01*
X426655Y450678D01*
X426655Y450680D01*
X426650Y450723D01*
X426649Y450727D01*
X426650Y450730D01*
X426645Y450774D01*
X426644Y450775D01*
X426644Y450776D01*
X426640Y450820D01*
X426637Y450829D01*
X426638Y450837D01*
X426610Y451070D01*
X426607Y451080D01*
X426608Y451090D01*
X426593Y451206D01*
X426591Y451213D01*
X426591Y451219D01*
X426576Y451336D01*
X426574Y451342D01*
X426575Y451348D01*
X426559Y451465D01*
X426557Y451471D01*
X426557Y451478D01*
X426541Y451594D01*
X426539Y451600D01*
X426539Y451606D01*
X426524Y451707D01*
X426523Y451712D01*
X426523Y451718D01*
X426508Y451819D01*
X426506Y451825D01*
X426506Y451830D01*
X426491Y451932D01*
X426489Y451937D01*
X426489Y451942D01*
X426473Y452044D01*
X426471Y452049D01*
X426471Y452055D01*
X426455Y452156D01*
X426453Y452161D01*
X426453Y452165D01*
X426437Y452267D01*
X426435Y452272D01*
X426435Y452278D01*
X426418Y452379D01*
X426416Y452384D01*
X426416Y452389D01*
X426398Y452490D01*
X426396Y452495D01*
X426397Y452500D01*
X426379Y452601D01*
X426377Y452606D01*
X426377Y452611D01*
X426359Y452712D01*
X426357Y452717D01*
X426357Y452722D01*
X426338Y452823D01*
X426336Y452828D01*
X426336Y452833D01*
X426317Y452934D01*
X426315Y452938D01*
X426315Y452943D01*
X426296Y453044D01*
X426294Y453049D01*
X426294Y453053D01*
X426274Y453154D01*
X426273Y453159D01*
Y453164D01*
X426252Y453265D01*
X426251Y453269D01*
X426251Y453274D01*
X426233Y453360D01*
X426232Y453363D01*
X426232Y453367D01*
X426214Y453453D01*
X426212Y453457D01*
X426212Y453462D01*
X426194Y453548D01*
X426192Y453552D01*
X426192Y453556D01*
X426174Y453642D01*
X426172Y453646D01*
X426172Y453649D01*
X426154Y453736D01*
X426152Y453739D01*
X426152Y453742D01*
X426133Y453829D01*
X426132Y453832D01*
X426132Y453836D01*
X426113Y453923D01*
X426111Y453926D01*
X426111Y453930D01*
X426092Y454016D01*
X426090Y454019D01*
X426090Y454023D01*
X426071Y454109D01*
X426069Y454112D01*
X426069Y454116D01*
X426049Y454202D01*
X426048Y454205D01*
X426048Y454208D01*
X426028Y454294D01*
X426026Y454298D01*
X426026Y454302D01*
X426006Y454388D01*
X426004Y454391D01*
X426004Y454395D01*
X425984Y454481D01*
X425982Y454483D01*
X425982Y454487D01*
X425961Y454572D01*
X425960Y454576D01*
X425959Y454580D01*
X425938Y454666D01*
X425937Y454669D01*
X425937Y454672D01*
X425916Y454757D01*
X425914Y454762D01*
X425914Y454767D01*
X425871Y454938D01*
X425868Y454943D01*
X425868Y454949D01*
X425846Y455034D01*
X425845Y455037D01*
X425844Y455040D01*
X425822Y455125D01*
X425821Y455129D01*
X425821Y455133D01*
X425798Y455219D01*
X425797Y455221D01*
X425797Y455224D01*
X425774Y455310D01*
X425773Y455313D01*
X425772Y455317D01*
X425750Y455402D01*
X425748Y455405D01*
X425748Y455409D01*
X425725Y455494D01*
X425723Y455498D01*
X425723Y455502D01*
X425700Y455587D01*
X425698Y455590D01*
X425698Y455593D01*
X425675Y455678D01*
X425672Y455682D01*
X425672Y455686D01*
X425648Y455771D01*
X425647Y455774D01*
X425647Y455778D01*
X425623Y455862D01*
X425621Y455866D01*
X425621Y455870D01*
X425597Y455955D01*
X425595Y455959D01*
X425594Y455963D01*
X425570Y456047D01*
X425568Y456051D01*
X425568Y456054D01*
X425543Y456139D01*
X425541Y456143D01*
X425541Y456146D01*
X425516Y456231D01*
X425514Y456235D01*
X425514Y456239D01*
X425489Y456323D01*
X425487Y456327D01*
X425486Y456331D01*
X425461Y456416D01*
X425459Y456419D01*
X425459Y456424D01*
X425429Y456522D01*
X425426Y456526D01*
X425426Y456531D01*
X425396Y456630D01*
X425393Y456634D01*
X425393Y456639D01*
X425362Y456737D01*
X425360Y456742D01*
X425359Y456747D01*
X425328Y456845D01*
X425326Y456849D01*
X425325Y456854D01*
X425294Y456951D01*
X425291Y456956D01*
X425291Y456961D01*
X425259Y457059D01*
X425257Y457063D01*
X425256Y457068D01*
X425224Y457166D01*
X425221Y457171D01*
X425221Y457176D01*
X425188Y457273D01*
X425186Y457278D01*
X425185Y457284D01*
X425152Y457381D01*
X425149Y457385D01*
X425149Y457391D01*
X425116Y457488D01*
X425113Y457492D01*
X425112Y457498D01*
X425079Y457595D01*
X425076Y457600D01*
X425075Y457605D01*
X425041Y457702D01*
X425038Y457706D01*
X425038Y457712D01*
X425003Y457808D01*
X425000Y457813D01*
X425000Y457819D01*
X424965Y457916D01*
X424962Y457921D01*
X424961Y457926D01*
X424926Y458023D01*
X424923Y458028D01*
X424922Y458034D01*
X424881Y458144D01*
X424878Y458150D01*
X424877Y458156D01*
X424835Y458266D01*
X424832Y458271D01*
X424831Y458278D01*
X424789Y458387D01*
X424785Y458393D01*
X424784Y458400D01*
X424742Y458509D01*
X424738Y458515D01*
X424737Y458522D01*
X424694Y458632D01*
X424692Y458635D01*
X424691Y458640D01*
X424675Y458681D01*
X424674Y458683D01*
X424673Y458685D01*
X424657Y458726D01*
X424655Y458728D01*
X424655Y458731D01*
X424639Y458771D01*
X424637Y458774D01*
X424637Y458777D01*
X424620Y458817D01*
X424619Y458819D01*
X424619Y458821D01*
X424602Y458862D01*
X424601Y458864D01*
X424601Y458866D01*
X424584Y458907D01*
X424582Y458909D01*
X424582Y458912D01*
X424565Y458953D01*
X424564Y458955D01*
X424564Y458956D01*
X424547Y458997D01*
X424546Y458999D01*
X424545Y459002D01*
X424528Y459043D01*
X424527Y459044D01*
X424526Y459047D01*
X424510Y459087D01*
X424509Y459089D01*
X424508Y459090D01*
X424491Y459131D01*
X424490Y459133D01*
X424489Y459136D01*
X424472Y459177D01*
X424471Y459179D01*
X424471Y459181D01*
X424454Y459221D01*
X424453Y459223D01*
X424452Y459225D01*
X424435Y459266D01*
X424434Y459267D01*
X424433Y459269D01*
X424416Y459310D01*
X424415Y459312D01*
X424415Y459314D01*
X424397Y459354D01*
X424396Y459356D01*
X424396Y459358D01*
X424378Y459399D01*
X424377Y459400D01*
X424377Y459402D01*
X424365Y459429D01*
X424365Y459430D01*
X424364Y459431D01*
X424353Y459458D01*
X424352Y459459D01*
X424352Y459459D01*
X424341Y459486D01*
X424339Y459488D01*
X424339Y459490D01*
X424327Y459517D01*
X424327Y459518D01*
X424327Y459519D01*
X424315Y459546D01*
X424314Y459547D01*
X424314Y459548D01*
X424302Y459575D01*
X424301Y459576D01*
X424301Y459577D01*
X424289Y459604D01*
X424288Y459605D01*
X424288Y459607D01*
X424276Y459634D01*
X424276Y459635D01*
X424276Y459636D01*
X424264Y459663D01*
X424263Y459664D01*
X424263Y459665D01*
X424251Y459692D01*
X424250Y459693D01*
X424250Y459694D01*
X424238Y459721D01*
X424238Y459722D01*
X424238Y459722D01*
X424226Y459749D01*
X424225Y459750D01*
X424225Y459752D01*
X424213Y459779D01*
X424212Y459780D01*
X424211Y459782D01*
X424188Y459835D01*
X424186Y459837D01*
X424186Y459840D01*
X424162Y459893D01*
X424161Y459895D01*
X424160Y459896D01*
X424148Y459923D01*
X424148Y459924D01*
X424147Y459925D01*
X424136Y459952D01*
X424135Y459953D01*
X424134Y459955D01*
X424122Y459981D01*
X424122Y459982D01*
X424121Y459983D01*
X424109Y460010D01*
X424109Y460011D01*
X424108Y460012D01*
X424084Y460065D01*
X424083Y460067D01*
X424083Y460068D01*
X424071Y460095D01*
X424070Y460096D01*
X424070Y460098D01*
X424058Y460125D01*
X424057Y460125D01*
X424057Y460126D01*
X424045Y460152D01*
X424044Y460154D01*
X424043Y460156D01*
X424019Y460209D01*
X424018Y460210D01*
X424018Y460211D01*
X424006Y460238D01*
X424005Y460239D01*
X424005Y460240D01*
X423993Y460266D01*
X423992Y460267D01*
X423992Y460268D01*
X423979Y460295D01*
X423979Y460295D01*
X423979Y460296D01*
X423967Y460323D01*
X423966Y460323D01*
X423966Y460325D01*
X423954Y460351D01*
X423953Y460352D01*
X423952Y460354D01*
X423928Y460407D01*
X423927Y460408D01*
X423927Y460409D01*
X423914Y460436D01*
X423914Y460437D01*
X423914Y460438D01*
X423901Y460464D01*
X423901Y460465D01*
X423901Y460465D01*
X423889Y460492D01*
X423888Y460493D01*
X423888Y460494D01*
X423875Y460520D01*
X423874Y460522D01*
X423874Y460523D01*
X423862Y460550D01*
X423861Y460550D01*
X423849Y460575D01*
X423849Y460577D01*
X423848Y460578D01*
X423836Y460605D01*
X423835Y460605D01*
X423835Y460606D01*
X423823Y460632D01*
X423823Y460633D01*
X423822Y460633D01*
X423810Y460660D01*
X423809Y460661D01*
X423809Y460663D01*
X423784Y460716D01*
X423783Y460717D01*
X423782Y460718D01*
X423757Y460772D01*
X423757Y460773D01*
X423756Y460773D01*
X423744Y460800D01*
X423743Y460801D01*
X423743Y460802D01*
X423725Y460841D01*
X423724Y460842D01*
X423724Y460843D01*
X423718Y460854D01*
X423712Y460867D01*
X423711Y460869D01*
X423710Y460871D01*
X423679Y460937D01*
X423677Y460939D01*
X423677Y460941D01*
X423665Y460966D01*
X423665Y460966D01*
X423664Y460967D01*
X423653Y460990D01*
X423652Y460993D01*
X423651Y460996D01*
X423639Y461021D01*
X423638Y461021D01*
X423638Y461022D01*
X423627Y461047D01*
X423625Y461049D01*
X423624Y461053D01*
X423613Y461075D01*
X423612Y461076D01*
X423612Y461077D01*
X423606Y461091D01*
X423606Y461091D01*
X423600Y461102D01*
X423599Y461103D01*
X423599Y461105D01*
X423548Y461211D01*
X423546Y461214D01*
X423545Y461217D01*
X423540Y461227D01*
X423535Y461238D01*
X423534Y461240D01*
X423533Y461241D01*
X423520Y461268D01*
X423520Y461269D01*
X423520Y461270D01*
X423508Y461295D01*
X423507Y461295D01*
X423507Y461296D01*
X423495Y461321D01*
X423494Y461322D01*
X423494Y461323D01*
X423482Y461347D01*
X423481Y461348D01*
X423481Y461349D01*
X423475Y461362D01*
X423474Y461364D01*
X423473Y461366D01*
X423469Y461375D01*
X423463Y461387D01*
X423461Y461390D01*
X423460Y461393D01*
X423443Y461428D01*
X423442Y461429D01*
X423442Y461430D01*
X423436Y461444D01*
X423435Y461444D01*
X423435Y461445D01*
X423390Y461538D01*
X423389Y461539D01*
X423388Y461541D01*
X423371Y461577D01*
X423369Y461580D01*
X423368Y461583D01*
X423362Y461596D01*
X423362Y461596D01*
X423358Y461604D01*
X423357Y461605D01*
X423356Y461608D01*
X423338Y461645D01*
X423337Y461646D01*
X423337Y461647D01*
X423324Y461674D01*
X423323Y461674D01*
X423323Y461675D01*
X423305Y461713D01*
X423304Y461714D01*
X423304Y461715D01*
X423292Y461740D01*
X423291Y461740D01*
X423291Y461741D01*
X423273Y461779D01*
X423272Y461780D01*
X423272Y461781D01*
X423265Y461794D01*
X423265Y461794D01*
X423259Y461807D01*
X423258Y461808D01*
X423258Y461809D01*
X423240Y461845D01*
X423238Y461848D01*
X423238Y461851D01*
X423233Y461860D01*
X423228Y461871D01*
X423227Y461872D01*
X423227Y461873D01*
X423220Y461886D01*
X423219Y461888D01*
X423218Y461890D01*
X423214Y461900D01*
X423208Y461911D01*
X423206Y461914D01*
X423205Y461917D01*
X423199Y461929D01*
X423195Y461939D01*
X423194Y461940D01*
X423194Y461941D01*
X423182Y461966D01*
X423180Y461967D01*
X423180Y461969D01*
X423168Y461994D01*
X423162Y462005D01*
X423161Y462007D01*
X423160Y462009D01*
X423156Y462018D01*
X423150Y462030D01*
X423148Y462032D01*
X423148Y462035D01*
X423135Y462061D01*
X423130Y462071D01*
X423129Y462072D01*
X423129Y462073D01*
X423123Y462086D01*
X423122Y462087D01*
X423122Y462088D01*
X423116Y462100D01*
X423111Y462111D01*
X423109Y462112D01*
X423109Y462114D01*
X423097Y462139D01*
X423096Y462140D01*
X423096Y462141D01*
X423090Y462153D01*
X423085Y462164D01*
X423023Y462245D01*
X422990Y462342D01*
X422973Y462370D01*
X422971Y462372D01*
X422971Y462374D01*
X422955Y462400D01*
X422954Y462402D01*
X422953Y462405D01*
X422943Y462420D01*
X422941Y462423D01*
X422939Y462427D01*
X422937Y462432D01*
X422926Y462450D01*
X422924Y462453D01*
X422923Y462455D01*
X422914Y462471D01*
X422912Y462473D01*
X422911Y462475D01*
X422896Y462501D01*
X422894Y462504D01*
X422892Y462508D01*
X422884Y462521D01*
X422883Y462523D01*
X422882Y462525D01*
X422873Y462541D01*
X422871Y462543D01*
X422870Y462546D01*
X422861Y462561D01*
X422859Y462563D01*
X422858Y462566D01*
X422848Y462584D01*
X422847Y462585D01*
X422846Y462586D01*
X422837Y462602D01*
X422836Y462604D01*
X422835Y462606D01*
X422825Y462622D01*
X422823Y462625D01*
X422821Y462629D01*
X422814Y462642D01*
X422812Y462644D01*
X422811Y462646D01*
X422794Y462675D01*
X422794Y462676D01*
X422793Y462677D01*
X422778Y462702D01*
X422775Y462706D01*
X422774Y462709D01*
X422768Y462719D01*
X422753Y462745D01*
X422752Y462746D01*
X422752Y462747D01*
X422740Y462767D01*
X422739Y462768D01*
X422739Y462770D01*
X422728Y462787D01*
X422727Y462789D01*
X422727Y462790D01*
X422721Y462800D01*
X422713Y462813D01*
X422710Y462816D01*
X422709Y462820D01*
X422699Y462838D01*
X422698Y462839D01*
X422697Y462840D01*
X422691Y462850D01*
X422691Y462851D01*
X422690Y462852D01*
X422675Y462878D01*
X422674Y462879D01*
X422674Y462881D01*
X422663Y462898D01*
X422662Y462899D01*
X422662Y462901D01*
X422650Y462921D01*
X422649Y462922D01*
X422649Y462923D01*
X422632Y462951D01*
X422631Y462952D01*
X422631Y462953D01*
X422614Y462981D01*
X422614Y462982D01*
X422613Y462983D01*
X422603Y463001D01*
X422601Y463003D01*
X422600Y463006D01*
X422591Y463022D01*
X422590Y463022D01*
X422590Y463023D01*
X422584Y463033D01*
X422583Y463035D01*
X422582Y463036D01*
X422573Y463052D01*
X422571Y463054D01*
X422570Y463056D01*
X422549Y463092D01*
X422547Y463094D01*
X422547Y463096D01*
X422499Y463177D01*
X422496Y463180D01*
X422495Y463184D01*
X422491Y463190D01*
X422475Y463217D01*
X422473Y463219D01*
X422473Y463221D01*
X422468Y463229D01*
X422462Y463240D01*
X422461Y463240D01*
X422461Y463241D01*
X422451Y463257D01*
X422449Y463260D01*
X422447Y463264D01*
X422438Y463280D01*
X422432Y463290D01*
X422431Y463291D01*
X422431Y463292D01*
X422425Y463302D01*
X422424Y463303D01*
X422424Y463304D01*
X422414Y463320D01*
X422408Y463330D01*
X422406Y463332D01*
X422406Y463334D01*
X422395Y463352D01*
X422394Y463353D01*
X422394Y463354D01*
X422388Y463364D01*
X422387Y463365D01*
X422387Y463365D01*
X422364Y463405D01*
X422363Y463405D01*
X422363Y463407D01*
X422339Y463446D01*
X422339Y463446D01*
X422339Y463447D01*
X422315Y463487D01*
X422313Y463488D01*
X422313Y463490D01*
X422289Y463529D01*
X422289Y463530D01*
X422289Y463530D01*
X422265Y463569D01*
X422264Y463571D01*
X422263Y463573D01*
X422251Y463593D01*
X422251Y463593D01*
X422239Y463613D01*
X422239Y463613D01*
X422227Y463633D01*
X422226Y463634D01*
X422225Y463636D01*
X422213Y463656D01*
X422203Y463673D01*
X422202Y463674D01*
X422201Y463676D01*
X422189Y463696D01*
X422188Y463697D01*
X422188Y463698D01*
X422177Y463716D01*
X422165Y463736D01*
X422164Y463737D01*
X422164Y463738D01*
X422140Y463778D01*
X422138Y463780D01*
X422138Y463782D01*
X422113Y463822D01*
X422113Y463822D01*
X422102Y463841D01*
X422101Y463842D01*
X422101Y463843D01*
X422089Y463863D01*
X422088Y463863D01*
X422088Y463864D01*
X422064Y463904D01*
X422063Y463904D01*
X422063Y463905D01*
X422051Y463925D01*
X422050Y463926D01*
X422050Y463927D01*
X422025Y463967D01*
X422024Y463969D01*
X422023Y463970D01*
X422000Y464009D01*
X421999Y464010D01*
X421999Y464011D01*
X421975Y464050D01*
X421974Y464051D01*
X421973Y464052D01*
X421949Y464092D01*
X421948Y464094D01*
X421947Y464096D01*
X421910Y464155D01*
X421909Y464157D01*
X421908Y464159D01*
X421884Y464197D01*
X421883Y464199D01*
X421882Y464201D01*
X421846Y464260D01*
X421844Y464262D01*
X421843Y464264D01*
X421831Y464283D01*
X421831Y464284D01*
X421819Y464304D01*
X421818Y464304D01*
X421818Y464306D01*
X421793Y464345D01*
X421792Y464346D01*
X421792Y464347D01*
X421780Y464366D01*
X421779Y464367D01*
X421778Y464369D01*
X421766Y464388D01*
X421765Y464389D01*
X421765Y464390D01*
X421741Y464429D01*
X421740Y464431D01*
X421739Y464432D01*
X421726Y464452D01*
X421726Y464452D01*
X421726Y464453D01*
X421714Y464472D01*
X421713Y464473D01*
X421713Y464473D01*
X421701Y464493D01*
X421700Y464494D01*
X421700Y464495D01*
X421687Y464515D01*
X421687Y464515D01*
X421686Y464516D01*
X421674Y464536D01*
X421673Y464537D01*
X421672Y464538D01*
X421654Y464568D01*
X421653Y464568D01*
X421653Y464569D01*
X421634Y464599D01*
X421633Y464600D01*
X421633Y464601D01*
X421614Y464631D01*
X421614Y464631D01*
X421614Y464632D01*
X421595Y464661D01*
X421593Y464663D01*
X421592Y464665D01*
X421574Y464695D01*
X421573Y464695D01*
X421573Y464696D01*
X421554Y464726D01*
X421553Y464727D01*
X421553Y464728D01*
X421534Y464757D01*
X421532Y464759D01*
X421531Y464761D01*
X421513Y464790D01*
X421512Y464791D01*
X421512Y464791D01*
X421493Y464821D01*
X421492Y464822D01*
X421492Y464824D01*
X421473Y464853D01*
X421472Y464854D01*
X421471Y464855D01*
X421452Y464885D01*
X421451Y464886D01*
X421451Y464887D01*
X421432Y464917D01*
X421431Y464917D01*
X421430Y464919D01*
X421411Y464948D01*
X421410Y464949D01*
X421409Y464951D01*
X421384Y464990D01*
X421383Y464992D01*
X421382Y464994D01*
X421356Y465033D01*
X421355Y465034D01*
X421355Y465036D01*
X421329Y465075D01*
X421327Y465077D01*
X421326Y465079D01*
X421301Y465118D01*
X421300Y465119D01*
X421299Y465121D01*
X421273Y465160D01*
X421272Y465162D01*
X421271Y465163D01*
X421245Y465202D01*
X421244Y465204D01*
X421243Y465206D01*
X421217Y465245D01*
X421216Y465247D01*
X421215Y465249D01*
X421182Y465298D01*
X421180Y465300D01*
X421179Y465302D01*
X421147Y465351D01*
X421146Y465352D01*
X421145Y465354D01*
X421113Y465402D01*
X421110Y465405D01*
X421109Y465409D01*
X421076Y465457D01*
X421075Y465458D01*
X421074Y465460D01*
X421041Y465508D01*
X421039Y465511D01*
X421037Y465514D01*
X421004Y465563D01*
X421003Y465564D01*
X421002Y465566D01*
X420969Y465615D01*
X420967Y465617D01*
X420966Y465619D01*
X420933Y465668D01*
X420931Y465670D01*
X420929Y465673D01*
X420896Y465721D01*
X420895Y465723D01*
X420894Y465725D01*
X420861Y465773D01*
X420858Y465775D01*
X420857Y465779D01*
X420823Y465827D01*
X420822Y465828D01*
X420821Y465830D01*
X420788Y465878D01*
X420785Y465881D01*
X420784Y465884D01*
X420750Y465932D01*
X420748Y465934D01*
X420747Y465936D01*
X420713Y465984D01*
X420711Y465986D01*
X420710Y465989D01*
X420676Y466037D01*
X420674Y466039D01*
X420672Y466042D01*
X420639Y466090D01*
X420636Y466092D01*
X420635Y466095D01*
X420601Y466143D01*
X420599Y466144D01*
X420598Y466147D01*
X420564Y466194D01*
X420561Y466197D01*
X420560Y466200D01*
X420526Y466248D01*
X420518Y466255D01*
X420513Y466265D01*
X420306Y466548D01*
X420293Y466560D01*
X420285Y466575D01*
X420110Y466809D01*
X420098Y466819D01*
X420091Y466833D01*
X419912Y467065D01*
X419901Y467075D01*
X419893Y467089D01*
X419712Y467318D01*
X419541Y467465D01*
X419338Y467702D01*
X419212Y467928D01*
X419052Y468115D01*
X419042Y468123D01*
X419035Y468134D01*
X418874Y468320D01*
X418863Y468328D01*
X418857Y468339D01*
X418694Y468523D01*
X418683Y468531D01*
X418676Y468543D01*
X418511Y468725D01*
X418503Y468731D01*
X418498Y468739D01*
X418427Y468816D01*
X418423Y468819D01*
X418421Y468823D01*
X418381Y468866D01*
X418379Y468867D01*
X418377Y468870D01*
X418338Y468913D01*
X418335Y468914D01*
X418334Y468917D01*
X418294Y468960D01*
X418291Y468962D01*
X418289Y468965D01*
X418249Y469007D01*
X418246Y469009D01*
X418245Y469012D01*
X418204Y469055D01*
X418202Y469056D01*
X418201Y469058D01*
X418161Y469101D01*
X418158Y469103D01*
X418156Y469105D01*
X418116Y469148D01*
X418114Y469149D01*
X418112Y469152D01*
X418072Y469194D01*
X418069Y469196D01*
X418067Y469199D01*
X418027Y469241D01*
X418025Y469242D01*
X418023Y469244D01*
X417983Y469287D01*
X417981Y469288D01*
X417980Y469290D01*
X417939Y469332D01*
X417936Y469334D01*
X417934Y469337D01*
X417894Y469379D01*
X417891Y469380D01*
X417890Y469383D01*
X417849Y469425D01*
X417846Y469426D01*
X417845Y469429D01*
X417804Y469470D01*
X417802Y469472D01*
X417800Y469474D01*
X417760Y469515D01*
X417757Y469517D01*
X417756Y469520D01*
X417715Y469561D01*
X417712Y469563D01*
X417710Y469565D01*
X417669Y469607D01*
X417668Y469608D01*
X417666Y469609D01*
X417625Y469651D01*
X417622Y469653D01*
X417621Y469655D01*
X417579Y469697D01*
X417578Y469698D01*
X417576Y469700D01*
X417535Y469741D01*
X417533Y469742D01*
X417531Y469745D01*
X417498Y469778D01*
X417496Y469779D01*
X417495Y469780D01*
X417462Y469813D01*
X417461Y469814D01*
X417460Y469815D01*
X417426Y469848D01*
X417425Y469849D01*
X417424Y469851D01*
X417390Y469884D01*
X417388Y469885D01*
X417387Y469888D01*
X417353Y469920D01*
X417352Y469921D01*
X417352Y469922D01*
X417327Y469946D01*
X417326Y469947D01*
X417325Y469948D01*
X417300Y469972D01*
X417298Y469974D01*
X417297Y469975D01*
X417272Y470000D01*
X417271Y470000D01*
X417271Y470001D01*
X417246Y470025D01*
X417244Y470026D01*
X417244Y470027D01*
X417219Y470051D01*
X417217Y470052D01*
X417217Y470053D01*
X417191Y470078D01*
X417190Y470079D01*
X417188Y470081D01*
X417163Y470105D01*
X417162Y470106D01*
X417161Y470107D01*
X417136Y470131D01*
X417136Y470132D01*
X417135Y470132D01*
X417110Y470157D01*
X417109Y470157D01*
X417108Y470158D01*
X417083Y470183D01*
X417081Y470183D01*
X417081Y470185D01*
X417055Y470209D01*
X417054Y470210D01*
X417053Y470211D01*
X417028Y470235D01*
X417027Y470236D01*
X417026Y470237D01*
X417001Y470261D01*
X417001Y470261D01*
X416984Y470277D01*
X416983Y470278D01*
X416982Y470279D01*
X416965Y470295D01*
X416964Y470296D01*
X416963Y470298D01*
X416930Y470328D01*
X416928Y470329D01*
X416927Y470331D01*
X416910Y470347D01*
X416909Y470348D01*
X416909Y470349D01*
X416875Y470381D01*
X416874Y470381D01*
X416873Y470382D01*
X416839Y470414D01*
X416838Y470415D01*
X416836Y470417D01*
X416819Y470433D01*
X416819Y470434D01*
X416818Y470434D01*
X416802Y470449D01*
X416785Y470465D01*
X416784Y470466D01*
X416782Y470468D01*
X416748Y470500D01*
X416748Y470500D01*
X416747Y470501D01*
X416730Y470517D01*
X416730Y470517D01*
X416713Y470533D01*
X416712Y470534D01*
X416711Y470535D01*
X416694Y470551D01*
X416693Y470552D01*
X416691Y470554D01*
X416677Y470567D01*
X416660Y470583D01*
X416657Y470584D01*
X416656Y470587D01*
X416639Y470603D01*
X416639Y470603D01*
X416622Y470619D01*
X416604Y470635D01*
X416604Y470635D01*
X416603Y470636D01*
X416586Y470652D01*
X416585Y470653D01*
X416584Y470653D01*
X416550Y470685D01*
X416549Y470686D01*
X416549Y470687D01*
X416514Y470718D01*
X416513Y470719D01*
X416513Y470720D01*
X416479Y470751D01*
X416478Y470752D01*
X416477Y470753D01*
X416460Y470769D01*
X416459Y470769D01*
X416459Y470770D01*
X416424Y470802D01*
X416423Y470802D01*
X416423Y470803D01*
X416388Y470835D01*
X416387Y470836D01*
X416387Y470836D01*
X416370Y470852D01*
X416370Y470852D01*
X416353Y470868D01*
X416352Y470868D01*
X416351Y470869D01*
X416299Y470917D01*
X416298Y470918D01*
X416296Y470920D01*
X416246Y470966D01*
X416244Y470967D01*
X416242Y470970D01*
X416225Y470985D01*
X416225Y470986D01*
X416210Y470999D01*
X416209Y470999D01*
X416209Y471000D01*
X416191Y471016D01*
X416191Y471016D01*
X416190Y471017D01*
X416173Y471033D01*
X416172Y471033D01*
X416171Y471034D01*
X416156Y471049D01*
X416138Y471064D01*
X416137Y471065D01*
X416135Y471067D01*
X416102Y471097D01*
X416101Y471098D01*
X416101Y471099D01*
X416084Y471114D01*
X416083Y471115D01*
X416082Y471116D01*
X416066Y471130D01*
X416049Y471146D01*
X416048Y471146D01*
X416048Y471147D01*
X416013Y471179D01*
X416012Y471179D01*
X416012Y471180D01*
X415994Y471196D01*
X415994Y471196D01*
X415994Y471196D01*
X415985Y471204D01*
X415984Y471205D01*
X415983Y471206D01*
X415968Y471219D01*
X415968Y471219D01*
X415960Y471227D01*
X415960Y471227D01*
X415959Y471227D01*
X415951Y471235D01*
X415949Y471236D01*
X415948Y471238D01*
X415933Y471251D01*
X415932Y471252D01*
X415931Y471254D01*
X415899Y471282D01*
X415897Y471283D01*
X415896Y471285D01*
X415887Y471293D01*
X415886Y471294D01*
X415884Y471296D01*
X415853Y471324D01*
X415851Y471325D01*
X415849Y471327D01*
X415835Y471340D01*
X415834Y471341D01*
X415832Y471343D01*
X415818Y471355D01*
X415816Y471357D01*
X415815Y471358D01*
X415801Y471371D01*
X415799Y471372D01*
X415798Y471374D01*
X415783Y471387D01*
X415780Y471389D01*
X415777Y471392D01*
X415769Y471400D01*
X415757Y471410D01*
X415754Y471412D01*
X415751Y471416D01*
X415728Y471437D01*
X415727Y471438D01*
X415725Y471439D01*
X415714Y471449D01*
X415710Y471452D01*
X415708Y471455D01*
X415694Y471468D01*
X415692Y471469D01*
X415691Y471470D01*
X415676Y471484D01*
X415675Y471485D01*
X415673Y471486D01*
X415659Y471499D01*
X415657Y471500D01*
X415656Y471502D01*
X415647Y471510D01*
X415645Y471511D01*
X415644Y471512D01*
X415633Y471523D01*
X415631Y471524D01*
X415630Y471525D01*
X415604Y471549D01*
X415604Y471549D01*
X415603Y471549D01*
X415569Y471580D01*
X415567Y471581D01*
X415566Y471583D01*
X415543Y471604D01*
X415543Y471604D01*
X415543Y471604D01*
X415526Y471619D01*
X415524Y471620D01*
X415522Y471622D01*
X415508Y471635D01*
X415507Y471636D01*
X415505Y471637D01*
X415491Y471650D01*
X415489Y471651D01*
X415488Y471653D01*
X415474Y471666D01*
X415470Y471668D01*
X415467Y471671D01*
X415448Y471689D01*
X415446Y471690D01*
X415444Y471692D01*
X415430Y471705D01*
X415428Y471706D01*
X415427Y471708D01*
X415418Y471716D01*
X415418Y471716D01*
X415410Y471723D01*
X415410Y471724D01*
X415401Y471731D01*
X415401Y471731D01*
X415401Y471731D01*
X415392Y471739D01*
X415392Y471739D01*
X415383Y471747D01*
X415383Y471747D01*
X415369Y471760D01*
X415366Y471762D01*
X415363Y471765D01*
X415349Y471778D01*
X415349Y471778D01*
X415335Y471791D01*
X415331Y471793D01*
X415328Y471796D01*
X415314Y471809D01*
X415314Y471809D01*
X415305Y471817D01*
X415303Y471818D01*
X415302Y471820D01*
X415282Y471838D01*
X415279Y471840D01*
X415276Y471843D01*
X415262Y471856D01*
X415262Y471856D01*
X415253Y471864D01*
X415251Y471865D01*
X415250Y471866D01*
X415236Y471880D01*
X415236Y471880D01*
X415227Y471887D01*
X415225Y471888D01*
X415224Y471890D01*
X415213Y471900D01*
X415211Y471901D01*
X415210Y471903D01*
X415201Y471911D01*
X415199Y471912D01*
X415198Y471913D01*
X415183Y471926D01*
X415182Y471927D01*
X415181Y471929D01*
X415166Y471942D01*
X415166Y471942D01*
X415157Y471950D01*
X415156Y471951D01*
X415154Y471952D01*
X415140Y471965D01*
X415138Y471966D01*
X415137Y471968D01*
X415129Y471976D01*
X415085Y472001D01*
X415052Y472041D01*
X414904Y472164D01*
X414904Y472164D01*
X414904Y472165D01*
X414755Y472287D01*
X414755Y472288D01*
X414755Y472288D01*
X414607Y472411D01*
X414532Y472472D01*
X414532Y472473D01*
X414532Y472473D01*
X414384Y472596D01*
X414384Y472596D01*
X414383Y472596D01*
X414235Y472719D01*
X414235Y472719D01*
X414235Y472719D01*
X414087Y472842D01*
X414086Y472842D01*
X414086Y472842D01*
X414012Y472904D01*
X413938Y472965D01*
X413938Y472965D01*
X413938Y472966D01*
X413789Y473089D01*
X413789Y473089D01*
X413789Y473089D01*
X413641Y473212D01*
X413641Y473212D01*
X413640Y473212D01*
X413492Y473335D01*
X413492Y473335D01*
X413492Y473336D01*
X413417Y473397D01*
X413344Y473458D01*
X413343Y473458D01*
X413343Y473459D01*
X413195Y473582D01*
X413195Y473582D01*
X413194Y473582D01*
X412972Y473767D01*
X412972Y473767D01*
X412971Y473767D01*
X412897Y473829D01*
X412824Y473890D01*
X412823Y473890D01*
X412823Y473890D01*
X412675Y474013D01*
X412674Y474013D01*
X412674Y474013D01*
X412526Y474136D01*
X412526Y474137D01*
X412525Y474137D01*
X412377Y474260D01*
X412377Y474260D01*
X412377Y474260D01*
X412303Y474322D01*
X412229Y474383D01*
X412229Y474383D01*
X412228Y474383D01*
X412080Y474506D01*
X412080Y474506D01*
X412080Y474507D01*
X411931Y474630D01*
X411931Y474630D01*
X411931Y474630D01*
X411783Y474753D01*
X411708Y474814D01*
X411634Y474876D01*
X411634Y474876D01*
X411634Y474876D01*
X411485Y474999D01*
X411485Y474999D01*
X411485Y475000D01*
X411337Y475123D01*
X411263Y475184D01*
X411188Y475246D01*
X411188Y475246D01*
X411188Y475246D01*
X411040Y475369D01*
X411039Y475369D01*
X411039Y475369D01*
X410891Y475492D01*
X410817Y475554D01*
X410742Y475616D01*
X410742Y475616D01*
X410742Y475616D01*
X410594Y475739D01*
X410593Y475739D01*
X410593Y475739D01*
X410445Y475862D01*
X410371Y475924D01*
X410297Y475985D01*
X410297Y475985D01*
X410222Y476047D01*
X410222Y476047D01*
X410222Y476047D01*
X410074Y476170D01*
X410073Y476170D01*
X410073Y476171D01*
X409999Y476232D01*
X409925Y476293D01*
X409925Y476294D01*
X409925Y476294D01*
X409776Y476417D01*
X409776Y476417D01*
X409776Y476417D01*
X409628Y476540D01*
X409553Y476602D01*
X409479Y476663D01*
X409479Y476664D01*
X409479Y476664D01*
X409330Y476787D01*
X409330Y476787D01*
X409256Y476848D01*
X409182Y476910D01*
X409107Y476972D01*
X409107Y476972D01*
X409107Y476972D01*
X408959Y477095D01*
X408959Y477095D01*
X408958Y477095D01*
X408884Y477157D01*
X408811Y477218D01*
X408810Y477218D01*
X408810Y477218D01*
X408736Y477280D01*
X408736Y477280D01*
X408735Y477280D01*
X408587Y477403D01*
X408587Y477403D01*
X408587Y477403D01*
X408512Y477465D01*
X408439Y477526D01*
X408438Y477526D01*
X408438Y477527D01*
X408290Y477649D01*
X408290Y477650D01*
X408216Y477711D01*
X408141Y477773D01*
X408067Y477835D01*
X408067Y477835D01*
X408067Y477835D01*
X407918Y477958D01*
X407918Y477958D01*
X407844Y478019D01*
X407770Y478081D01*
X407695Y478143D01*
X407695Y478143D01*
X407695Y478143D01*
X407547Y478266D01*
X406952Y478759D01*
X406952Y478759D01*
X406952Y478759D01*
X406804Y478882D01*
X406655Y479005D01*
X406655Y479006D01*
X406655Y479006D01*
X406506Y479129D01*
X405318Y480115D01*
X405169Y480238D01*
X405169Y480238D01*
X405169Y480238D01*
X404723Y480608D01*
X404575Y480731D01*
X404574Y480731D01*
X404574Y480732D01*
X404426Y480855D01*
X404277Y480978D01*
X404277Y480978D01*
X404277Y480978D01*
X404129Y481101D01*
X403980Y481224D01*
X403980Y481225D01*
X403980Y481225D01*
X403683Y481471D01*
X403683Y481471D01*
X403534Y481594D01*
X403534Y481594D01*
X403534Y481594D01*
X403386Y481717D01*
X403088Y481964D01*
X403088Y481964D01*
X403088Y481964D01*
X402940Y482087D01*
X402791Y482211D01*
X402791Y482211D01*
X402791Y482211D01*
X402642Y482334D01*
X402642Y482334D01*
X402494Y482457D01*
X402494Y482457D01*
X402494Y482457D01*
X402345Y482580D01*
X400562Y484060D01*
X400562Y484060D01*
X400562Y484060D01*
X400265Y484306D01*
X400265Y484306D01*
X400265Y484307D01*
X399893Y484615D01*
X399447Y484985D01*
X399447Y484985D01*
X399447Y484985D01*
X398779Y485539D01*
X398779Y485540D01*
X398779Y485540D01*
X398333Y485909D01*
X397887Y486279D01*
X397887Y486279D01*
X397887Y486279D01*
X397664Y486464D01*
X397219Y486834D01*
X397218Y486834D01*
X396550Y487389D01*
X396550Y487389D01*
X395510Y488252D01*
X395510Y488252D01*
X394247Y489300D01*
X394247Y489300D01*
X394247Y489300D01*
X393801Y489670D01*
X393801Y489670D01*
X393578Y489855D01*
X393578Y489855D01*
X393132Y490225D01*
X393132Y490225D01*
X392910Y490410D01*
X392910Y490410D01*
X392687Y490595D01*
X392687Y490595D01*
X392241Y490965D01*
X392241Y490965D01*
X392018Y491150D01*
X391795Y491335D01*
X391795Y491335D01*
X391572Y491520D01*
X391572Y491520D01*
X391350Y491705D01*
X391349Y491705D01*
X391127Y491890D01*
X390904Y492075D01*
X390904Y492075D01*
X390681Y492260D01*
X390681Y492260D01*
X390235Y492630D01*
X390235Y492630D01*
X390013Y492815D01*
X390013Y492815D01*
X389790Y493000D01*
X389790Y493000D01*
X389567Y493185D01*
X389567Y493185D01*
X389344Y493370D01*
X389344Y493370D01*
X388899Y493740D01*
X388898Y493740D01*
X388898Y493740D01*
X388676Y493925D01*
X388675Y493925D01*
X388675Y493925D01*
X388527Y494048D01*
X388527Y494048D01*
X388527Y494049D01*
X388378Y494171D01*
X388378Y494172D01*
X388378Y494172D01*
X388230Y494295D01*
X388230Y494295D01*
X388230Y494295D01*
X388007Y494480D01*
X388007Y494480D01*
X388007Y494480D01*
X387932Y494542D01*
X387859Y494603D01*
X387859Y494603D01*
X387858Y494604D01*
X387710Y494727D01*
X387710Y494727D01*
X387710Y494727D01*
X387487Y494912D01*
X387487Y494912D01*
X387487Y494912D01*
X387412Y494974D01*
X387339Y495035D01*
X387338Y495035D01*
X387338Y495035D01*
X387190Y495158D01*
X387190Y495158D01*
X387190Y495159D01*
X387115Y495220D01*
X386819Y495467D01*
X386818Y495467D01*
X386818Y495467D01*
X386744Y495529D01*
X386670Y495590D01*
X386670Y495590D01*
X386670Y495590D01*
X386596Y495652D01*
X386595Y495652D01*
X386595Y495652D01*
X386521Y495714D01*
X386448Y495775D01*
X386447Y495775D01*
X386447Y495775D01*
X386373Y495837D01*
X386373Y495837D01*
X386373Y495837D01*
X386298Y495899D01*
X386225Y495960D01*
X386225Y495960D01*
X386224Y495960D01*
X386150Y496022D01*
X386150Y496022D01*
X386150Y496022D01*
X386075Y496084D01*
X386002Y496145D01*
X386002Y496145D01*
X386002Y496145D01*
X385853Y496268D01*
X385853Y496268D01*
X385853Y496269D01*
X385778Y496330D01*
X385705Y496392D01*
X385705Y496392D01*
X385704Y496392D01*
X385556Y496515D01*
X385556Y496515D01*
X385555Y496516D01*
X385481Y496577D01*
X385408Y496638D01*
X385407Y496638D01*
X385407Y496639D01*
X385259Y496762D01*
X385259Y496762D01*
X385259Y496762D01*
X385111Y496885D01*
X385110Y496885D01*
X385110Y496885D01*
X384962Y497008D01*
X384962Y497009D01*
X384962Y497009D01*
X384814Y497132D01*
X384665Y497255D01*
X384665Y497255D01*
X384665Y497256D01*
X384591Y497317D01*
X384368Y497502D01*
X384368Y497502D01*
X384367Y497502D01*
X384294Y497564D01*
X384071Y497748D01*
X384071Y497748D01*
X384071Y497749D01*
X383922Y497872D01*
X383922Y497872D01*
X383922Y497872D01*
X383848Y497934D01*
X383551Y498180D01*
X383551Y498180D01*
X383551Y498181D01*
X383254Y498427D01*
X383254Y498427D01*
X383254Y498427D01*
X383180Y498489D01*
X383180Y498489D01*
X383032Y498612D01*
X383031Y498612D01*
X383031Y498612D01*
X382809Y498797D01*
X382808Y498797D01*
X382808Y498797D01*
X382734Y498859D01*
X382661Y498920D01*
X382660Y498921D01*
X382660Y498921D01*
X382511Y499044D01*
X382289Y499229D01*
X382289Y499229D01*
X382289Y499230D01*
X382214Y499291D01*
X382141Y499352D01*
X382140Y499352D01*
X382140Y499353D01*
X381992Y499476D01*
X381769Y499661D01*
X381769Y499661D01*
X381769Y499661D01*
X381694Y499723D01*
X381621Y499784D01*
X381621Y499784D01*
X381620Y499785D01*
X381546Y499846D01*
X381473Y499908D01*
X381472Y499908D01*
X381472Y499908D01*
X381398Y499970D01*
X381398Y499970D01*
X381398Y499970D01*
X381323Y500032D01*
X381175Y500154D01*
X381175Y500155D01*
X381175Y500155D01*
X381101Y500217D01*
X381027Y500278D01*
X381027Y500278D01*
X381027Y500278D01*
X380878Y500402D01*
X380656Y500586D01*
X380655Y500587D01*
X380655Y500587D01*
X380581Y500649D01*
X380507Y500710D01*
X380507Y500710D01*
X380507Y500710D01*
X380359Y500833D01*
X380359Y500833D01*
X380358Y500834D01*
X380062Y501080D01*
X380061Y501080D01*
X380061Y501081D01*
X379987Y501143D01*
X379765Y501327D01*
X379765Y501327D01*
X379764Y501327D01*
X379616Y501450D01*
X379616Y501451D01*
X379616Y501451D01*
X379245Y501759D01*
X379245Y501759D01*
X379245Y501759D01*
X379096Y501882D01*
X378948Y502006D01*
X378948Y502006D01*
X378948Y502006D01*
X378651Y502253D01*
X378651Y502253D01*
X378650Y502253D01*
X378576Y502315D01*
X378354Y502500D01*
X378354Y502500D01*
X378354Y502500D01*
X378131Y502685D01*
X378131Y502685D01*
X378131Y502685D01*
X378057Y502746D01*
X377983Y502808D01*
X377982Y502808D01*
X377982Y502808D01*
X377686Y503055D01*
X377686Y503055D01*
X377685Y503055D01*
X377537Y503178D01*
X377389Y503302D01*
X377389Y503302D01*
X377388Y503302D01*
X377092Y503549D01*
X377091Y503549D01*
X377091Y503549D01*
X377017Y503611D01*
X376721Y503857D01*
X376720Y503857D01*
X376720Y503858D01*
X376349Y504166D01*
X376349Y504166D01*
X376349Y504166D01*
X376275Y504228D01*
X375310Y505030D01*
X375310Y505030D01*
X375310Y505030D01*
X374791Y505462D01*
X374716Y505523D01*
X374716Y505524D01*
X374716Y505524D01*
X374493Y505709D01*
X374493Y505709D01*
X374420Y505770D01*
X374419Y505770D01*
X374419Y505771D01*
X374271Y505894D01*
X374271Y505894D01*
X374197Y505955D01*
X374197Y505956D01*
X374196Y505956D01*
X374048Y506079D01*
X374048Y506079D01*
X373974Y506141D01*
X373974Y506141D01*
X373974Y506141D01*
X373899Y506203D01*
X373899Y506203D01*
X373826Y506264D01*
X373825Y506264D01*
X373825Y506265D01*
X373751Y506326D01*
X373751Y506326D01*
X373677Y506387D01*
X373677Y506388D01*
X373677Y506388D01*
X373602Y506450D01*
X373602Y506450D01*
X373529Y506511D01*
X373529Y506511D01*
X373529Y506511D01*
X373454Y506573D01*
X373454Y506573D01*
X373380Y506635D01*
X373380Y506635D01*
X373306Y506696D01*
X373306Y506696D01*
X373306Y506696D01*
X373232Y506758D01*
X373232Y506758D01*
X373157Y506820D01*
X373157Y506820D01*
X373084Y506881D01*
X373083Y506881D01*
X373083Y506882D01*
X373009Y506943D01*
X373009Y506943D01*
X372639Y507252D01*
X372638Y507252D01*
X371674Y508054D01*
X371674Y508054D01*
X371080Y508548D01*
X371080Y508548D01*
X370487Y509042D01*
X369893Y509536D01*
X369893Y509537D01*
X369300Y510030D01*
X369300Y510030D01*
X368707Y510524D01*
X368114Y511019D01*
X367150Y511822D01*
X367150Y511822D01*
X367150Y511822D01*
X367076Y511884D01*
X367002Y511945D01*
X367002Y511945D01*
X367002Y511946D01*
X366927Y512007D01*
X366927Y512008D01*
X366927Y512008D01*
X366779Y512131D01*
X366779Y512131D01*
X366705Y512193D01*
X366705Y512193D01*
X366631Y512254D01*
X366631Y512255D01*
X366631Y512255D01*
X366557Y512317D01*
X366557Y512317D01*
X366483Y512378D01*
X366483Y512378D01*
X366409Y512440D01*
X366408Y512440D01*
X366408Y512441D01*
X366260Y512564D01*
X366260Y512564D01*
X366186Y512625D01*
X366186Y512626D01*
X366186Y512626D01*
X366112Y512687D01*
X366112Y512687D01*
X366038Y512749D01*
X366038Y512749D01*
X365815Y512935D01*
X365815Y512935D01*
X365815Y512935D01*
X365741Y512996D01*
X365741Y512996D01*
X365667Y513058D01*
X365667Y513058D01*
X365667Y513059D01*
X365593Y513120D01*
X365593Y513120D01*
X365519Y513182D01*
X365519Y513182D01*
X365518Y513182D01*
X365445Y513244D01*
X365445Y513244D01*
X365370Y513306D01*
X365370Y513306D01*
X365370Y513306D01*
X365296Y513367D01*
X365296Y513367D01*
X365074Y513553D01*
X365074Y513553D01*
X365074Y513553D01*
X365000Y513615D01*
X365000Y513615D01*
X364926Y513676D01*
X364925Y513677D01*
X364925Y513677D01*
X364851Y513738D01*
X364851Y513738D01*
X364629Y513924D01*
X364629Y513924D01*
X364629Y513924D01*
X364555Y513986D01*
X364555Y513986D01*
X364481Y514047D01*
X364480Y514048D01*
X364480Y514048D01*
X364407Y514109D01*
X364407Y514109D01*
X364332Y514171D01*
X364332Y514171D01*
X364332Y514171D01*
X364259Y514232D01*
X364259Y514233D01*
X364184Y514294D01*
X364184Y514295D01*
X364184Y514295D01*
X364110Y514356D01*
X364110Y514357D01*
X364036Y514418D01*
X364035Y514418D01*
X364035Y514419D01*
X363962Y514480D01*
X363961Y514480D01*
X363887Y514542D01*
X363887Y514542D01*
X363887Y514542D01*
X363813Y514604D01*
X363813Y514604D01*
X363739Y514666D01*
X363739Y514666D01*
X363665Y514728D01*
X363665Y514728D01*
X363665Y514728D01*
X363591Y514789D01*
X363591Y514789D01*
X363517Y514851D01*
X363516Y514851D01*
X363516Y514851D01*
X363442Y514913D01*
X363442Y514913D01*
X363368Y514975D01*
X363368Y514975D01*
X363294Y515037D01*
X363294Y515037D01*
X363294Y515037D01*
X363220Y515099D01*
X363220Y515099D01*
X363146Y515160D01*
X363146Y515160D01*
X363072Y515222D01*
X363071Y515222D01*
X363071Y515222D01*
X362997Y515284D01*
X362997Y515284D01*
X362923Y515346D01*
X362923Y515346D01*
X362849Y515408D01*
X362849Y515408D01*
X362848Y515408D01*
X362701Y515531D01*
X362701Y515532D01*
X362627Y515593D01*
X362627Y515593D01*
X362552Y515655D01*
X362552Y515655D01*
X362552Y515655D01*
X362478Y515717D01*
X362478Y515717D01*
X362404Y515779D01*
X362404Y515779D01*
X362330Y515841D01*
X362330Y515841D01*
X362181Y515964D01*
X362181Y515964D01*
X362108Y516026D01*
X362108Y516026D01*
X362033Y516088D01*
X362033Y516088D01*
X362033Y516088D01*
X361959Y516150D01*
X361959Y516150D01*
X361885Y516211D01*
X361885Y516211D01*
X361811Y516273D01*
X361811Y516273D01*
X361811Y516273D01*
X361736Y516335D01*
X361736Y516335D01*
X361663Y516397D01*
X361663Y516397D01*
X361588Y516459D01*
X361588Y516459D01*
X361588Y516459D01*
X361514Y516521D01*
X361514Y516521D01*
X361440Y516582D01*
X361440Y516582D01*
X361366Y516644D01*
X361366Y516644D01*
X361366Y516644D01*
X361292Y516706D01*
X361292Y516706D01*
X361218Y516768D01*
X361217Y516768D01*
X361217Y516768D01*
X361143Y516829D01*
X361143Y516829D01*
X361069Y516891D01*
X361069Y516891D01*
X361069Y516892D01*
X360996Y516953D01*
X360996Y516953D01*
X360921Y517015D01*
X360921Y517015D01*
X360921Y517015D01*
X360847Y517077D01*
X360847Y517077D01*
X360846Y517077D01*
X360773Y517138D01*
X360773Y517138D01*
X360699Y517200D01*
X360699Y517200D01*
X360699Y517201D01*
X360402Y517448D01*
X360402Y517448D01*
X360402Y517448D01*
X360254Y517571D01*
X360254Y517571D01*
X360180Y517633D01*
X360180Y517633D01*
X360179Y517633D01*
X360032Y517757D01*
X360032Y517757D01*
X359958Y517818D01*
X359958Y517818D01*
X359884Y517880D01*
X359884Y517880D01*
X359810Y517942D01*
X359809Y517942D01*
X359809Y517942D01*
X359735Y518004D01*
X359735Y518004D01*
X359662Y518065D01*
X359662Y518065D01*
X359588Y518127D01*
X359587Y518127D01*
X359587Y518128D01*
X359513Y518189D01*
X359513Y518189D01*
X359291Y518374D01*
X359291Y518375D01*
X359143Y518498D01*
X359142Y518499D01*
X359142Y518499D01*
X359069Y518560D01*
X359069Y518560D01*
X358773Y518807D01*
X358773Y518807D01*
X358772Y518808D01*
X358624Y518931D01*
X358624Y518931D01*
X358624Y518931D01*
X358476Y519055D01*
X358402Y519117D01*
X358402Y519117D01*
X358402Y519117D01*
X358328Y519179D01*
X358327Y519179D01*
X358254Y519240D01*
X358254Y519240D01*
X358254Y519241D01*
X358179Y519303D01*
X358179Y519303D01*
X358032Y519426D01*
X358032Y519426D01*
X358031Y519426D01*
X357957Y519488D01*
X357957Y519488D01*
X357587Y519797D01*
X357440Y519921D01*
X357439Y519921D01*
X357439Y519921D01*
X357218Y520106D01*
X357144Y520168D01*
X357143Y520168D01*
X357143Y520169D01*
X356921Y520354D01*
X356699Y520540D01*
X356699Y520540D01*
X356698Y520540D01*
X356625Y520602D01*
X356477Y520725D01*
X356477Y520726D01*
X356477Y520726D01*
X356255Y520911D01*
X356255Y520911D01*
X356254Y520911D01*
X356180Y520973D01*
X355885Y521220D01*
X355885Y521221D01*
X355884Y521221D01*
X355588Y521468D01*
X355588Y521468D01*
X355588Y521469D01*
X355440Y521592D01*
X355440Y521592D01*
X355440Y521592D01*
X355292Y521716D01*
X355292Y521716D01*
X355292Y521716D01*
X355219Y521777D01*
X355144Y521839D01*
X355144Y521840D01*
X355144Y521840D01*
X354996Y521964D01*
X354996Y521964D01*
X354995Y521964D01*
X354922Y522025D01*
X354848Y522087D01*
X354848Y522087D01*
X354848Y522088D01*
X354774Y522150D01*
X354626Y522273D01*
X354552Y522335D01*
X354552Y522335D01*
X354478Y522397D01*
X354478Y522397D01*
X354404Y522459D01*
X354404Y522459D01*
X354403Y522459D01*
X354330Y522521D01*
X354330Y522521D01*
X354256Y522583D01*
X354256Y522583D01*
X354255Y522583D01*
X354181Y522645D01*
X354181Y522645D01*
X354034Y522768D01*
X354034Y522768D01*
X353960Y522830D01*
X353960Y522830D01*
X353960Y522831D01*
X353885Y522893D01*
X353885Y522893D01*
X353885Y522893D01*
X353811Y522954D01*
X353811Y522954D01*
X353663Y523078D01*
X353663Y523078D01*
X353663Y523079D01*
X353589Y523140D01*
X353589Y523140D01*
X353516Y523202D01*
X353442Y523264D01*
X353441Y523264D01*
X353441Y523264D01*
X353145Y523512D01*
X353071Y523574D01*
X353071Y523574D01*
X353071Y523574D01*
X352997Y523636D01*
X352923Y523698D01*
X352923Y523698D01*
X352923Y523698D01*
X352850Y523759D01*
X352776Y523821D01*
X352775Y523821D01*
X352775Y523822D01*
X352701Y523884D01*
X352701Y523884D01*
X352701Y523884D01*
X352627Y523946D01*
X352405Y524131D01*
X352405Y524131D01*
X352405Y524132D01*
X352183Y524317D01*
X352183Y524317D01*
X352183Y524317D01*
X352035Y524441D01*
X352035Y524441D01*
X352035Y524441D01*
X351961Y524503D01*
X351961Y524503D01*
X351888Y524565D01*
X351887Y524565D01*
X351887Y524565D01*
X351813Y524627D01*
X351813Y524627D01*
X351813Y524627D01*
X351739Y524689D01*
X351739Y524689D01*
X351665Y524751D01*
X351665Y524751D01*
X351665Y524751D01*
X351443Y524937D01*
X351369Y524999D01*
X351369Y524999D01*
X351369Y524999D01*
X351295Y525061D01*
X351221Y525123D01*
X351221Y525123D01*
X351074Y525246D01*
X351073Y525246D01*
X351073Y525247D01*
X350999Y525309D01*
X350999Y525309D01*
X350925Y525371D01*
X350925Y525371D01*
X350778Y525494D01*
X350778Y525494D01*
X350777Y525495D01*
X350703Y525557D01*
X350703Y525557D01*
X350629Y525619D01*
X350629Y525619D01*
X350556Y525680D01*
X350556Y525680D01*
X350555Y525681D01*
X350408Y525804D01*
X350334Y525866D01*
X350334Y525866D01*
X350333Y525867D01*
X350259Y525929D01*
X350259Y525929D01*
X350112Y526052D01*
X350112Y526052D01*
X350112Y526052D01*
X349816Y526300D01*
X349521Y526548D01*
X349521Y526548D01*
X349373Y526672D01*
X349373Y526672D01*
X349225Y526796D01*
X349225Y526796D01*
X349077Y526920D01*
X348633Y527292D01*
X348633Y527292D01*
X348633Y527292D01*
X348486Y527416D01*
X348338Y527540D01*
X348338Y527540D01*
X348338Y527540D01*
X348042Y527788D01*
X347599Y528161D01*
X347156Y528533D01*
X347156Y528533D01*
X347156Y528533D01*
X346861Y528781D01*
X346861Y528781D01*
X346713Y528905D01*
X346565Y529029D01*
X346565Y529029D01*
X346417Y529154D01*
X346417Y529154D01*
X346270Y529277D01*
X346270Y529277D01*
X346122Y529402D01*
X345974Y529526D01*
X345532Y529898D01*
X345532Y529898D01*
X345532Y529898D01*
X345384Y530022D01*
X344941Y530395D01*
X344941Y530395D01*
X344941Y530395D01*
X344720Y530582D01*
X344573Y530706D01*
X344425Y530830D01*
X344425Y530830D01*
X344425Y530830D01*
X344351Y530892D01*
X344130Y531078D01*
X344130Y531079D01*
X344056Y531141D01*
X344056Y531141D01*
X344056Y531141D01*
X343982Y531203D01*
X343909Y531265D01*
X343908Y531265D01*
X343908Y531265D01*
X343835Y531327D01*
X343761Y531389D01*
X343761Y531390D01*
X343760Y531390D01*
X343687Y531451D01*
X343614Y531514D01*
X343613Y531514D01*
X343613Y531514D01*
X343466Y531638D01*
X343392Y531700D01*
X343392Y531701D01*
X343392Y531701D01*
X343318Y531763D01*
X342950Y532074D01*
X342949Y532074D01*
X342949Y532074D01*
X342654Y532322D01*
X342654Y532323D01*
X342654Y532323D01*
X342359Y532571D01*
X342359Y532571D01*
X342359Y532572D01*
X342212Y532696D01*
X342212Y532696D01*
X342138Y532758D01*
X342138Y532758D01*
X342137Y532758D01*
X341991Y532882D01*
X341991Y532882D01*
X341917Y532945D01*
X341916Y532945D01*
X341916Y532945D01*
X341843Y533007D01*
X341769Y533069D01*
X341769Y533069D01*
X341769Y533069D01*
X341695Y533131D01*
X341695Y533131D01*
X341622Y533194D01*
X341621Y533194D01*
X341621Y533194D01*
X341548Y533256D01*
X341548Y533256D01*
X341474Y533318D01*
X341473Y533318D01*
X341473Y533319D01*
X341400Y533380D01*
X341326Y533443D01*
X341326Y533443D01*
X341326Y533443D01*
X341253Y533505D01*
X341253Y533505D01*
X341179Y533567D01*
X341179Y533567D01*
X341178Y533567D01*
X341105Y533629D01*
X341105Y533629D01*
X340957Y533754D01*
X340957Y533754D01*
X340957Y533754D01*
X340918Y533787D01*
X340891Y533811D01*
X340891Y533811D01*
X340890Y533812D01*
X340850Y533849D01*
X340829Y533867D01*
X340828Y533868D01*
X340828Y533869D01*
X340808Y533886D01*
X340788Y533905D01*
X340787Y533906D01*
X340786Y533906D01*
X340767Y533924D01*
X340746Y533943D01*
X340745Y533943D01*
X340745Y533944D01*
X340725Y533961D01*
X340685Y533998D01*
X340684Y533999D01*
X340684Y533999D01*
X340643Y534036D01*
X340643Y534036D01*
X340642Y534037D01*
X340623Y534055D01*
X340582Y534091D01*
X340582Y534092D01*
X340581Y534092D01*
X340560Y534111D01*
X340521Y534146D01*
X340521Y534147D01*
X340520Y534148D01*
X340500Y534165D01*
X340438Y534222D01*
X340398Y534259D01*
X340379Y534276D01*
X340378Y534276D01*
X340358Y534295D01*
X340358Y534295D01*
X340337Y534314D01*
X340337Y534314D01*
X340236Y534406D01*
X340178Y534460D01*
X340177Y534460D01*
X340177Y534461D01*
X340159Y534478D01*
X340159Y534478D01*
X340098Y534533D01*
X340098Y534533D01*
X340019Y534606D01*
X339980Y534642D01*
X339939Y534680D01*
X339939Y534680D01*
X339901Y534716D01*
X339862Y534752D01*
X339843Y534770D01*
X339842Y534770D01*
X339841Y534771D01*
X339803Y534807D01*
X339766Y534841D01*
X339725Y534880D01*
X339725Y534880D01*
X339689Y534913D01*
X339689Y534913D01*
X339627Y534971D01*
X339592Y535005D01*
X339552Y535042D01*
X339514Y535079D01*
X339457Y535133D01*
X339420Y535168D01*
X339420Y535168D01*
X339400Y535188D01*
X339364Y535222D01*
X339364Y535222D01*
X339344Y535241D01*
X339309Y535276D01*
X339271Y535312D01*
X339271Y535312D01*
X339254Y535328D01*
X339234Y535348D01*
X339233Y535348D01*
X339233Y535349D01*
X339216Y535365D01*
X339198Y535383D01*
X339198Y535383D01*
X339177Y535403D01*
X339140Y535440D01*
X339122Y535457D01*
X339122Y535457D01*
X339106Y535473D01*
X339067Y535512D01*
X339067Y535512D01*
X339050Y535529D01*
X339049Y535529D01*
X339030Y535549D01*
X339030Y535549D01*
X339013Y535565D01*
X339013Y535565D01*
X338997Y535581D01*
X338977Y535601D01*
X338977Y535601D01*
X338939Y535639D01*
X338905Y535673D01*
X338868Y535710D01*
X338836Y535743D01*
X338801Y535779D01*
X338765Y535815D01*
X338727Y535854D01*
X338692Y535890D01*
X338661Y535922D01*
X338622Y535962D01*
X338591Y535995D01*
X338556Y536032D01*
X338468Y536125D01*
X338386Y536212D01*
X338300Y536306D01*
X338216Y536398D01*
X338131Y536491D01*
X338047Y536586D01*
X337966Y536677D01*
X337882Y536774D01*
X337799Y536870D01*
X337734Y536945D01*
X337671Y537020D01*
X337603Y537100D01*
X337540Y537177D01*
X337472Y537258D01*
X337410Y537335D01*
X337347Y537412D01*
X337280Y537495D01*
X337218Y537573D01*
X337156Y537650D01*
X337093Y537731D01*
X337028Y537815D01*
X336967Y537893D01*
X336904Y537975D01*
X336845Y538053D01*
X336784Y538134D01*
X336717Y538222D01*
X336658Y538302D01*
X336596Y538385D01*
X336538Y538464D01*
X336308Y538782D01*
X336087Y539097D01*
X335870Y539415D01*
X335658Y539735D01*
X335513Y539960D01*
X334910Y541078D01*
X334322Y542037D01*
X333803Y543160D01*
X333549Y543771D01*
X333268Y544450D01*
X333189Y544641D01*
X333189D01*
X333133Y544776D01*
X332689Y545849D01*
X332669Y545912D01*
X332285Y547122D01*
X331917Y548337D01*
X331900Y548403D01*
X331820Y548731D01*
X331745Y549056D01*
X331673Y549384D01*
X331603Y549716D01*
X331539Y550043D01*
X331448Y550534D01*
X331405Y550784D01*
X331362Y551042D01*
X331323Y551295D01*
X331286Y551550D01*
X331250Y551808D01*
X331217Y552063D01*
X331186Y552317D01*
X331158Y552573D01*
X331131Y552830D01*
X331107Y553085D01*
X331085Y553346D01*
X331079Y553418D01*
X331075Y553470D01*
X331072Y553517D01*
X331068Y553573D01*
X331064Y553620D01*
Y553621D01*
X331061Y553674D01*
X331057Y553728D01*
X331057Y553728D01*
X331054Y553775D01*
Y553775D01*
X331050Y553831D01*
X331047Y553879D01*
X331044Y553935D01*
X331044Y553935D01*
X331041Y553983D01*
Y553984D01*
X331037Y554040D01*
X331037Y554040D01*
X331036Y554064D01*
X331035Y554088D01*
X331034Y554090D01*
X331035Y554091D01*
X331033Y554115D01*
X331032Y554142D01*
X331032Y554142D01*
X331030Y554165D01*
X331026Y554245D01*
X331025Y554272D01*
X331025Y554272D01*
X331023Y554300D01*
X331023Y554300D01*
X331022Y554328D01*
X331019Y554377D01*
Y554377D01*
X331018Y554403D01*
X331014Y554484D01*
X331012Y554536D01*
X331012Y554536D01*
X331009Y554592D01*
X331007Y554643D01*
X331005Y554694D01*
X331003Y554748D01*
X331000Y554801D01*
X330997Y554883D01*
X330995Y554934D01*
X330992Y555018D01*
X330992Y555019D01*
X330991Y555042D01*
X330991Y555042D01*
X330987Y555151D01*
X330984Y555259D01*
X330982Y555312D01*
X330982Y555312D01*
X330981Y555340D01*
X330981Y555340D01*
X330980Y555368D01*
X330979Y555420D01*
X330976Y555501D01*
X330974Y555583D01*
X330972Y555667D01*
X330972Y555667D01*
X330969Y555774D01*
X330966Y555858D01*
X330963Y555994D01*
X330963Y555994D01*
X330960Y556106D01*
X330960Y556132D01*
X330959Y556133D01*
X330960Y556134D01*
X330959Y556162D01*
X330956Y556300D01*
X330955Y556325D01*
X330955Y556327D01*
X330955Y556328D01*
X330954Y556356D01*
X330953Y556410D01*
X330953Y556411D01*
X330953Y556412D01*
X330952Y556440D01*
X330950Y556550D01*
X330949Y556575D01*
X330949Y556577D01*
X330949Y556578D01*
X330947Y556689D01*
X330947Y556754D01*
X330947Y556754D01*
X330947Y556754D01*
X330947Y556892D01*
X330947Y556936D01*
X330946Y556937D01*
X330947Y556938D01*
X330946Y557121D01*
X330946Y557165D01*
X330946Y557166D01*
X330946Y557167D01*
X330946Y557396D01*
X330946Y557440D01*
X330946Y557441D01*
X330946Y557442D01*
X330945Y557625D01*
X330945Y557669D01*
X330945Y557670D01*
X330945Y557671D01*
X330945Y557808D01*
X330945Y557853D01*
X330945Y557854D01*
X330945Y557854D01*
X330945Y558038D01*
X330945Y558082D01*
X330945Y558083D01*
X330945Y558084D01*
X330944Y558221D01*
X330944Y558265D01*
X330944Y558266D01*
X330944Y558267D01*
X330944Y558404D01*
X330944Y558449D01*
X330944Y558450D01*
X330944Y558450D01*
X330944Y558542D01*
X330944Y558586D01*
X330944Y558587D01*
X330944Y558588D01*
X330944Y558725D01*
X330944Y558770D01*
X330943Y558770D01*
X330944Y558771D01*
X330943Y558863D01*
X330943Y558907D01*
X330943Y558908D01*
X330943Y558909D01*
X330943Y559000D01*
X330943Y559045D01*
X330943Y559045D01*
X330943Y559046D01*
X330943Y559138D01*
X330943Y559182D01*
X330943Y559183D01*
X330943Y559184D01*
X330943Y559275D01*
X330943Y559320D01*
X330943Y559320D01*
X330943Y559321D01*
X330943Y559367D01*
X330943Y559411D01*
X330942Y559412D01*
X330943Y559413D01*
X330942Y559505D01*
X330942Y559549D01*
X330942Y559550D01*
X330942Y559550D01*
X330942Y559596D01*
X330942Y559641D01*
X330942Y559641D01*
X330942Y559642D01*
X330942Y559688D01*
X330942Y559732D01*
X330942Y559733D01*
X330942Y559734D01*
X330942Y559826D01*
X330942Y559870D01*
X330942Y559871D01*
X330942Y559871D01*
X330942Y559917D01*
X330942Y559962D01*
X330942Y559962D01*
X330942Y559963D01*
X330942Y560009D01*
X330942Y560053D01*
X330942Y560054D01*
X330942Y560055D01*
X330942Y560101D01*
X330942Y560145D01*
X330942Y560146D01*
X330942Y560146D01*
X330942Y560192D01*
X330942Y560282D01*
X330941Y560283D01*
X330942Y560284D01*
X330941Y560330D01*
X330941Y560374D01*
X330941Y560375D01*
X330941Y560376D01*
X330941Y560421D01*
X330941Y560466D01*
X330941Y560466D01*
X330941Y560467D01*
X330941Y560513D01*
X330941Y560603D01*
X330941Y560604D01*
X330941Y560605D01*
X330941Y560651D01*
X330941Y560695D01*
X330941Y560696D01*
X330941Y560696D01*
X330941Y560742D01*
X330941Y560832D01*
X330941Y560833D01*
X330941Y560834D01*
X330941Y560880D01*
X330941Y561016D01*
X330940Y561017D01*
X330941Y561017D01*
X330940Y561063D01*
X330940Y561199D01*
X330940Y561200D01*
X330940Y561201D01*
X330940Y561246D01*
X330940Y561337D01*
X330940Y561337D01*
X330940Y561337D01*
X330940Y561429D01*
X330940Y561703D01*
X330940Y561704D01*
X330940Y561704D01*
X330939Y561796D01*
X330939Y562345D01*
X330939Y562436D01*
X330939Y562436D01*
X330939Y562437D01*
X330939Y562620D01*
X330939Y562711D01*
X330938Y562711D01*
X330939Y562712D01*
X330938Y562803D01*
X330938Y562895D01*
X330938Y562895D01*
X330938Y562895D01*
X330938Y562987D01*
X330938Y563170D01*
X330938Y563170D01*
X330938Y563170D01*
X330938Y563582D01*
X330937Y564269D01*
X330937Y564407D01*
X330937Y564407D01*
X330937Y564407D01*
X330937Y564544D01*
X330937Y565094D01*
X330937Y565231D01*
X330937Y565231D01*
X330937Y565232D01*
X330937Y565369D01*
X330936Y565919D01*
X330936Y566193D01*
X330936Y566194D01*
X330936Y566194D01*
X330936Y566331D01*
Y566468D01*
X330936Y566468D01*
X330936Y566468D01*
X330936Y566743D01*
Y567292D01*
X330936Y567705D01*
X330936Y568071D01*
X330937Y568254D01*
X330936Y568255D01*
X330937Y568256D01*
Y568300D01*
X330937Y568391D01*
X330936Y568392D01*
X330937Y568393D01*
Y568437D01*
X330937Y568575D01*
X330937Y568576D01*
X330937Y568576D01*
Y568621D01*
X330937Y569354D01*
X330937Y569444D01*
X330937Y569445D01*
X330937Y569446D01*
X330937Y569583D01*
X330937Y569674D01*
X330937Y569674D01*
X330937Y569675D01*
X330937Y569767D01*
X330937Y569857D01*
X330937Y569858D01*
X330937Y569858D01*
X330938Y569994D01*
X330937Y569995D01*
X330938Y569996D01*
X330938Y570132D01*
X330938Y570133D01*
X330938Y570133D01*
X330938Y570270D01*
X330938Y570270D01*
X330938Y570271D01*
X330938Y570361D01*
X330938Y570362D01*
X330938Y570363D01*
X330938Y570499D01*
X330938Y570499D01*
X330938Y570500D01*
X330938Y570590D01*
X330938Y570591D01*
X330938Y570592D01*
X330938Y570682D01*
X330938Y570683D01*
X330938Y570684D01*
X330938Y570774D01*
X330938Y570774D01*
X330938Y570775D01*
X330938Y570865D01*
X330938Y570866D01*
X330938Y570867D01*
X330938Y570957D01*
X330938Y570958D01*
X330938Y570959D01*
X330938Y571049D01*
X330938Y571049D01*
X330938Y571050D01*
X330938Y571140D01*
X330938Y571141D01*
X330938Y571142D01*
X330938Y571232D01*
X330938Y571233D01*
X330938Y571234D01*
X330938Y571278D01*
X330939Y571370D01*
X330938Y571370D01*
X330939Y571371D01*
X330939Y571461D01*
X330939Y571462D01*
X330939Y571463D01*
X330939Y571553D01*
X330939Y571554D01*
X330939Y571554D01*
X330939Y571599D01*
X330939Y571690D01*
X330939Y571691D01*
X330939Y571692D01*
X330939Y571782D01*
X330939Y571783D01*
X330939Y571784D01*
X330939Y571874D01*
X330939Y571875D01*
X330939Y571875D01*
X330939Y571920D01*
X330939Y572011D01*
X330939Y572012D01*
X330939Y572013D01*
X330939Y572103D01*
X330939Y572104D01*
X330939Y572104D01*
X330939Y572195D01*
X330939Y572196D01*
X330939Y572196D01*
X330939Y572241D01*
X330939Y572332D01*
X330939Y572333D01*
X330939Y572334D01*
X330939Y572424D01*
X330939Y572425D01*
X330939Y572425D01*
X330940Y572516D01*
X330939Y572516D01*
X330940Y572517D01*
X330940Y572607D01*
X330939Y572608D01*
X330940Y572609D01*
X330940Y572699D01*
X330940Y572700D01*
X330940Y572700D01*
X330940Y572791D01*
X330940Y572791D01*
X330940Y572792D01*
X330940Y572882D01*
X330940Y572883D01*
X330940Y572884D01*
X330940Y572974D01*
X330940Y572975D01*
X330940Y572976D01*
X330940Y573066D01*
X330940Y573066D01*
X330940Y573067D01*
X330940Y573157D01*
X330940Y573158D01*
X330940Y573159D01*
X330940Y573249D01*
X330940Y573250D01*
X330940Y573251D01*
X330940Y573387D01*
X330940Y573387D01*
X330940Y573388D01*
X330940Y573478D01*
X330940Y573479D01*
X330940Y573480D01*
X330941Y573616D01*
X330940Y573616D01*
X330941Y573617D01*
X330941Y573753D01*
X330941Y573754D01*
X330941Y573755D01*
X330941Y574121D01*
X330941Y574121D01*
X330941Y574121D01*
X330941Y574396D01*
X330941Y574396D01*
X330941Y574397D01*
X330942Y575222D01*
X330942Y575222D01*
X330942Y575222D01*
X330942Y575772D01*
X330942Y575772D01*
X330942Y575772D01*
X330942Y576047D01*
X330942Y576047D01*
X330942Y576047D01*
X330942Y576368D01*
X330942Y576368D01*
X330942Y576368D01*
X330942Y576689D01*
X330942Y576689D01*
X330942Y576689D01*
X330942Y577331D01*
X330942Y577331D01*
X330942Y577332D01*
X330942Y577652D01*
X330942Y577653D01*
X330942Y577653D01*
Y578294D01*
X330942Y578294D01*
X330942Y578295D01*
X330942Y578937D01*
X330942Y578937D01*
X330942Y578937D01*
X330942Y579578D01*
X330942Y579579D01*
X330942Y579579D01*
X330942Y579715D01*
X330942Y579716D01*
X330942Y579717D01*
X330942Y579853D01*
X330942Y579854D01*
X330942Y579854D01*
X330942Y579990D01*
X330942Y579991D01*
X330942Y579992D01*
X330942Y580174D01*
X330942Y580174D01*
X330942Y580175D01*
X330942Y580313D01*
X330942Y580403D01*
X330941Y580404D01*
X330942Y580404D01*
X330941Y580634D01*
X330941Y580724D01*
X330941Y580724D01*
X330941Y580725D01*
X330941Y581688D01*
X330941Y581689D01*
X330941Y581689D01*
X330941Y581735D01*
X330941Y582192D01*
X330940Y582193D01*
X330941Y582194D01*
X330941Y582239D01*
X330940Y582650D01*
X330940Y582651D01*
X330940Y582652D01*
X330940Y582698D01*
X330940Y583613D01*
X330940Y583703D01*
X330939Y583704D01*
X330940Y583705D01*
X330940Y583842D01*
X330940Y583933D01*
X330939Y583933D01*
X330940Y583934D01*
X330939Y584070D01*
X330939Y584071D01*
X330939Y584072D01*
X330939Y584208D01*
X330939Y584208D01*
X330939Y584209D01*
X330939Y584299D01*
X330939Y584300D01*
X330939Y584301D01*
X330939Y584391D01*
X330939Y584392D01*
X330939Y584392D01*
X330939Y584483D01*
X330939Y584483D01*
X330939Y584484D01*
X330939Y584530D01*
Y584620D01*
X330939Y584621D01*
X330939Y584622D01*
X330939Y584668D01*
Y584941D01*
X330939Y584942D01*
X330939Y584943D01*
X330939Y584987D01*
X330939Y585031D01*
X330939Y585032D01*
X330939Y585033D01*
Y585262D01*
X330939Y585352D01*
X330939Y585353D01*
X330939Y585354D01*
X330939Y585444D01*
X330939Y585444D01*
X330939Y585445D01*
Y585536D01*
X330939Y585627D01*
X330939Y585628D01*
X330939Y585629D01*
Y585673D01*
X330939Y585765D01*
X330939Y585765D01*
X330939Y585766D01*
Y585811D01*
X330940Y585994D01*
X330939Y585995D01*
X330940Y585995D01*
Y586040D01*
X330940Y586177D01*
X330940Y586267D01*
X330940Y586268D01*
X330940Y586269D01*
X330940Y586452D01*
X330940Y586542D01*
X330940Y586543D01*
X330940Y586544D01*
X330940Y586680D01*
X330940Y586681D01*
X330940Y586682D01*
X330940Y586818D01*
X330940Y586818D01*
X330940Y586819D01*
X330940Y586909D01*
X330940Y586910D01*
X330940Y586911D01*
X330940Y587001D01*
X330940Y587002D01*
X330940Y587002D01*
X330940Y587093D01*
X330940Y587093D01*
X330940Y587094D01*
X330941Y587184D01*
X330940Y587185D01*
X330941Y587186D01*
X330941Y587230D01*
X330941Y587322D01*
X330940Y587322D01*
X330941Y587323D01*
X330941Y587368D01*
X330941Y587459D01*
X330941Y587460D01*
X330941Y587461D01*
X330941Y587505D01*
X330941Y587597D01*
X330941Y587598D01*
X330941Y587598D01*
X330941Y587643D01*
X330941Y587780D01*
X330941Y587781D01*
X330941Y587782D01*
X330941Y587826D01*
X330941Y588009D01*
X330941Y588010D01*
X330941Y588011D01*
X330941Y588055D01*
X330942Y588284D01*
X330941Y588285D01*
X330942Y588286D01*
X330942Y588330D01*
X330942Y588559D01*
X330942Y588560D01*
X330942Y588561D01*
X330942Y588605D01*
X330942Y588880D01*
X330942Y588881D01*
X330942Y588882D01*
X330942Y588926D01*
X330942Y589201D01*
X330942Y589202D01*
X330942Y589203D01*
X330942Y589247D01*
X330943Y589476D01*
X330943Y589477D01*
X330943Y589478D01*
X330943Y589522D01*
X330943Y589705D01*
X330943Y589706D01*
X330943Y589707D01*
X330943Y589751D01*
X330943Y589935D01*
X330943Y589935D01*
X330943Y589936D01*
X330943Y589980D01*
X330943Y590118D01*
X330943Y590119D01*
X330943Y590119D01*
X330943Y590164D01*
X330943Y590255D01*
X330943Y590256D01*
X330943Y590257D01*
X330943Y590301D01*
X330944Y590393D01*
X330943Y590394D01*
X330944Y590394D01*
X330944Y590439D01*
X330944Y590531D01*
X330944Y590531D01*
X330944Y590532D01*
X330944Y590576D01*
X330944Y590668D01*
X330944Y590669D01*
X330944Y590670D01*
X330944Y590760D01*
X330944Y590760D01*
X330944Y590761D01*
X330944Y590851D01*
X330944Y590852D01*
X330944Y590853D01*
X330944Y590897D01*
X330944Y590989D01*
X330944Y590990D01*
X330944Y590990D01*
X330944Y591310D01*
X330944Y591311D01*
X330944Y591311D01*
X330945Y591861D01*
X330945Y591861D01*
X330945Y591861D01*
X330945Y592136D01*
X330945Y592136D01*
X330945Y592136D01*
X330946Y593099D01*
X330946Y593099D01*
X330946Y593099D01*
X330946Y593374D01*
X330946Y593374D01*
X330946Y593375D01*
X330946Y593557D01*
X330946Y593558D01*
X330946Y593558D01*
X330946Y593741D01*
X330946Y593741D01*
X330946Y593741D01*
X330946Y593924D01*
X330946Y593924D01*
X330946Y593925D01*
X330946Y594108D01*
X330946Y594291D01*
X330946Y594291D01*
X330946Y594291D01*
X330946Y594842D01*
X330946Y594842D01*
X330946Y594842D01*
Y594933D01*
X330946Y595300D01*
X330946Y595300D01*
X330946Y595301D01*
Y595392D01*
X330946Y595575D01*
X330946Y595575D01*
X330946Y595576D01*
X330946Y595758D01*
X330946Y595759D01*
X330946Y595759D01*
X330946Y595942D01*
X330946Y595942D01*
X330946Y595942D01*
X330946Y596217D01*
X330946Y596217D01*
X330946Y596217D01*
X330946Y596492D01*
X330946Y596492D01*
X330946Y596493D01*
Y596859D01*
X330947Y597042D01*
X330946Y597042D01*
X330947Y597043D01*
Y597501D01*
X330946Y597501D01*
X330947Y597502D01*
X330946Y597593D01*
Y598097D01*
X330946Y598098D01*
X330946Y598098D01*
X330946Y598144D01*
Y598418D01*
X330946Y598419D01*
X330946Y598419D01*
X330946Y598465D01*
Y598693D01*
X330946Y598694D01*
X330946Y598694D01*
X330946Y598740D01*
Y598922D01*
X330946Y598923D01*
X330946Y598923D01*
X330946Y598969D01*
Y599105D01*
X330946Y599106D01*
X330946Y599107D01*
X330946Y599153D01*
Y599289D01*
X330946Y599290D01*
X330946Y599290D01*
X330946Y599336D01*
Y599472D01*
X330946Y599473D01*
X330946Y599474D01*
X330946Y599519D01*
Y599655D01*
X330946Y599656D01*
X330946Y599657D01*
X330946Y599703D01*
Y599793D01*
X330946Y599794D01*
X330946Y599795D01*
X330946Y599840D01*
Y599976D01*
X330946Y599977D01*
X330946Y599978D01*
X330946Y600024D01*
Y600114D01*
X330946Y600115D01*
X330946Y600115D01*
X330946Y600161D01*
Y600251D01*
X330946Y600252D01*
X330946Y600253D01*
X330946Y600299D01*
Y600389D01*
X330946Y600390D01*
X330946Y600390D01*
X330946Y600436D01*
Y600526D01*
X330946Y600527D01*
X330946Y600528D01*
X330946Y600574D01*
Y600664D01*
X330946Y600665D01*
X330946Y600665D01*
X330946Y600711D01*
Y600801D01*
X330946Y600802D01*
X330946Y600803D01*
X330946Y600849D01*
Y600939D01*
X330946Y600940D01*
X330946Y600940D01*
X330946Y601031D01*
X330946Y601031D01*
X330946Y601032D01*
X330946Y601078D01*
Y601168D01*
X330946Y601169D01*
X330946Y601170D01*
X330946Y601216D01*
Y601306D01*
X330946Y601306D01*
X330946Y601307D01*
X330946Y601397D01*
X330946Y601398D01*
X330946Y601399D01*
X330946Y601445D01*
Y601535D01*
X330946Y601536D01*
X330946Y601536D01*
X330946Y601582D01*
Y601672D01*
X330946Y601673D01*
X330946Y601674D01*
X330946Y601764D01*
X330946Y601765D01*
X330946Y601766D01*
X330946Y601811D01*
Y601902D01*
X330946Y601902D01*
X330946Y601903D01*
X330946Y601993D01*
X330946Y601994D01*
X330946Y601995D01*
X330946Y602041D01*
Y602131D01*
X330946Y602132D01*
X330946Y602132D01*
X330946Y602223D01*
X330946Y602223D01*
X330946Y602224D01*
X330946Y602270D01*
Y602360D01*
X330946Y602361D01*
X330946Y602361D01*
X330946Y602452D01*
X330946Y602452D01*
X330946Y602453D01*
X330946Y602499D01*
X330945Y607852D01*
X331843Y608750D01*
X346939D01*
X347295Y607480D01*
D02*
G37*
G36*
X360377D02*
X360232Y607262D01*
X359877Y605479D01*
X360232Y603695D01*
X361242Y602182D01*
X362755Y601172D01*
X364539Y600817D01*
X366323Y601172D01*
X367511Y601966D01*
X367663Y601954D01*
X368608Y601586D01*
X368815Y601426D01*
X369082Y600085D01*
X370092Y598573D01*
X371605Y597562D01*
X373388Y597207D01*
X375172Y597562D01*
X376040Y598142D01*
X377036Y598445D01*
X377913Y598125D01*
X378822Y597518D01*
X380606Y597163D01*
X382390Y597518D01*
X382770Y597771D01*
X383034Y597716D01*
X383192Y597632D01*
X383232Y597607D01*
X383273Y597577D01*
X383322Y597536D01*
X383375Y597484D01*
X383398Y597458D01*
X383456Y597382D01*
X383483Y597340D01*
X383535Y597246D01*
X383704Y596706D01*
X383746Y596459D01*
X383742Y596337D01*
X383706Y596183D01*
X383667Y596107D01*
X383628Y596032D01*
X383587Y595955D01*
X383550Y595886D01*
X383508Y595809D01*
X383470Y595741D01*
X383427Y595663D01*
X383389Y595596D01*
X383346Y595520D01*
X383306Y595451D01*
X383263Y595379D01*
X383221Y595309D01*
X383172Y595227D01*
X383153Y595196D01*
X383135Y595167D01*
X383119Y595142D01*
X383105Y595118D01*
X383085Y595087D01*
X383070Y595064D01*
X383055Y595039D01*
X383036Y595009D01*
X383018Y594982D01*
X383018Y594982D01*
X383003Y594957D01*
X382985Y594929D01*
X382967Y594901D01*
X382953Y594880D01*
X382933Y594850D01*
X382916Y594823D01*
X382899Y594797D01*
X382869Y594752D01*
X382859Y594737D01*
X382846Y594718D01*
X382846Y594718D01*
X382833Y594697D01*
X382809Y594662D01*
X382787Y594629D01*
X382774Y594609D01*
X382749Y594573D01*
X382728Y594541D01*
X382714Y594521D01*
X382714Y594521D01*
X382701Y594502D01*
X382676Y594465D01*
X382663Y594448D01*
X382640Y594414D01*
X382615Y594377D01*
X382588Y594339D01*
X382563Y594303D01*
X382563Y594303D01*
X382538Y594268D01*
X382538Y594268D01*
X382525Y594249D01*
X382485Y594193D01*
X382475Y594178D01*
X382474Y594176D01*
X382473Y594176D01*
X382459Y594156D01*
X382434Y594121D01*
X382422Y594104D01*
X382422Y594103D01*
X382421Y594103D01*
X382396Y594067D01*
X382396Y594067D01*
X382395Y594066D01*
X382381Y594046D01*
X382370Y594030D01*
X382370Y594030D01*
X382369Y594029D01*
X382357Y594012D01*
X382343Y593993D01*
X382330Y593974D01*
X382316Y593956D01*
X382316Y593956D01*
X382304Y593939D01*
X382263Y593883D01*
X382263Y593882D01*
X382262Y593881D01*
X382251Y593866D01*
X382244Y593857D01*
X382243Y593854D01*
X382242Y593853D01*
X382230Y593837D01*
X382229Y593835D01*
X382227Y593833D01*
X382223Y593827D01*
X382210Y593810D01*
X382210Y593808D01*
X382208Y593807D01*
X382202Y593798D01*
X382198Y593793D01*
X382197Y593790D01*
X382194Y593787D01*
X382175Y593761D01*
X382175Y593761D01*
X382174Y593760D01*
X382162Y593744D01*
X382162Y593744D01*
X382155Y593734D01*
X382155Y593734D01*
X382148Y593724D01*
X382148Y593724D01*
X382141Y593714D01*
X382141Y593714D01*
X382135Y593707D01*
X382135Y593707D01*
X382128Y593697D01*
X382127Y593696D01*
X382126Y593695D01*
X382119Y593685D01*
X382119Y593685D01*
X382109Y593671D01*
X382107Y593668D01*
X382104Y593665D01*
X382094Y593652D01*
X382094Y593650D01*
X382093Y593649D01*
X382087Y593642D01*
X382080Y593632D01*
X382079Y593630D01*
X382077Y593628D01*
X382073Y593622D01*
X382059Y593603D01*
X382058Y593603D01*
X382058Y593602D01*
X382032Y593566D01*
X382031Y593566D01*
X382031Y593565D01*
X382017Y593547D01*
X382016Y593545D01*
X382015Y593543D01*
X382007Y593533D01*
X381997Y593520D01*
X381996Y593516D01*
X381993Y593513D01*
X381987Y593506D01*
X381983Y593500D01*
X381982Y593498D01*
X381981Y593497D01*
X381975Y593490D01*
X381968Y593480D01*
X381968Y593480D01*
X381954Y593462D01*
X381954Y593461D01*
X381954Y593461D01*
X381946Y593451D01*
X381946Y593451D01*
X381934Y593435D01*
X381932Y593431D01*
X381930Y593429D01*
X381924Y593421D01*
X381905Y593395D01*
X381904Y593393D01*
X381902Y593392D01*
X381885Y593369D01*
X381884Y593367D01*
X381883Y593366D01*
X381868Y593346D01*
X381867Y593344D01*
X381866Y593343D01*
X381849Y593320D01*
X381849Y593320D01*
X381842Y593311D01*
X381842Y593310D01*
X381841Y593310D01*
X381834Y593300D01*
X381833Y593298D01*
X381832Y593297D01*
X381813Y593271D01*
X381813Y593271D01*
X381805Y593261D01*
X381805Y593261D01*
X381805Y593260D01*
X381797Y593251D01*
X381796Y593249D01*
X381795Y593248D01*
X381785Y593235D01*
X381784Y593233D01*
X381783Y593231D01*
X381776Y593222D01*
X381776Y593222D01*
X381769Y593212D01*
X381768Y593212D01*
X381768Y593212D01*
X381756Y593195D01*
X381754Y593192D01*
X381751Y593189D01*
X381741Y593176D01*
X381741Y593176D01*
X381734Y593166D01*
X381733Y593164D01*
X381731Y593162D01*
X381719Y593146D01*
X381718Y593145D01*
X381717Y593144D01*
X381705Y593127D01*
X381704Y593125D01*
X381702Y593123D01*
X381690Y593107D01*
X381690Y593107D01*
X381683Y593097D01*
X381683Y593097D01*
X381675Y593088D01*
X381675Y593088D01*
X381668Y593078D01*
X381668Y593078D01*
X381661Y593068D01*
X381660Y593068D01*
X381653Y593058D01*
X381651Y593055D01*
X381649Y593052D01*
X381639Y593038D01*
X381638Y593038D01*
X381631Y593029D01*
X381631Y593029D01*
X381624Y593019D01*
X381624Y593019D01*
X381617Y593009D01*
X381617Y593009D01*
X381609Y592999D01*
X381609Y592999D01*
X381602Y592990D01*
X381602Y592989D01*
X381596Y592982D01*
X381589Y592972D01*
X381588Y592971D01*
X381587Y592970D01*
X381580Y592960D01*
X381580Y592960D01*
X381572Y592950D01*
X381572Y592950D01*
X381565Y592940D01*
X381565Y592940D01*
X381558Y592931D01*
X381558Y592931D01*
X381550Y592921D01*
X381541Y592901D01*
X381525Y592887D01*
X381504Y592858D01*
X381504Y592858D01*
X381494Y592843D01*
X381493Y592842D01*
X381492Y592841D01*
X381482Y592826D01*
X381482Y592826D01*
X381473Y592814D01*
X381473Y592814D01*
X381463Y592800D01*
X381463Y592800D01*
X381452Y592785D01*
X381452Y592785D01*
X381442Y592771D01*
X381442Y592771D01*
X381431Y592757D01*
X381431Y592755D01*
X381429Y592754D01*
X381419Y592740D01*
X381419Y592740D01*
X381410Y592728D01*
X381410Y592728D01*
X381400Y592713D01*
X381399Y592712D01*
X381398Y592711D01*
X381387Y592696D01*
X381387Y592696D01*
X381379Y592684D01*
X381378Y592682D01*
X381376Y592680D01*
X381368Y592670D01*
X381358Y592655D01*
X381357Y592654D01*
X381356Y592653D01*
X381336Y592625D01*
X381336Y592624D01*
X381335Y592624D01*
X381325Y592609D01*
X381325Y592609D01*
X381314Y592595D01*
X381314Y592594D01*
X381313Y592593D01*
X381304Y592581D01*
X381293Y592566D01*
X381293Y592565D01*
X381292Y592564D01*
X381273Y592537D01*
X381262Y592523D01*
X381262Y592522D01*
X381261Y592521D01*
X381250Y592506D01*
X381250Y592505D01*
X381249Y592504D01*
X381230Y592477D01*
X381229Y592476D01*
X381228Y592475D01*
X381198Y592434D01*
X381197Y592432D01*
X381195Y592430D01*
X381185Y592415D01*
X381185Y592415D01*
X381165Y592388D01*
X381164Y592386D01*
X381162Y592384D01*
X381144Y592359D01*
X381143Y592357D01*
X381141Y592355D01*
X381122Y592328D01*
X381122Y592327D01*
X381121Y592326D01*
X381110Y592311D01*
X381110Y592311D01*
X381100Y592297D01*
X381100Y592297D01*
X381090Y592282D01*
X381089Y592282D01*
X381079Y592268D01*
X381078Y592266D01*
X381077Y592265D01*
X381057Y592237D01*
X381057Y592237D01*
X381057Y592236D01*
X381046Y592222D01*
X381046Y592221D01*
X381045Y592220D01*
X381014Y592176D01*
X381013Y592175D01*
X381012Y592174D01*
X381003Y592162D01*
X380993Y592147D01*
X380992Y592146D01*
X380991Y592145D01*
X380981Y592130D01*
X380980Y592129D01*
X380980Y592128D01*
X380960Y592101D01*
X380960Y592100D01*
X380959Y592099D01*
X380949Y592085D01*
X380948Y592083D01*
X380947Y592082D01*
X380928Y592056D01*
X380927Y592054D01*
X380926Y592053D01*
X380916Y592039D01*
X380915Y592037D01*
X380914Y592036D01*
X380904Y592022D01*
X380904Y592022D01*
X380895Y592010D01*
X380895Y592009D01*
X380894Y592008D01*
X380884Y591993D01*
X380883Y591992D01*
X380882Y591991D01*
X380873Y591978D01*
X380863Y591963D01*
X380862Y591961D01*
X380860Y591960D01*
X380850Y591945D01*
X380850Y591945D01*
X380849Y591945D01*
X380819Y591901D01*
X380818Y591900D01*
X380817Y591898D01*
X380797Y591870D01*
X380796Y591868D01*
X380795Y591867D01*
X380785Y591853D01*
X380784Y591852D01*
X380784Y591851D01*
X380764Y591823D01*
X380764Y591822D01*
X380763Y591822D01*
X380753Y591807D01*
X380753Y591807D01*
X380752Y591806D01*
X380742Y591792D01*
X380742Y591791D01*
X380741Y591790D01*
X380731Y591775D01*
X380730Y591774D01*
X380729Y591773D01*
X380719Y591759D01*
X380719Y591758D01*
X380719Y591758D01*
X380709Y591743D01*
X380700Y591731D01*
X380699Y591729D01*
X380697Y591727D01*
X380687Y591712D01*
X380686Y591711D01*
X380685Y591710D01*
X380667Y591683D01*
X380665Y591681D01*
X380663Y591679D01*
X380653Y591664D01*
X380653Y591664D01*
X380653Y591663D01*
X380633Y591635D01*
X380632Y591633D01*
X380631Y591632D01*
X380611Y591603D01*
X380610Y591600D01*
X380608Y591598D01*
X380601Y591588D01*
X380591Y591573D01*
X380590Y591571D01*
X380588Y591569D01*
X380578Y591554D01*
X380577Y591553D01*
X380576Y591552D01*
X380556Y591522D01*
X380555Y591521D01*
X380555Y591521D01*
X380534Y591491D01*
X380534Y591490D01*
X380533Y591488D01*
X380522Y591474D01*
X380522Y591474D01*
X380513Y591459D01*
X380512Y591459D01*
X380502Y591444D01*
X380501Y591442D01*
X380499Y591440D01*
X380479Y591410D01*
X380479Y591409D01*
X380478Y591408D01*
X380468Y591393D01*
X380467Y591392D01*
X380466Y591391D01*
X380456Y591377D01*
X380456Y591376D01*
X380437Y591348D01*
X380436Y591345D01*
X380433Y591342D01*
X380413Y591313D01*
X380413Y591312D01*
X380412Y591311D01*
X380392Y591282D01*
X380392Y591280D01*
X380390Y591279D01*
X380370Y591249D01*
X380370Y591247D01*
X380368Y591246D01*
X380348Y591216D01*
X380348Y591215D01*
X380347Y591214D01*
X380327Y591184D01*
X380326Y591182D01*
X380325Y591180D01*
X380305Y591151D01*
X380304Y591149D01*
X380303Y591148D01*
X380283Y591118D01*
X380282Y591116D01*
X380281Y591114D01*
X380261Y591084D01*
X380261Y591083D01*
X380260Y591082D01*
X380240Y591052D01*
X380239Y591050D01*
X380237Y591048D01*
X380218Y591018D01*
X380217Y591017D01*
X380216Y591016D01*
X380196Y590986D01*
X380195Y590983D01*
X380193Y590981D01*
X380174Y590951D01*
X380173Y590950D01*
X380172Y590949D01*
X380153Y590919D01*
X380152Y590916D01*
X380149Y590914D01*
X380130Y590884D01*
X380129Y590882D01*
X380129Y590881D01*
X380109Y590851D01*
X380108Y590850D01*
X380107Y590849D01*
X380088Y590819D01*
X380087Y590815D01*
X380084Y590812D01*
X380065Y590782D01*
X380064Y590781D01*
X380064Y590781D01*
X380045Y590751D01*
X380044Y590748D01*
X380042Y590746D01*
X380023Y590716D01*
X380021Y590713D01*
X380019Y590710D01*
X380000Y590680D01*
X379999Y590679D01*
X379998Y590677D01*
X379979Y590647D01*
X379978Y590646D01*
X379977Y590644D01*
X379958Y590614D01*
X379957Y590610D01*
X379954Y590607D01*
X379935Y590577D01*
X379935Y590576D01*
X379934Y590575D01*
X379915Y590545D01*
X379914Y590541D01*
X379911Y590538D01*
X379892Y590508D01*
X379892Y590507D01*
X379891Y590505D01*
X379872Y590475D01*
X379871Y590472D01*
X379869Y590471D01*
X379850Y590440D01*
X379849Y590437D01*
X379847Y590434D01*
X379828Y590404D01*
X379827Y590402D01*
X379826Y590400D01*
X379808Y590370D01*
X379806Y590367D01*
X379804Y590364D01*
X379785Y590333D01*
X379784Y590331D01*
X379782Y590328D01*
X379764Y590298D01*
X379763Y590296D01*
X379762Y590294D01*
X379743Y590264D01*
X379742Y590261D01*
X379740Y590258D01*
X379722Y590228D01*
X379721Y590225D01*
X379720Y590224D01*
X379701Y590193D01*
X379700Y590189D01*
X379697Y590186D01*
X379679Y590155D01*
X379678Y590153D01*
X379676Y590150D01*
X379658Y590120D01*
X379657Y590117D01*
X379655Y590115D01*
X379637Y590084D01*
X379636Y590081D01*
X379634Y590079D01*
X379616Y590048D01*
X379615Y590045D01*
X379613Y590043D01*
X379595Y590012D01*
X379594Y590009D01*
X379592Y590007D01*
X379575Y589976D01*
X379573Y589972D01*
X379571Y589970D01*
X379553Y589939D01*
X379552Y589936D01*
X379550Y589933D01*
X379532Y589902D01*
X379531Y589899D01*
X379529Y589896D01*
X379511Y589865D01*
X379508Y589854D01*
X379501Y589845D01*
X379397Y589658D01*
X379391Y589641D01*
X379380Y589628D01*
X379304Y589486D01*
X379300Y589472D01*
X379290Y589461D01*
X379216Y589318D01*
X379212Y589304D01*
X379202Y589293D01*
X379130Y589150D01*
X379126Y589136D01*
X379117Y589124D01*
X379045Y588980D01*
X379042Y588966D01*
X379033Y588955D01*
X378963Y588810D01*
X378960Y588797D01*
X378952Y588786D01*
X378891Y588657D01*
X378888Y588648D01*
X378883Y588640D01*
X378853Y588575D01*
X378851Y588569D01*
X378848Y588565D01*
X378818Y588500D01*
X378817Y588494D01*
X378814Y588489D01*
X378784Y588424D01*
X378783Y588418D01*
X378779Y588412D01*
X378750Y588347D01*
X378748Y588341D01*
X378745Y588337D01*
X378717Y588272D01*
X378715Y588266D01*
X378712Y588261D01*
X378683Y588195D01*
X378682Y588190D01*
X378679Y588185D01*
X378650Y588119D01*
X378649Y588113D01*
X378646Y588109D01*
X378618Y588043D01*
X378617Y588037D01*
X378614Y588033D01*
X378586Y587967D01*
X378585Y587961D01*
X378582Y587956D01*
X378554Y587890D01*
X378553Y587885D01*
X378550Y587880D01*
X378523Y587814D01*
X378522Y587809D01*
X378519Y587804D01*
X378492Y587738D01*
X378491Y587733D01*
X378488Y587728D01*
X378461Y587662D01*
X378460Y587657D01*
X378457Y587652D01*
X378431Y587585D01*
X378430Y587580D01*
X378427Y587575D01*
X378401Y587509D01*
X378400Y587504D01*
X378397Y587499D01*
X378372Y587433D01*
X378371Y587427D01*
X378368Y587422D01*
X378342Y587356D01*
X378341Y587351D01*
X378339Y587347D01*
X378314Y587281D01*
X378313Y587275D01*
X378310Y587271D01*
X378285Y587204D01*
X378284Y587199D01*
X378281Y587194D01*
X378257Y587127D01*
X378256Y587122D01*
X378253Y587118D01*
X378229Y587051D01*
X378228Y587046D01*
X378225Y587041D01*
X378201Y586974D01*
X378200Y586970D01*
X378198Y586966D01*
X378174Y586898D01*
X378173Y586894D01*
X378171Y586889D01*
X378147Y586822D01*
X378146Y586817D01*
X378144Y586813D01*
X378120Y586746D01*
X378120Y586741D01*
X378117Y586737D01*
X378094Y586670D01*
X378093Y586665D01*
X378091Y586661D01*
X378068Y586594D01*
X378067Y586589D01*
X378065Y586584D01*
X378042Y586516D01*
X378041Y586512D01*
X378040Y586509D01*
X378017Y586441D01*
X378016Y586437D01*
X378014Y586434D01*
X377997Y586383D01*
X377997Y586379D01*
X377995Y586376D01*
X377979Y586325D01*
X377978Y586321D01*
X377976Y586317D01*
X377943Y586215D01*
X377942Y586208D01*
X377938Y586201D01*
X377901Y586082D01*
X377900Y586075D01*
X377896Y586068D01*
X377859Y585949D01*
X377858Y585942D01*
X377855Y585935D01*
X377818Y585816D01*
X377817Y585808D01*
X377814Y585802D01*
X377778Y585682D01*
X377777Y585675D01*
X377774Y585669D01*
X377739Y585549D01*
X377738Y585542D01*
X377735Y585535D01*
X377700Y585415D01*
X377700Y585408D01*
X377696Y585402D01*
X377662Y585282D01*
X377662Y585275D01*
X377659Y585268D01*
X377625Y585148D01*
X377625Y585141D01*
X377621Y585135D01*
X377589Y585014D01*
X377588Y585008D01*
X377585Y585001D01*
X377553Y584881D01*
X377553Y584874D01*
X377550Y584869D01*
X377523Y584766D01*
X377523Y584759D01*
X377520Y584754D01*
X377493Y584650D01*
X377493Y584645D01*
X377491Y584640D01*
X377464Y584536D01*
X377464Y584530D01*
X377462Y584525D01*
X377436Y584421D01*
X377436Y584416D01*
X377433Y584411D01*
X377408Y584307D01*
X377408Y584301D01*
X377406Y584296D01*
X377381Y584192D01*
X377380Y584186D01*
X377378Y584181D01*
X377354Y584077D01*
X377353Y584072D01*
X377351Y584067D01*
X377327Y583963D01*
X377327Y583957D01*
X377325Y583952D01*
X377297Y583830D01*
X377297Y583823D01*
X377294Y583818D01*
X377267Y583696D01*
X377267Y583690D01*
X377265Y583684D01*
X377238Y583562D01*
X377238Y583556D01*
X377236Y583550D01*
X377210Y583428D01*
X377210Y583422D01*
X377207Y583417D01*
X377182Y583294D01*
X377182Y583288D01*
X377180Y583283D01*
X377155Y583161D01*
X377155Y583155D01*
X377153Y583149D01*
X377128Y583027D01*
Y583021D01*
X377126Y583016D01*
X377103Y582893D01*
X377103Y582887D01*
X377100Y582882D01*
X377077Y582759D01*
X377077Y582753D01*
X377075Y582748D01*
X377052Y582626D01*
X377052Y582620D01*
X377050Y582615D01*
X377028Y582492D01*
X377028Y582486D01*
X377026Y582481D01*
X377004Y582358D01*
X377004Y582352D01*
X377002Y582347D01*
X376981Y582224D01*
X376981Y582219D01*
X376979Y582214D01*
X376959Y582091D01*
X376959Y582085D01*
X376957Y582080D01*
X376937Y581957D01*
X376937Y581951D01*
X376935Y581947D01*
X376915Y581823D01*
X376916Y581818D01*
X376914Y581814D01*
X376894Y581690D01*
X376895Y581684D01*
X376893Y581679D01*
X376874Y581556D01*
X376874Y581549D01*
X376872Y581542D01*
X376838Y581312D01*
X376839Y581303D01*
X376836Y581293D01*
X376801Y581046D01*
X376802Y581036D01*
X376798Y581026D01*
X376766Y580779D01*
X376766Y580769D01*
X376763Y580759D01*
X376732Y580512D01*
X376733Y580502D01*
X376730Y580492D01*
X376701Y580244D01*
X376702Y580234D01*
X376699Y580225D01*
X376672Y579977D01*
X376673Y579967D01*
X376670Y579958D01*
X376644Y579709D01*
X376645Y579700D01*
X376642Y579691D01*
X376619Y579442D01*
X376620Y579433D01*
X376617Y579424D01*
X376595Y579175D01*
X376596Y579168D01*
X376594Y579160D01*
X376582Y579018D01*
X376582Y579013D01*
X376581Y579009D01*
X376571Y578884D01*
X376572Y578879D01*
X376571Y578875D01*
X376561Y578750D01*
X376562Y578746D01*
X376561Y578742D01*
X376552Y578617D01*
X376552Y578613D01*
X376551Y578609D01*
X376542Y578484D01*
X376543Y578480D01*
X376542Y578475D01*
X376534Y578351D01*
X376534Y578346D01*
X376533Y578342D01*
X376525Y578217D01*
X376526Y578213D01*
X376525Y578209D01*
X376517Y578084D01*
X376518Y578080D01*
X376517Y578075D01*
X376510Y577951D01*
X376510Y577948D01*
X376510Y577946D01*
X376508Y577910D01*
X376508Y577909D01*
X376507Y577908D01*
X376506Y577873D01*
X376506Y577871D01*
X376505Y577869D01*
X376502Y577798D01*
X376502Y577796D01*
X376502Y577794D01*
X376500Y577758D01*
X376500Y577757D01*
X376500Y577756D01*
X376498Y577721D01*
X376498Y577719D01*
X376498Y577717D01*
X376494Y577646D01*
X376494Y577644D01*
X376494Y577642D01*
X376491Y577571D01*
X376491Y577569D01*
X376490Y577567D01*
X376489Y577531D01*
X376489Y577530D01*
X376489Y577529D01*
X376487Y577494D01*
X376487Y577493D01*
X376487Y577492D01*
X376485Y577456D01*
X376486Y577455D01*
X376485Y577454D01*
X376484Y577419D01*
X376484Y577418D01*
X376484Y577417D01*
X376482Y577381D01*
X376482Y577380D01*
X376482Y577379D01*
X376481Y577344D01*
X376481Y577343D01*
X376481Y577342D01*
X376479Y577306D01*
X376479Y577304D01*
X376479Y577302D01*
X376476Y577231D01*
X376476Y577230D01*
X376476Y577229D01*
X376475Y577193D01*
X376475Y577192D01*
X376474Y577192D01*
X376473Y577156D01*
X376473Y577155D01*
X376473Y577154D01*
X376472Y577118D01*
X376472Y577117D01*
X376472Y577116D01*
X376470Y577081D01*
X376470Y577080D01*
X376470Y577079D01*
X376469Y577043D01*
X376469Y577042D01*
X376469Y577041D01*
X376468Y577006D01*
X376468Y577005D01*
X376468Y577004D01*
X376465Y576932D01*
X376465Y576931D01*
X376465Y576929D01*
X376463Y576857D01*
X376463Y576856D01*
X376463Y576855D01*
X376461Y576820D01*
X376461Y576819D01*
X376461Y576818D01*
X376460Y576782D01*
X376460Y576781D01*
X376460Y576780D01*
X376459Y576745D01*
X376459Y576744D01*
X376459Y576743D01*
X376457Y576671D01*
X376457Y576670D01*
X376457Y576668D01*
X376455Y576596D01*
X376455Y576596D01*
X376454Y576561D01*
X376454Y576559D01*
X376453Y576557D01*
X376451Y576486D01*
X376451Y576485D01*
X376451Y576484D01*
X376450Y576448D01*
X376451Y576447D01*
X376450Y576446D01*
X376448Y576375D01*
X376449Y576374D01*
X376448Y576373D01*
X376447Y576301D01*
X376447Y576300D01*
X376446Y576298D01*
X376444Y576191D01*
X376444Y576189D01*
X376444Y576187D01*
X376443Y576155D01*
X376443Y576153D01*
X376443Y576151D01*
X376441Y576080D01*
X376442Y576078D01*
X376441Y576076D01*
X376441Y576062D01*
X376441Y576044D01*
X376441Y576042D01*
X376441Y576040D01*
X376438Y575933D01*
X376438Y575932D01*
X376438Y575930D01*
X376437Y575898D01*
X376438Y575896D01*
X376437Y575894D01*
X376435Y575787D01*
X376436Y575785D01*
X376435Y575783D01*
X376435Y575751D01*
X376435Y575749D01*
X376435Y575747D01*
X376432Y575623D01*
X376432Y575621D01*
X376432Y575619D01*
X376432Y575587D01*
X376432Y575585D01*
X376432Y575583D01*
X376430Y575516D01*
X376431Y575514D01*
X376430Y575512D01*
X376430Y575476D01*
X376430Y575474D01*
X376429Y575472D01*
X376429Y575458D01*
X376429Y575423D01*
X376429Y575421D01*
X376429Y575419D01*
X376428Y575405D01*
X376428Y575387D01*
X376428Y575385D01*
X376428Y575383D01*
X376428Y575369D01*
X376427Y575351D01*
X376428Y575349D01*
X376427Y575348D01*
X376426Y575223D01*
X376426Y575221D01*
X376426Y575219D01*
X376425Y575205D01*
X376425Y575169D01*
X376425Y575167D01*
X376425Y575165D01*
X376424Y575134D01*
X376424Y575132D01*
X376424Y575130D01*
X376424Y575116D01*
X376424Y575098D01*
X376424Y575096D01*
X376424Y575094D01*
X376423Y575044D01*
X376423Y575042D01*
X376423Y575041D01*
X376420Y574862D01*
X376421Y574860D01*
X376420Y574858D01*
X376420Y574842D01*
X376419Y574809D01*
X376420Y574807D01*
X376419Y574805D01*
X376419Y574788D01*
X376419Y574755D01*
X376419Y574753D01*
X376419Y574751D01*
X376419Y574735D01*
X376418Y574702D01*
X376418Y574700D01*
X376418Y574698D01*
X376418Y574666D01*
X376418Y574664D01*
X376418Y574662D01*
X376417Y574630D01*
X376418Y574628D01*
X376417Y574626D01*
X376417Y574595D01*
X376417Y574593D01*
X376417Y574591D01*
X376416Y574559D01*
X376417Y574557D01*
X376416Y574555D01*
X376416Y574523D01*
X376416Y574521D01*
X376416Y574519D01*
X376415Y574501D01*
X376419Y574482D01*
X376415Y574463D01*
X376418Y572842D01*
X376418Y572817D01*
X376418Y572816D01*
X376418Y572815D01*
X376419Y572542D01*
X376419Y572518D01*
X376419Y572517D01*
X376419Y572515D01*
X376419Y572297D01*
X376419Y572273D01*
X376419Y572271D01*
X376419Y572270D01*
X376419Y572107D01*
X376419Y572082D01*
X376420Y572081D01*
X376419Y572080D01*
X376420Y571971D01*
X376420Y571946D01*
X376420Y571945D01*
X376420Y571943D01*
X376420Y571834D01*
X376420Y571810D01*
X376420Y571808D01*
X376420Y571807D01*
X376420Y571686D01*
X376420Y571685D01*
X376420Y571685D01*
X376420Y571603D01*
X376420Y571564D01*
X376421Y571563D01*
X376420Y571562D01*
X376421Y571480D01*
X376421Y571441D01*
X376421Y571440D01*
X376421Y571440D01*
X376421Y571399D01*
X376421Y571359D01*
X376421Y571359D01*
X376421Y571358D01*
X376421Y571317D01*
X376421Y571278D01*
X376421Y571277D01*
X376421Y571276D01*
X376421Y571235D01*
X376421Y571196D01*
X376421Y571195D01*
X376421Y571194D01*
X376421Y571153D01*
X376421Y571114D01*
X376421Y571114D01*
X376421Y571113D01*
X376421Y571072D01*
X376421Y571033D01*
X376421Y571032D01*
X376421Y571031D01*
X376421Y570990D01*
X376421Y570951D01*
X376422Y570950D01*
X376421Y570949D01*
X376421Y570908D01*
X376422Y570828D01*
X376422Y570828D01*
X376422Y570827D01*
X376422Y570786D01*
X376422Y570706D01*
X376422Y570705D01*
X376422Y570704D01*
X376422Y570663D01*
X376422Y570583D01*
X376422Y570583D01*
X376422Y570582D01*
X376422Y570541D01*
X376422Y570379D01*
X376422Y570378D01*
X376422Y570377D01*
X376422Y570283D01*
X376422Y570230D01*
X376423Y570229D01*
X376422Y570229D01*
X376423Y570011D01*
X376423Y569958D01*
X376423Y569957D01*
X376423Y569956D01*
X376423Y569847D01*
X376423Y569794D01*
X376423Y569794D01*
X376423Y569793D01*
X376423Y569739D01*
X376423Y569685D01*
X376423Y569685D01*
X376423Y569684D01*
X376423Y569630D01*
X376423Y569576D01*
X376423Y569576D01*
X376423Y569575D01*
X376423Y569521D01*
X376423Y569468D01*
X376423Y569467D01*
X376423Y569466D01*
X376423Y569412D01*
X376423Y569250D01*
X376424Y569249D01*
X376423Y569248D01*
X376424Y569194D01*
X376424Y568977D01*
X376424Y568977D01*
X376424Y568977D01*
X376424Y568909D01*
X376424Y568773D01*
X376424Y568773D01*
X376424Y568773D01*
X376424Y568704D01*
X376424Y568093D01*
X376424Y568026D01*
X376425Y568025D01*
X376424Y568024D01*
X376425Y567956D01*
X376425Y567889D01*
X376425Y567889D01*
X376425Y567888D01*
X376425Y567820D01*
X376425Y567562D01*
X376425Y567562D01*
X376425Y567561D01*
X376425Y567493D01*
X376425Y567359D01*
X376425Y567359D01*
X376425Y567358D01*
X376425Y567087D01*
X376425Y567086D01*
X376425Y567086D01*
X376425Y566951D01*
X376425Y566950D01*
X376425Y566950D01*
X376425Y566882D01*
Y566746D01*
X376425Y566746D01*
X376425Y566745D01*
X376425Y566677D01*
Y566406D01*
X376425Y566271D01*
X376425Y566270D01*
X376425Y566270D01*
Y566161D01*
X376425Y566053D01*
X376425Y566053D01*
X376425Y566052D01*
X376425Y565890D01*
X376425Y565889D01*
X376425Y565888D01*
X376425Y565781D01*
X376425Y565780D01*
X376425Y565780D01*
X376425Y565672D01*
X376425Y565671D01*
X376425Y565671D01*
Y565617D01*
X376425Y565508D01*
X376425Y565508D01*
X376425Y565507D01*
Y565454D01*
X376425Y565236D01*
X376425Y565235D01*
X376425Y565235D01*
X376425Y565127D01*
X376424Y564787D01*
X376425Y564786D01*
X376424Y564785D01*
Y564746D01*
X376424Y563888D01*
X376424Y563808D01*
X376424Y563807D01*
X376424Y563807D01*
X376424Y563643D01*
X376424Y563563D01*
X376424Y563562D01*
X376424Y563560D01*
Y563535D01*
X376424Y563372D01*
X376424Y563371D01*
X376424Y563369D01*
Y563344D01*
X376423Y563181D01*
X376424Y563180D01*
X376423Y563179D01*
Y563154D01*
X376423Y562882D01*
X376423Y562880D01*
X376423Y562879D01*
Y562854D01*
X376423Y562201D01*
X376423Y562199D01*
X376423Y562198D01*
X376423Y562176D01*
X376423Y562173D01*
X376423Y562171D01*
X376423Y562149D01*
X376423Y562146D01*
X376423Y562144D01*
X376423Y562121D01*
X376423Y562119D01*
X376423Y562117D01*
X376422Y562094D01*
X376423Y562092D01*
X376422Y562089D01*
X376422Y562067D01*
X376423Y562065D01*
X376422Y562062D01*
X376422Y562040D01*
X376423Y562037D01*
X376422Y562035D01*
X376422Y562012D01*
X376423Y562010D01*
X376422Y562007D01*
X376422Y561985D01*
X376423Y561983D01*
X376422Y561980D01*
X376422Y561958D01*
X376423Y561955D01*
X376422Y561953D01*
X376422Y561931D01*
X376423Y561928D01*
X376422Y561926D01*
X376422Y561903D01*
X376423Y561901D01*
X376422Y561899D01*
X376422Y561876D01*
X376423Y561874D01*
X376422Y561871D01*
X376422Y561849D01*
X376423Y561847D01*
X376422Y561844D01*
X376422Y561808D01*
X376423Y561806D01*
X376422Y561803D01*
X376422Y561781D01*
X376423Y561778D01*
X376422Y561776D01*
X376422Y561754D01*
X376423Y561751D01*
X376422Y561749D01*
X376422Y561726D01*
X376423Y561724D01*
X376422Y561722D01*
X376422Y561699D01*
X376423Y561697D01*
X376422Y561694D01*
X376422Y561672D01*
X376423Y561670D01*
X376422Y561667D01*
X376422Y561645D01*
X376423Y561642D01*
X376422Y561640D01*
X376422Y561618D01*
X376423Y561615D01*
X376422Y561613D01*
X376422Y561590D01*
X376422Y561588D01*
X376422Y561585D01*
X376422Y561563D01*
X376422Y561561D01*
X376422Y561558D01*
X376422Y561536D01*
X376422Y561533D01*
X376422Y561531D01*
X376422Y561509D01*
X376422Y561506D01*
X376422Y561504D01*
X376422Y561468D01*
X376422Y561465D01*
X376422Y561463D01*
X376422Y561441D01*
X376422Y561438D01*
X376422Y561436D01*
X376422Y561413D01*
X376422Y561411D01*
X376422Y561408D01*
X376422Y561386D01*
X376422Y561384D01*
X376422Y561381D01*
X376422Y561359D01*
X376422Y561356D01*
X376422Y561354D01*
X376422Y561332D01*
X376422Y561329D01*
X376422Y561327D01*
X376422Y561304D01*
X376422Y561302D01*
X376422Y561299D01*
X376422Y561277D01*
X376422Y561275D01*
X376422Y561272D01*
X376422Y561236D01*
X376422Y561234D01*
X376422Y561231D01*
X376422Y561209D01*
X376422Y561207D01*
X376422Y561204D01*
X376422Y561182D01*
X376422Y561179D01*
X376422Y561177D01*
X376422Y561155D01*
X376422Y561152D01*
X376422Y561150D01*
X376422Y561127D01*
X376422Y561125D01*
X376422Y561122D01*
X376422Y561100D01*
X376422Y561098D01*
X376422Y561095D01*
X376421Y561073D01*
X376422Y561070D01*
X376421Y561068D01*
X376421Y561046D01*
X376422Y561043D01*
X376421Y561041D01*
X376421Y561005D01*
X376422Y561002D01*
X376421Y561000D01*
X376421Y560978D01*
X376422Y560975D01*
X376421Y560973D01*
X376421Y560950D01*
X376422Y560948D01*
X376421Y560945D01*
X376421Y560923D01*
X376422Y560921D01*
X376421Y560918D01*
X376421Y560896D01*
X376422Y560893D01*
X376421Y560891D01*
X376421Y560869D01*
X376422Y560866D01*
X376421Y560864D01*
Y560850D01*
X376426Y560828D01*
X376422Y560806D01*
X376423Y560706D01*
X376424Y560704D01*
X376423Y560703D01*
X376424Y560682D01*
X376425Y560626D01*
X376425Y560624D01*
X376425Y560622D01*
X376425Y560586D01*
X376426Y560584D01*
X376425Y560582D01*
X376426Y560562D01*
X376426Y560525D01*
X376427Y560524D01*
X376426Y560522D01*
X376427Y560465D01*
X376428Y560463D01*
X376427Y560462D01*
X376431Y560281D01*
X376431Y560279D01*
X376431Y560277D01*
X376431Y560261D01*
X376431Y560241D01*
X376432Y560239D01*
X376431Y560237D01*
X376434Y560097D01*
X376434Y560095D01*
X376434Y560093D01*
X376435Y560073D01*
X376435Y560056D01*
X376435Y560055D01*
X376435Y560053D01*
X376437Y559953D01*
X376437Y559951D01*
X376437Y559949D01*
X376438Y559912D01*
X376438Y559893D01*
X376439Y559891D01*
X376438Y559889D01*
X376439Y559849D01*
X376440Y559847D01*
X376439Y559846D01*
X376440Y559809D01*
X376440Y559807D01*
X376440Y559805D01*
X376442Y559705D01*
X376443Y559703D01*
X376442Y559702D01*
X376445Y559601D01*
X376445Y559600D01*
X376445Y559598D01*
X376447Y559518D01*
X376447Y559516D01*
X376447Y559514D01*
X376450Y559414D01*
X376450Y559412D01*
X376450Y559410D01*
X376451Y559370D01*
X376451Y559369D01*
X376451Y559367D01*
X376452Y559330D01*
X376452Y559328D01*
X376452Y559327D01*
X376454Y559267D01*
X376454Y559265D01*
X376454Y559263D01*
X376456Y559203D01*
X376456Y559201D01*
X376456Y559200D01*
X376457Y559163D01*
X376458Y559160D01*
X376457Y559156D01*
X376459Y559119D01*
X376459Y559118D01*
X376459Y559116D01*
X376460Y559076D01*
X376460Y559076D01*
X376461Y559056D01*
X376461Y559054D01*
X376461Y559052D01*
X376463Y558992D01*
X376463Y558991D01*
X376463Y558989D01*
X376464Y558952D01*
X376465Y558949D01*
X376464Y558945D01*
X376465Y558925D01*
X376465Y558925D01*
X376466Y558908D01*
X376466Y558907D01*
X376466Y558905D01*
X376467Y558885D01*
X376467Y558883D01*
X376467Y558882D01*
X376467Y558865D01*
X376468Y558845D01*
X376469Y558842D01*
X376468Y558838D01*
X376470Y558801D01*
X376470Y558800D01*
X376470Y558798D01*
X376472Y558738D01*
X376473Y558736D01*
X376472Y558734D01*
X376473Y558714D01*
X376474Y558713D01*
X376473Y558711D01*
X376475Y558674D01*
X376475Y558673D01*
X376475Y558671D01*
X376476Y558651D01*
X376476Y558649D01*
X376476Y558647D01*
X376478Y558607D01*
X376478Y558606D01*
X376478Y558605D01*
X376480Y558565D01*
X376480Y558565D01*
X376480Y558564D01*
X376481Y558524D01*
X376482Y558521D01*
X376482Y558519D01*
X376483Y558479D01*
X376484Y558478D01*
X376483Y558477D01*
X376485Y558437D01*
X376486Y558436D01*
X376485Y558435D01*
X376487Y558395D01*
X376488Y558392D01*
X376488Y558390D01*
X376490Y558350D01*
X376490Y558349D01*
X376490Y558348D01*
X376492Y558308D01*
X376492Y558306D01*
X376492Y558304D01*
X376494Y558264D01*
X376494Y558263D01*
X376494Y558261D01*
X376496Y558221D01*
X376497Y558219D01*
X376496Y558218D01*
X376499Y558177D01*
X376499Y558176D01*
X376499Y558174D01*
X376501Y558134D01*
X376501Y558132D01*
X376501Y558131D01*
X376503Y558091D01*
X376504Y558090D01*
X376503Y558089D01*
X376506Y558049D01*
X376507Y558046D01*
X376506Y558044D01*
X376508Y558004D01*
X376509Y558002D01*
X376509Y558000D01*
X376511Y557960D01*
X376511Y557958D01*
X376511Y557957D01*
X376514Y557917D01*
X376514Y557916D01*
X376514Y557915D01*
X376516Y557875D01*
X376517Y557872D01*
X376517Y557870D01*
X376519Y557830D01*
X376520Y557828D01*
X376520Y557826D01*
X376523Y557766D01*
X376524Y557763D01*
X376524Y557760D01*
X376528Y557700D01*
X376529Y557697D01*
X376528Y557694D01*
X376532Y557634D01*
X376533Y557631D01*
X376533Y557629D01*
X376537Y557569D01*
X376538Y557566D01*
X376538Y557563D01*
X376542Y557503D01*
X376543Y557500D01*
X376542Y557497D01*
X376547Y557437D01*
X376548Y557435D01*
X376547Y557433D01*
X376552Y557373D01*
X376553Y557369D01*
X376553Y557365D01*
X376558Y557305D01*
X376558Y557302D01*
X376558Y557300D01*
X376563Y557240D01*
X376564Y557237D01*
X376563Y557233D01*
X376568Y557173D01*
X376569Y557170D01*
X376569Y557168D01*
X376574Y557108D01*
X376575Y557105D01*
X376575Y557102D01*
X376580Y557042D01*
X376581Y557039D01*
X376581Y557035D01*
X376586Y556975D01*
X376587Y556972D01*
X376587Y556969D01*
X376592Y556908D01*
X376593Y556906D01*
X376593Y556903D01*
X376599Y556843D01*
X376661Y556635D01*
X376671Y556513D01*
X376656Y556310D01*
X376706Y555911D01*
X376713Y555891D01*
X376712Y555869D01*
X376768Y555471D01*
X376775Y555451D01*
X376774Y555430D01*
X376836Y555033D01*
X376844Y555013D01*
X376843Y554991D01*
X376912Y554595D01*
X376919Y554576D01*
X376919Y554555D01*
X376990Y554179D01*
X376998Y554160D01*
X376998Y554139D01*
X377075Y553765D01*
X377083Y553746D01*
X377084Y553725D01*
X377166Y553352D01*
X377175Y553333D01*
X377176Y553311D01*
X377264Y552940D01*
X377272Y552923D01*
X377273Y552904D01*
X377342Y552632D01*
X377348Y552620D01*
X377349Y552606D01*
X377395Y552431D01*
X377399Y552422D01*
X377400Y552412D01*
X377448Y552237D01*
X377452Y552228D01*
X377453Y552217D01*
X377502Y552043D01*
X377506Y552034D01*
X377507Y552023D01*
X377557Y551850D01*
X377563Y551840D01*
X377564Y551829D01*
X377615Y551656D01*
X377620Y551646D01*
X377621Y551636D01*
X377674Y551463D01*
X377679Y551453D01*
X377680Y551442D01*
X377735Y551269D01*
X377740Y551260D01*
X377741Y551249D01*
X377797Y551077D01*
X377804Y551058D01*
X377804Y551055D01*
X377861Y550884D01*
X377868Y550865D01*
X377868Y550863D01*
X377927Y550692D01*
X378298Y549585D01*
X378772Y548585D01*
X378916Y548275D01*
X378928Y548258D01*
X378934Y548238D01*
X379083Y547930D01*
X379095Y547913D01*
X379101Y547893D01*
X379255Y547588D01*
X379267Y547573D01*
X379272Y547554D01*
X379412Y547287D01*
X379421Y547276D01*
X379425Y547262D01*
X379501Y547120D01*
X379507Y547113D01*
X379510Y547104D01*
X379587Y546962D01*
X379594Y546954D01*
X379597Y546945D01*
X379675Y546804D01*
X379681Y546796D01*
X379684Y546787D01*
X379763Y546647D01*
X379770Y546639D01*
X379773Y546629D01*
X379854Y546490D01*
X379860Y546482D01*
X379864Y546472D01*
X379945Y546333D01*
X379952Y546326D01*
X379955Y546316D01*
X380037Y546178D01*
X380045Y546170D01*
X380048Y546160D01*
X380132Y546022D01*
X380139Y546014D01*
X380143Y546004D01*
X380227Y545867D01*
X380234Y545859D01*
X380238Y545849D01*
X380324Y545713D01*
X380331Y545705D01*
X380335Y545695D01*
X380422Y545560D01*
X380429Y545552D01*
X380433Y545542D01*
X380521Y545407D01*
X380529Y545399D01*
X380533Y545388D01*
X380622Y545255D01*
X380630Y545247D01*
X380634Y545236D01*
X380724Y545103D01*
X380731Y545096D01*
X380734Y545088D01*
X380791Y545005D01*
X380795Y545001D01*
X380797Y544996D01*
X380832Y544946D01*
X380835Y544943D01*
X380836Y544939D01*
X380871Y544890D01*
X380874Y544887D01*
X380876Y544882D01*
X380911Y544833D01*
X380914Y544830D01*
X380915Y544826D01*
X380950Y544777D01*
X380953Y544774D01*
X380955Y544770D01*
X380990Y544721D01*
X380993Y544717D01*
X380996Y544713D01*
X381031Y544664D01*
X381034Y544661D01*
X381035Y544657D01*
X381071Y544608D01*
X381074Y544605D01*
X381076Y544600D01*
X381112Y544552D01*
X381115Y544549D01*
X381117Y544545D01*
X381152Y544496D01*
X381156Y544493D01*
X381158Y544488D01*
X381194Y544440D01*
X381198Y544436D01*
X381200Y544431D01*
X381249Y544366D01*
X381253Y544362D01*
X381256Y544356D01*
X381304Y544292D01*
X381309Y544288D01*
X381311Y544282D01*
X381360Y544218D01*
X381365Y544213D01*
X381368Y544207D01*
X381417Y544144D01*
X381422Y544139D01*
X381426Y544132D01*
X381475Y544069D01*
X381479Y544065D01*
X381482Y544059D01*
X381531Y543996D01*
X381537Y543991D01*
X381540Y543985D01*
X381590Y543922D01*
X381598Y543915D01*
X381603Y543906D01*
X381703Y543781D01*
X381711Y543774D01*
X381715Y543766D01*
X381753Y543719D01*
X381757Y543716D01*
X381759Y543711D01*
X381798Y543665D01*
X381802Y543661D01*
X381804Y543657D01*
X381843Y543610D01*
X381846Y543608D01*
X381848Y543604D01*
X381887Y543557D01*
X381891Y543554D01*
X381893Y543549D01*
X381932Y543503D01*
X381936Y543500D01*
X381938Y543496D01*
X381977Y543450D01*
X381981Y543447D01*
X381983Y543443D01*
X382022Y543397D01*
X382026Y543394D01*
X382028Y543390D01*
X382067Y543344D01*
X382071Y543341D01*
X382074Y543337D01*
X382113Y543291D01*
X382117Y543288D01*
X382119Y543284D01*
X382159Y543239D01*
X382162Y543236D01*
X382164Y543232D01*
X382204Y543187D01*
X382208Y543184D01*
X382210Y543180D01*
X382250Y543135D01*
X382253Y543132D01*
X382256Y543129D01*
X382295Y543083D01*
X382299Y543081D01*
X382301Y543077D01*
X382341Y543032D01*
X382345Y543029D01*
X382347Y543026D01*
X382388Y542981D01*
X382391Y542978D01*
X382393Y542974D01*
X382434Y542929D01*
X382437Y542927D01*
X382439Y542924D01*
X382480Y542879D01*
X382483Y542877D01*
X382485Y542873D01*
X382526Y542829D01*
X382529Y542826D01*
X382532Y542822D01*
X382573Y542778D01*
X382575Y542776D01*
X382577Y542773D01*
X382604Y542744D01*
X382606Y542742D01*
X382607Y542740D01*
X382635Y542711D01*
X382637Y542709D01*
X382639Y542707D01*
X382666Y542677D01*
X382668Y542676D01*
X382669Y542674D01*
X382697Y542644D01*
X382699Y542643D01*
X382700Y542641D01*
X382728Y542612D01*
X382730Y542610D01*
X382731Y542608D01*
X382758Y542579D01*
X382761Y542577D01*
X382762Y542575D01*
X382790Y542546D01*
X382792Y542544D01*
X382793Y542543D01*
X382820Y542514D01*
X382822Y542513D01*
X382823Y542511D01*
X382850Y542482D01*
X382853Y542480D01*
X382855Y542477D01*
X382883Y542448D01*
X382884Y542447D01*
X382885Y542446D01*
X382899Y542432D01*
X382900Y542431D01*
X382900Y542430D01*
X382928Y542401D01*
X382929Y542400D01*
X382930Y542399D01*
X382944Y542385D01*
X382946Y542383D01*
X382947Y542381D01*
X382961Y542367D01*
X382962Y542366D01*
X382963Y542365D01*
X382991Y542337D01*
X382992Y542336D01*
X382992Y542335D01*
X383006Y542320D01*
X383007Y542320D01*
X383008Y542319D01*
X383022Y542304D01*
X383022Y542304D01*
X383036Y542290D01*
X383039Y542288D01*
X383041Y542285D01*
X383067Y542258D01*
X383068Y542257D01*
X383069Y542256D01*
X383083Y542242D01*
X383084Y542241D01*
X383085Y542240D01*
X383099Y542225D01*
X383100Y542225D01*
X383100Y542224D01*
X383129Y542195D01*
X383130Y542194D01*
X383130Y542193D01*
X383144Y542179D01*
X383146Y542178D01*
X383148Y542176D01*
X383176Y542147D01*
X383177Y542146D01*
X383177Y542145D01*
X383206Y542117D01*
X383208Y542116D01*
X383209Y542113D01*
X383222Y542101D01*
X383236Y542087D01*
X383237Y542086D01*
X383237Y542085D01*
X383251Y542071D01*
X383254Y542069D01*
X383255Y542067D01*
X383283Y542039D01*
X383284Y542038D01*
X383285Y542037D01*
X383313Y542009D01*
X383314Y542008D01*
X383315Y542007D01*
X383329Y541993D01*
X383330Y541992D01*
X383331Y541991D01*
X383345Y541977D01*
X383346Y541976D01*
X383347Y541975D01*
X383360Y541962D01*
X383373Y541948D01*
X383374Y541948D01*
X383375Y541947D01*
X383389Y541933D01*
X383391Y541931D01*
X383393Y541929D01*
X383421Y541901D01*
X383421Y541901D01*
X383435Y541887D01*
X383436Y541886D01*
X383437Y541885D01*
X383451Y541871D01*
X383451Y541871D01*
X383466Y541857D01*
X383468Y541855D01*
X383469Y541853D01*
X383481Y541841D01*
X383496Y541827D01*
X383498Y541825D01*
X383499Y541824D01*
X383526Y541797D01*
X383527Y541796D01*
X383528Y541795D01*
X383542Y541781D01*
X383543Y541781D01*
X383544Y541779D01*
X383558Y541765D01*
X383559Y541765D01*
X383560Y541764D01*
X383587Y541737D01*
X383589Y541736D01*
X383590Y541734D01*
X383619Y541706D01*
X383619Y541706D01*
X383633Y541692D01*
X383634Y541691D01*
X383635Y541690D01*
X383649Y541676D01*
X383649Y541676D01*
X383663Y541662D01*
X383663Y541662D01*
X383678Y541648D01*
X383680Y541646D01*
X383681Y541644D01*
X383708Y541618D01*
X383710Y541617D01*
X383712Y541615D01*
X383739Y541588D01*
X383740Y541588D01*
X383740Y541587D01*
X383769Y541558D01*
X383770Y541558D01*
X383771Y541557D01*
X383814Y541515D01*
X383815Y541514D01*
X383816Y541513D01*
X383859Y541471D01*
X383861Y541470D01*
X383862Y541468D01*
X383877Y541454D01*
X383877Y541454D01*
X383904Y541428D01*
X383905Y541427D01*
X383905Y541426D01*
X383934Y541398D01*
X383935Y541398D01*
X383949Y541384D01*
X383950Y541383D01*
X383951Y541382D01*
X383994Y541340D01*
X383995Y541340D01*
X383996Y541339D01*
X384010Y541325D01*
X384010Y541325D01*
X384023Y541313D01*
X384037Y541299D01*
X384039Y541297D01*
X384041Y541295D01*
X384055Y541281D01*
X384055Y541281D01*
X384070Y541268D01*
X384070Y541268D01*
X384097Y541241D01*
X384099Y541240D01*
X384100Y541238D01*
X384128Y541212D01*
X384128Y541211D01*
X384129Y541210D01*
X384171Y541170D01*
X384172Y541169D01*
X384173Y541168D01*
X384202Y541140D01*
X384203Y541140D01*
X384203Y541139D01*
X384260Y541085D01*
X384262Y541083D01*
X384263Y541082D01*
X384274Y541071D01*
X384288Y541057D01*
X384290Y541056D01*
X384290Y541055D01*
X384305Y541041D01*
X384306Y541041D01*
X384306Y541040D01*
X384348Y541000D01*
X384349Y540999D01*
X384350Y540998D01*
X384377Y540972D01*
X384378Y540971D01*
X384379Y540970D01*
X384421Y540930D01*
X384422Y540930D01*
X384422Y540928D01*
X384466Y540887D01*
X384523Y540851D01*
X384564Y540798D01*
X384735Y540649D01*
X384736Y540649D01*
X384907Y540500D01*
X384907Y540500D01*
X384907Y540500D01*
X385164Y540277D01*
X385165Y540277D01*
X385165Y540277D01*
X385336Y540129D01*
X385336Y540128D01*
X385337Y540128D01*
X385422Y540054D01*
X385508Y539980D01*
X385508Y539980D01*
X385508Y539979D01*
X385594Y539905D01*
X385594Y539905D01*
X385680Y539831D01*
X385680Y539831D01*
X385680Y539831D01*
X385765Y539757D01*
X385766Y539757D01*
X385851Y539682D01*
X385852Y539682D01*
X385852Y539682D01*
X385938Y539608D01*
X385938Y539608D01*
X385938Y539607D01*
X386110Y539459D01*
X386110Y539459D01*
X386110Y539459D01*
X386196Y539384D01*
X386196Y539384D01*
X386196Y539384D01*
X386282Y539310D01*
X386282Y539310D01*
X386368Y539236D01*
X386368Y539235D01*
X386368Y539235D01*
X386454Y539161D01*
X386454Y539161D01*
X386540Y539087D01*
X386540Y539087D01*
X386540Y539086D01*
X386798Y538864D01*
X386798Y538864D01*
X386799Y538863D01*
X386884Y538789D01*
X386885Y538789D01*
X386885Y538789D01*
X387057Y538641D01*
X387057Y538640D01*
X387057Y538640D01*
X387143Y538566D01*
X387143Y538566D01*
X387144Y538566D01*
X387229Y538492D01*
X387230Y538492D01*
X387230Y538491D01*
X387402Y538343D01*
X387402Y538343D01*
X387402Y538342D01*
X387488Y538268D01*
X387489Y538268D01*
X387489Y538268D01*
X387574Y538194D01*
X387660Y538120D01*
X387661Y538120D01*
X387661Y538119D01*
X387747Y538045D01*
X387747Y538045D01*
X387833Y537971D01*
X387834Y537971D01*
X387834Y537971D01*
X387920Y537897D01*
X387920Y537897D01*
X387920Y537897D01*
X388006Y537823D01*
X388006Y537823D01*
X388006Y537822D01*
X388178Y537674D01*
X388179Y537674D01*
X388179Y537674D01*
X388265Y537600D01*
X388265Y537600D01*
X388265Y537600D01*
X388351Y537526D01*
X388352Y537526D01*
X388352Y537525D01*
X388524Y537378D01*
X388524Y537378D01*
X388524Y537377D01*
X388697Y537229D01*
X388697Y537229D01*
X388697Y537229D01*
X388783Y537155D01*
X388783Y537155D01*
X388783Y537155D01*
X388870Y537081D01*
X388870Y537081D01*
X388956Y537007D01*
X388956Y537007D01*
X388956Y537007D01*
X389042Y536933D01*
X389042Y536933D01*
X389043Y536933D01*
X389215Y536785D01*
X389215Y536785D01*
X389215Y536785D01*
X389301Y536711D01*
X389301Y536711D01*
X389302Y536711D01*
X389474Y536563D01*
X389474Y536563D01*
X389474Y536563D01*
X389647Y536415D01*
X389647Y536415D01*
X389647Y536415D01*
X389819Y536267D01*
X389820Y536267D01*
X389820Y536267D01*
X389906Y536193D01*
X389906Y536193D01*
X389992Y536119D01*
X389993Y536119D01*
X389993Y536119D01*
X390510Y535676D01*
X390511Y535676D01*
X390511Y535675D01*
X391029Y535233D01*
X391029Y535233D01*
X391030Y535232D01*
X391548Y534790D01*
X391548Y534790D01*
X391548Y534789D01*
X391980Y534421D01*
X391981Y534421D01*
X391981Y534420D01*
X392413Y534052D01*
X392413Y534052D01*
X392413Y534052D01*
X392845Y533684D01*
X392846Y533684D01*
X392846Y533683D01*
X393278Y533315D01*
X393279Y533315D01*
X393279Y533315D01*
X393711Y532947D01*
X393712Y532947D01*
X393712Y532946D01*
X394144Y532579D01*
X394145Y532579D01*
X394145Y532578D01*
X394577Y532211D01*
X394578Y532211D01*
X394578Y532210D01*
X395011Y531843D01*
X395011Y531843D01*
X395011Y531842D01*
X395444Y531475D01*
X395444Y531475D01*
X395445Y531475D01*
X395618Y531328D01*
X395618Y531328D01*
X395618Y531328D01*
X395791Y531181D01*
X395791Y531181D01*
X395792Y531181D01*
X396138Y530887D01*
X396138Y530887D01*
X396138Y530887D01*
X396485Y530594D01*
X396485Y530593D01*
X396485Y530593D01*
X396659Y530447D01*
X396659Y530447D01*
X397005Y530153D01*
X397006Y530153D01*
X397006Y530153D01*
X397265Y529933D01*
X397266Y529933D01*
X397266Y529933D01*
X397353Y529859D01*
X397353Y529859D01*
X397439Y529786D01*
X397439Y529786D01*
X397439Y529786D01*
X397699Y529566D01*
X397700Y529566D01*
X397700Y529566D01*
X397787Y529492D01*
X397787Y529492D01*
X397873Y529419D01*
X397873Y529419D01*
X397873Y529419D01*
X398133Y529199D01*
X398134Y529199D01*
X398134Y529199D01*
X398307Y529053D01*
X398307Y529053D01*
X398307Y529053D01*
X398394Y528979D01*
X398394Y528979D01*
X398394Y528979D01*
X398567Y528833D01*
X398567Y528833D01*
X398568Y528833D01*
X398654Y528759D01*
X398654Y528759D01*
X398655Y528759D01*
X398741Y528686D01*
X398741Y528686D01*
X398828Y528613D01*
X398828Y528613D01*
X398828Y528613D01*
X399088Y528393D01*
X399088Y528393D01*
X399088Y528393D01*
X399349Y528173D01*
X399349Y528173D01*
X399435Y528100D01*
X399436Y528100D01*
X399436Y528100D01*
X399609Y527953D01*
X399609Y527953D01*
X399609Y527953D01*
X399869Y527734D01*
X399870Y527734D01*
X399870Y527733D01*
X399956Y527661D01*
X399956Y527661D01*
X400043Y527588D01*
X400043Y527587D01*
X400044Y527587D01*
X400130Y527514D01*
X400130Y527514D01*
X400217Y527441D01*
X400217Y527441D01*
X400304Y527368D01*
X400304Y527368D01*
X400391Y527294D01*
X400391Y527294D01*
X400477Y527221D01*
X400478Y527221D01*
X400478Y527221D01*
X400651Y527075D01*
X400651Y527075D01*
X400651Y527075D01*
X400738Y527001D01*
X400738Y527001D01*
X400738Y527001D01*
X401606Y526270D01*
X401607Y526270D01*
X401607Y526269D01*
X402041Y525904D01*
X402041Y525904D01*
X402041Y525904D01*
X402475Y525538D01*
X402476Y525538D01*
X402476Y525538D01*
X402910Y525173D01*
X402910Y525173D01*
X402910Y525172D01*
X403431Y524734D01*
X403432Y524734D01*
X403432Y524734D01*
X403953Y524295D01*
X403953Y524295D01*
X403953Y524295D01*
X404475Y523857D01*
X404475Y523857D01*
X404475Y523857D01*
X404996Y523419D01*
X404997Y523418D01*
X404997Y523418D01*
X405518Y522980D01*
X405518Y522980D01*
X405519Y522980D01*
X406040Y522542D01*
X406040Y522542D01*
X406041Y522542D01*
X406475Y522177D01*
X406476Y522177D01*
X406476Y522177D01*
X406562Y522104D01*
X406562Y522104D01*
X406649Y522031D01*
X406650Y522031D01*
X406650Y522031D01*
X406824Y521885D01*
X406824Y521885D01*
X406911Y521812D01*
X406911Y521812D01*
X406911Y521812D01*
X406997Y521739D01*
X407084Y521666D01*
X407085Y521666D01*
X407085Y521666D01*
X407172Y521593D01*
X407172Y521593D01*
X407172Y521593D01*
X407259Y521520D01*
X407259Y521520D01*
X407346Y521447D01*
X407346Y521447D01*
X407433Y521374D01*
X407433Y521374D01*
X407433Y521374D01*
X407606Y521228D01*
X407607Y521228D01*
X407693Y521156D01*
X407694Y521155D01*
X407694Y521155D01*
X407781Y521082D01*
X407868Y521009D01*
X407868Y521009D01*
X407868Y521009D01*
X407955Y520936D01*
X408042Y520863D01*
X408129Y520791D01*
X408129Y520790D01*
X408216Y520718D01*
X408216Y520718D01*
X408216Y520717D01*
X408303Y520645D01*
X408303Y520645D01*
X408390Y520572D01*
X408390Y520572D01*
X408390Y520572D01*
X408825Y520207D01*
X408825Y520207D01*
X408826Y520207D01*
X408999Y520061D01*
X408999Y520061D01*
X409000Y520061D01*
X409173Y519916D01*
X409174Y519916D01*
X409174Y519915D01*
X409261Y519842D01*
X409261Y519842D01*
X409435Y519697D01*
X409435Y519697D01*
X409435Y519697D01*
X409522Y519624D01*
X409522Y519624D01*
X409609Y519551D01*
X409609Y519551D01*
X409609Y519551D01*
X410044Y519187D01*
X410044Y519187D01*
X410045Y519186D01*
X410131Y519114D01*
X410131Y519114D01*
X410305Y518968D01*
X410306Y518968D01*
X410306Y518968D01*
X410392Y518895D01*
X410392Y518895D01*
X410479Y518822D01*
X410480Y518822D01*
X410480Y518822D01*
X410566Y518750D01*
X410566Y518750D01*
X410653Y518677D01*
X410654Y518676D01*
X410654Y518676D01*
X410740Y518604D01*
X410741Y518604D01*
X410827Y518531D01*
X410828Y518531D01*
X410828Y518531D01*
X411002Y518386D01*
X411002Y518385D01*
X411089Y518313D01*
X411089Y518312D01*
X411089Y518312D01*
X412047Y517511D01*
X412047Y517511D01*
X412047Y517511D01*
X412134Y517438D01*
X412308Y517293D01*
X412308Y517292D01*
X412308Y517292D01*
X412482Y517147D01*
X412482Y517147D01*
X412483Y517146D01*
X412570Y517074D01*
X412656Y517001D01*
X412657Y517001D01*
X412657Y517001D01*
X412744Y516928D01*
X412830Y516856D01*
X412831Y516856D01*
X412831Y516855D01*
X413179Y516564D01*
X413179Y516564D01*
X413179Y516564D01*
X413527Y516273D01*
X413527Y516273D01*
X413527Y516273D01*
X413876Y515982D01*
X413876Y515981D01*
X413876Y515981D01*
X414224Y515690D01*
X414224Y515690D01*
X414572Y515399D01*
X414573Y515399D01*
X414747Y515253D01*
X414747Y515253D01*
X414747Y515253D01*
X415095Y514962D01*
X415095Y514962D01*
X415095Y514962D01*
X415618Y514525D01*
X415618Y514525D01*
X415618Y514525D01*
X415792Y514380D01*
X415792Y514380D01*
X415967Y514234D01*
X415967Y514234D01*
X416141Y514089D01*
X416141Y514089D01*
X416141Y514089D01*
X416315Y513943D01*
X416489Y513798D01*
X416489Y513798D01*
X416490Y513797D01*
X416838Y513507D01*
X416838Y513507D01*
X416838Y513506D01*
X417012Y513361D01*
X417013Y513361D01*
X417535Y512924D01*
X417535Y512924D01*
X417536Y512924D01*
X417884Y512633D01*
X417884Y512633D01*
X417884Y512633D01*
X418407Y512197D01*
X418407Y512197D01*
X418407Y512197D01*
X418756Y511906D01*
X418756Y511906D01*
X418756Y511906D01*
X419105Y511615D01*
X419105Y511615D01*
X419105Y511615D01*
X419279Y511469D01*
X419453Y511324D01*
X419453Y511324D01*
X419628Y511179D01*
X419628Y511179D01*
X419628Y511179D01*
X419802Y511033D01*
X419802Y511033D01*
X419802Y511033D01*
X420151Y510743D01*
X420151Y510742D01*
X420151Y510742D01*
X421023Y510016D01*
X421023Y510015D01*
X421023Y510015D01*
X421284Y509798D01*
X421285Y509798D01*
X421285Y509797D01*
X421459Y509652D01*
X421459Y509652D01*
X421633Y509507D01*
X421633Y509507D01*
X421634Y509506D01*
X421721Y509434D01*
X421721Y509434D01*
X421895Y509289D01*
X421895Y509289D01*
X421982Y509216D01*
X421982Y509216D01*
X421982Y509216D01*
X422157Y509071D01*
X422243Y508998D01*
X422244Y508998D01*
X422244Y508998D01*
X422593Y508707D01*
X422593Y508707D01*
X422680Y508635D01*
X422680Y508635D01*
X422680Y508635D01*
X422767Y508562D01*
X422767Y508562D01*
X422768Y508562D01*
X423203Y508199D01*
X423203Y508199D01*
X423204Y508199D01*
X423465Y507981D01*
X423465Y507981D01*
X423465Y507980D01*
X423553Y507908D01*
X423639Y507836D01*
X423639Y507836D01*
X423640Y507835D01*
X423814Y507691D01*
X423814Y507690D01*
X423814Y507690D01*
X423901Y507617D01*
X423901Y507617D01*
X424162Y507400D01*
X424163Y507400D01*
X424163Y507399D01*
X424250Y507327D01*
X424250Y507327D01*
X424424Y507182D01*
X424424Y507182D01*
X424425Y507182D01*
X424512Y507109D01*
X424512Y507109D01*
X424686Y506964D01*
X424686Y506964D01*
X424686Y506964D01*
X424773Y506891D01*
X424774Y506891D01*
X424860Y506819D01*
X424861Y506819D01*
X424861Y506818D01*
X424948Y506746D01*
X425034Y506674D01*
X425035Y506674D01*
X425035Y506673D01*
X425122Y506601D01*
X425122Y506601D01*
X425122Y506600D01*
X425210Y506528D01*
X425210Y506528D01*
X425297Y506455D01*
X425297Y506455D01*
X425471Y506310D01*
X425471Y506310D01*
X425471Y506310D01*
X425558Y506237D01*
X425559Y506237D01*
X425645Y506165D01*
X425645Y506165D01*
X425820Y506020D01*
X425820Y506020D01*
X425820Y506020D01*
X425907Y505947D01*
X425907Y505947D01*
X425994Y505874D01*
X425994Y505874D01*
X425994Y505874D01*
X426082Y505802D01*
X426168Y505729D01*
X426169Y505729D01*
X426169Y505729D01*
X426256Y505657D01*
X426256Y505657D01*
X426256Y505656D01*
X426343Y505584D01*
X426343Y505584D01*
X426430Y505511D01*
X426430Y505511D01*
X426431Y505511D01*
X426518Y505438D01*
X426518Y505438D01*
X426605Y505366D01*
X426605Y505366D01*
X426692Y505294D01*
X426692Y505294D01*
X426692Y505293D01*
X426779Y505221D01*
X426780Y505221D01*
X426866Y505148D01*
X426866Y505148D01*
X426867Y505148D01*
X426954Y505075D01*
X426954Y505075D01*
X427041Y505003D01*
X427041Y505003D01*
X427041Y505003D01*
X427128Y504930D01*
X427128Y504930D01*
X427215Y504858D01*
X427215Y504858D01*
X427215Y504858D01*
X427303Y504785D01*
X427303Y504785D01*
X427390Y504713D01*
X427390Y504712D01*
X427390Y504712D01*
X427564Y504567D01*
X427564Y504567D01*
X427651Y504495D01*
X427651Y504495D01*
X427651Y504495D01*
X427826Y504349D01*
X427826Y504349D01*
X427913Y504277D01*
X427913Y504277D01*
X427913Y504277D01*
X428175Y504059D01*
X428175Y504059D01*
X428262Y503986D01*
X428262Y503986D01*
X428262Y503986D01*
X428349Y503913D01*
X428349Y503913D01*
X428350Y503913D01*
X428698Y503623D01*
X428698Y503623D01*
X428960Y503405D01*
X428960Y503405D01*
X428960Y503405D01*
X429134Y503260D01*
X429134Y503260D01*
X429135Y503260D01*
X429309Y503115D01*
X429309Y503115D01*
X429309Y503115D01*
X429483Y502970D01*
X429483Y502969D01*
X429484Y502969D01*
X429658Y502824D01*
X429658Y502824D01*
X429658Y502824D01*
X429745Y502752D01*
X429745Y502751D01*
X429919Y502607D01*
X429920Y502606D01*
X429920Y502606D01*
X430007Y502533D01*
X430007Y502533D01*
X430094Y502461D01*
X430094Y502461D01*
X430268Y502316D01*
X430269Y502316D01*
X430269Y502316D01*
X430356Y502243D01*
X430356Y502243D01*
X430443Y502171D01*
X430443Y502171D01*
X430443Y502170D01*
X430531Y502098D01*
X430531Y502098D01*
X430617Y502025D01*
X430618Y502025D01*
X430618Y502025D01*
X430705Y501953D01*
X430705Y501953D01*
X430792Y501880D01*
X430792Y501880D01*
X430792Y501880D01*
X430880Y501808D01*
X430880Y501808D01*
X430966Y501735D01*
X430967Y501735D01*
X430967Y501735D01*
X431054Y501662D01*
X431141Y501590D01*
X431141Y501590D01*
X431228Y501517D01*
X431228Y501517D01*
X431228Y501517D01*
X431316Y501445D01*
X431316Y501444D01*
X431316Y501444D01*
X431403Y501372D01*
X431490Y501300D01*
X431490Y501300D01*
X431490Y501299D01*
X431577Y501227D01*
X431578Y501227D01*
X431578Y501227D01*
X431665Y501154D01*
X431752Y501082D01*
X431752Y501082D01*
X431752Y501081D01*
X431927Y500936D01*
X432014Y500864D01*
X432014Y500864D01*
X432014Y500864D01*
X432188Y500718D01*
X432275Y500646D01*
X432276Y500646D01*
X432276Y500646D01*
X432363Y500573D01*
X432363Y500573D01*
X432363Y500573D01*
X432712Y500283D01*
X432712Y500283D01*
X432712Y500283D01*
X432887Y500138D01*
X432887Y500138D01*
X432887Y500138D01*
X433498Y499630D01*
X433498Y499630D01*
X433498Y499630D01*
X433847Y499339D01*
X433847Y499339D01*
X433847Y499339D01*
X434196Y499049D01*
X434196Y499049D01*
X434196Y499049D01*
X434283Y498977D01*
X434284Y498976D01*
X434284Y498976D01*
X434458Y498831D01*
X434458Y498831D01*
X434458Y498831D01*
X434545Y498759D01*
X434545Y498759D01*
X434720Y498614D01*
X434720Y498614D01*
X434720Y498613D01*
X434808Y498541D01*
X434894Y498469D01*
X434895Y498469D01*
X434895Y498469D01*
X434982Y498396D01*
X435069Y498323D01*
X435157Y498251D01*
X435244Y498178D01*
X435331Y498106D01*
X435419Y498033D01*
X435419Y498033D01*
X435419Y498033D01*
X435593Y497888D01*
X435680Y497816D01*
X435681Y497816D01*
X435681Y497816D01*
X435942Y497598D01*
X435942Y497598D01*
X435943Y497598D01*
X436030Y497525D01*
X436030Y497525D01*
X436117Y497453D01*
X436117Y497453D01*
X436117Y497453D01*
X436466Y497163D01*
X436466Y497163D01*
X436466Y497163D01*
X436728Y496945D01*
X436728Y496945D01*
X436815Y496873D01*
X436815Y496873D01*
X436816Y496873D01*
X437426Y496365D01*
X437426Y496365D01*
X437427Y496365D01*
X437514Y496293D01*
X437514Y496292D01*
X437601Y496220D01*
X437601Y496220D01*
X437601Y496220D01*
X438212Y495713D01*
X438299Y495640D01*
X438299Y495640D01*
X438300Y495640D01*
X438823Y495205D01*
X438910Y495132D01*
X438911Y495132D01*
X438911Y495132D01*
X439522Y494625D01*
X439608Y494553D01*
X439609Y494552D01*
X439609Y494552D01*
X440482Y493827D01*
X440482Y493827D01*
X441180Y493247D01*
X441181Y493247D01*
X441181Y493247D01*
X442228Y492377D01*
X443276Y491506D01*
X443276Y491506D01*
X443625Y491216D01*
X445023Y490056D01*
X445023Y490056D01*
X445372Y489766D01*
X445372Y489766D01*
X445721Y489476D01*
X445721Y489476D01*
X446070Y489186D01*
X446070Y489186D01*
X446071Y489186D01*
X447118Y488316D01*
X447118Y488316D01*
X447468Y488026D01*
X447817Y487736D01*
X447817Y487736D01*
X448166Y487446D01*
X448166Y487446D01*
X448516Y487156D01*
X448516Y487156D01*
X449127Y486649D01*
X449127Y486649D01*
X449389Y486431D01*
X449389Y486431D01*
X449651Y486214D01*
X449651Y486214D01*
X449651Y486214D01*
X449913Y485996D01*
X450175Y485779D01*
X450175Y485779D01*
X450437Y485562D01*
X450437Y485562D01*
X450699Y485344D01*
X450699Y485344D01*
X450699Y485344D01*
X450961Y485127D01*
X451223Y484909D01*
X451223Y484909D01*
X451223Y484909D01*
X452271Y484039D01*
X452271Y484039D01*
X452533Y483822D01*
X452533Y483822D01*
X453057Y483387D01*
X453057Y483387D01*
X453057Y483387D01*
X453319Y483170D01*
X453581Y482952D01*
X453581Y482952D01*
X453581Y482952D01*
X453843Y482735D01*
X454105Y482518D01*
X454105Y482518D01*
X454105Y482517D01*
X454367Y482300D01*
X454367Y482300D01*
X454717Y482010D01*
X454717Y482010D01*
X454717Y482010D01*
X455241Y481575D01*
X455241Y481575D01*
X455241Y481575D01*
X455765Y481141D01*
X455765Y481141D01*
X455765Y481140D01*
X455939Y480996D01*
X455939Y480996D01*
X456289Y480706D01*
X456289Y480706D01*
X456289Y480706D01*
X456638Y480416D01*
X456638Y480416D01*
X457162Y479981D01*
X457163Y479981D01*
X457512Y479691D01*
X457512Y479691D01*
X457512Y479691D01*
X457687Y479546D01*
X457687Y479546D01*
X458036Y479257D01*
X458036Y479257D01*
X458211Y479112D01*
X458211Y479112D01*
X458211Y479112D01*
X458385Y478967D01*
X458385Y478967D01*
X458560Y478822D01*
X458560Y478822D01*
X458735Y478677D01*
X458735Y478677D01*
X458735Y478677D01*
X459084Y478387D01*
X459084Y478387D01*
X459259Y478242D01*
X459259Y478242D01*
X459259Y478242D01*
X459434Y478097D01*
X459434Y478097D01*
X459608Y477952D01*
X459608Y477952D01*
X459783Y477807D01*
X459783Y477807D01*
X459783Y477807D01*
X461006Y476793D01*
X461006Y476793D01*
X461180Y476648D01*
X461181Y476648D01*
X461181Y476648D01*
X461530Y476358D01*
X461530Y476358D01*
X461530Y476358D01*
X461880Y476068D01*
X461880Y476068D01*
X462753Y475344D01*
X462753Y475344D01*
X462753Y475344D01*
X463102Y475054D01*
X463102Y475054D01*
X463103Y475054D01*
X463277Y474909D01*
X463277Y474909D01*
X463277Y474909D01*
X463539Y474692D01*
X463539Y474692D01*
X463714Y474547D01*
X463714Y474547D01*
X463714Y474547D01*
X463976Y474330D01*
X463976Y474329D01*
X463976Y474329D01*
X464063Y474257D01*
X464064Y474257D01*
X464064Y474257D01*
X464151Y474185D01*
X464238Y474112D01*
X464238Y474112D01*
X464238Y474112D01*
X464500Y473895D01*
X464500Y473895D01*
X464500Y473895D01*
X464588Y473822D01*
X464588Y473822D01*
X464588Y473822D01*
X464675Y473750D01*
X464762Y473678D01*
X464762Y473677D01*
X464762Y473677D01*
X464937Y473533D01*
X464937Y473533D01*
X464937Y473532D01*
X465112Y473387D01*
X465112Y473387D01*
X465112Y473387D01*
X465199Y473315D01*
X465286Y473243D01*
X465286Y473243D01*
X465286Y473243D01*
X465548Y473026D01*
X465549Y473025D01*
X465549Y473025D01*
X465636Y472952D01*
X465810Y472808D01*
X465810Y472808D01*
X465811Y472808D01*
X466073Y472591D01*
X466073Y472591D01*
X466422Y472301D01*
X466422Y472301D01*
X466684Y472084D01*
X466684Y472084D01*
X466684Y472083D01*
X466772Y472011D01*
X466772Y472011D01*
X466772Y472011D01*
X466859Y471938D01*
X467033Y471794D01*
X467033Y471794D01*
X467034Y471794D01*
X467121Y471721D01*
X467121Y471721D01*
X467121Y471721D01*
X467209Y471648D01*
X467383Y471504D01*
X467383Y471504D01*
X467383Y471504D01*
X467470Y471431D01*
X467471Y471431D01*
X467471Y471431D01*
X467558Y471359D01*
X467732Y471214D01*
X467732Y471214D01*
X467732Y471214D01*
X467820Y471142D01*
X467820Y471142D01*
X467820Y471141D01*
X467907Y471069D01*
X468082Y470925D01*
X468082Y470924D01*
X468082Y470924D01*
X468169Y470852D01*
X468169Y470852D01*
X468170Y470852D01*
X468257Y470779D01*
X468431Y470635D01*
X468431Y470635D01*
X468432Y470634D01*
X468519Y470562D01*
X468868Y470272D01*
X468868Y470272D01*
X469217Y469982D01*
X469217Y469982D01*
X469392Y469838D01*
X469392Y469837D01*
X469393Y469837D01*
X469480Y469765D01*
X469654Y469621D01*
X469654Y469620D01*
X469654Y469620D01*
X469742Y469548D01*
X469742Y469548D01*
X469742Y469548D01*
X469829Y469475D01*
X470003Y469331D01*
X470004Y469331D01*
X470004Y469330D01*
X470091Y469258D01*
X470440Y468968D01*
X470440Y468968D01*
X470615Y468823D01*
X470615Y468823D01*
X470616Y468823D01*
X470703Y468751D01*
X470877Y468606D01*
X470877Y468606D01*
X470877Y468606D01*
X470965Y468534D01*
X470965Y468534D01*
X470965Y468533D01*
X471052Y468461D01*
X471314Y468244D01*
X471314Y468244D01*
X471576Y468026D01*
X471576Y468026D01*
X471576Y468026D01*
X471624Y467987D01*
X471637Y467975D01*
X471637Y467975D01*
X471637Y467975D01*
X471646Y467967D01*
X471647Y467966D01*
X471649Y467965D01*
X471663Y467952D01*
X471663Y467952D01*
X471672Y467944D01*
X471674Y467943D01*
X471675Y467941D01*
X471689Y467928D01*
X471689Y467928D01*
X471698Y467920D01*
X471700Y467920D01*
X471701Y467918D01*
X471724Y467897D01*
X471724Y467897D01*
X471724Y467897D01*
X471733Y467889D01*
X471733Y467889D01*
X471741Y467881D01*
X471743Y467880D01*
X471744Y467879D01*
X471759Y467866D01*
X471759Y467866D01*
X471767Y467858D01*
X471768Y467858D01*
X471785Y467843D01*
X471785Y467843D01*
X471785Y467842D01*
X471794Y467835D01*
X471794Y467835D01*
X471802Y467827D01*
X471804Y467826D01*
X471805Y467824D01*
X471816Y467814D01*
X471818Y467813D01*
X471820Y467811D01*
X471828Y467803D01*
X471828Y467803D01*
X471837Y467796D01*
X471837Y467796D01*
X471854Y467780D01*
X471854Y467780D01*
X471854Y467780D01*
X471863Y467772D01*
X471863Y467772D01*
X471877Y467760D01*
X471879Y467758D01*
X471880Y467757D01*
X471889Y467749D01*
X471889Y467749D01*
X471906Y467733D01*
X471906Y467733D01*
X471907Y467733D01*
X471921Y467720D01*
X471923Y467719D01*
X471924Y467718D01*
X471933Y467710D01*
X471933Y467710D01*
X471947Y467697D01*
X471949Y467696D01*
X471950Y467694D01*
X471964Y467681D01*
X471966Y467680D01*
X471967Y467678D01*
X471982Y467666D01*
X471982Y467666D01*
X471990Y467658D01*
X471992Y467657D01*
X471993Y467655D01*
X472008Y467642D01*
X472008Y467642D01*
X472008Y467642D01*
X472025Y467627D01*
X472025Y467627D01*
X472034Y467619D01*
X472034Y467619D01*
X472042Y467611D01*
X472044Y467610D01*
X472046Y467608D01*
X472052Y467603D01*
X472057Y467598D01*
X472058Y467597D01*
X472060Y467595D01*
X472068Y467588D01*
X472068Y467588D01*
X472077Y467580D01*
X472077Y467580D01*
X472086Y467572D01*
X472086Y467572D01*
X472086Y467572D01*
X472103Y467556D01*
X472103Y467556D01*
X472109Y467551D01*
X472118Y467543D01*
X472119Y467542D01*
X472120Y467541D01*
X472126Y467536D01*
X472135Y467528D01*
X472137Y467527D01*
X472138Y467525D01*
X472144Y467520D01*
X472161Y467504D01*
X472161Y467504D01*
X472161Y467504D01*
X472178Y467489D01*
X472180Y467487D01*
X472181Y467486D01*
X472187Y467481D01*
X472201Y467468D01*
X472205Y467466D01*
X472207Y467462D01*
X472213Y467457D01*
X472227Y467444D01*
X472229Y467443D01*
X472230Y467441D01*
X472247Y467426D01*
X472248Y467426D01*
X472248Y467426D01*
X472262Y467413D01*
X472264Y467412D01*
X472265Y467410D01*
X472279Y467397D01*
X472281Y467396D01*
X472282Y467394D01*
X472296Y467382D01*
X472296Y467382D01*
X472302Y467376D01*
X472311Y467369D01*
X472314Y467366D01*
X472317Y467363D01*
X472331Y467350D01*
X472331Y467350D01*
X472340Y467342D01*
X472340Y467342D01*
X472346Y467337D01*
X472354Y467329D01*
X472356Y467328D01*
X472357Y467327D01*
X472366Y467319D01*
X472366Y467319D01*
X472371Y467314D01*
X472380Y467306D01*
X472382Y467305D01*
X472383Y467303D01*
X472389Y467298D01*
X472406Y467282D01*
X472406Y467282D01*
X472406Y467282D01*
X472415Y467274D01*
X472415Y467274D01*
X472432Y467259D01*
X472432Y467259D01*
X472432Y467259D01*
X472456Y467237D01*
X472457Y467236D01*
X472458Y467235D01*
X472472Y467222D01*
X472489Y467206D01*
X472490Y467206D01*
X472491Y467205D01*
X472508Y467189D01*
X472522Y467176D01*
X472523Y467176D01*
X472524Y467175D01*
X472541Y467159D01*
X472541Y467159D01*
X472557Y467145D01*
X472557Y467145D01*
X472590Y467115D01*
X472590Y467115D01*
X472607Y467099D01*
X472607Y467099D01*
X472623Y467085D01*
X472623Y467085D01*
X472640Y467069D01*
X472640Y467069D01*
X472656Y467054D01*
X472656Y467054D01*
X472673Y467039D01*
X472673Y467039D01*
X472721Y466994D01*
X472722Y466994D01*
X472773Y466946D01*
X472853Y466873D01*
X472853Y466873D01*
X472870Y466857D01*
X472870Y466857D01*
X472903Y466827D01*
X472903Y466827D01*
X472936Y466796D01*
X472998Y466738D01*
X473048Y466692D01*
X473080Y466661D01*
X473080Y466661D01*
X473096Y466646D01*
X473129Y466616D01*
X473129Y466616D01*
X473143Y466603D01*
X473143Y466603D01*
X473160Y466586D01*
X473161Y466586D01*
X473161Y466585D01*
X473178Y466569D01*
X473192Y466556D01*
X473192Y466556D01*
X473225Y466525D01*
X473273Y466480D01*
X473287Y466466D01*
X473287Y466466D01*
X473288Y466465D01*
X473302Y466452D01*
X473334Y466421D01*
X473335Y466420D01*
X473336Y466419D01*
X473351Y466405D01*
X473396Y466362D01*
X473421Y466338D01*
X473421Y466338D01*
X473446Y466313D01*
X473491Y466270D01*
X473513Y466249D01*
X473561Y466203D01*
X473561Y466203D01*
X473583Y466181D01*
X473607Y466158D01*
X473607Y466158D01*
X473643Y466122D01*
X473666Y466098D01*
X474404Y465290D01*
X474803Y464814D01*
X475663Y463879D01*
X475744Y463777D01*
X475902Y463570D01*
X476059Y463361D01*
X476217Y463146D01*
X476248Y463102D01*
X476281Y463056D01*
X476309Y463017D01*
X476343Y462970D01*
X476369Y462932D01*
X476403Y462884D01*
X476433Y462841D01*
X476433Y462841D01*
X476459Y462803D01*
X476490Y462759D01*
X476521Y462713D01*
X476552Y462669D01*
X476580Y462628D01*
X476610Y462583D01*
X476639Y462541D01*
X476668Y462498D01*
X476700Y462450D01*
X476729Y462407D01*
X476760Y462361D01*
X476786Y462320D01*
X476819Y462271D01*
X476840Y462239D01*
X476864Y462203D01*
X476886Y462169D01*
X476910Y462131D01*
X476936Y462092D01*
X476958Y462058D01*
X476991Y462006D01*
X477009Y461979D01*
X477046Y461921D01*
X477062Y461895D01*
X477097Y461841D01*
X477131Y461787D01*
X477149Y461758D01*
X477183Y461704D01*
X477183Y461704D01*
X477202Y461674D01*
X477202Y461674D01*
X477202Y461673D01*
X477215Y461654D01*
X477235Y461621D01*
X477236Y461620D01*
X477236Y461619D01*
X477248Y461599D01*
X477271Y461563D01*
X477306Y461507D01*
X477306Y461507D01*
X477317Y461489D01*
X477317Y461489D01*
X477327Y461473D01*
X477364Y461413D01*
X477375Y461395D01*
X477375Y461395D01*
X477420Y461322D01*
X477444Y461283D01*
X477444Y461282D01*
X477489Y461208D01*
X477489Y461208D01*
X477501Y461188D01*
X477501Y461188D01*
X477512Y461170D01*
X477524Y461150D01*
X477536Y461132D01*
X477536Y461131D01*
X477537Y461130D01*
X477547Y461114D01*
X477559Y461094D01*
X477560Y461093D01*
X477560Y461092D01*
X477581Y461057D01*
X477582Y461056D01*
X477583Y461054D01*
X477605Y461017D01*
X477606Y461017D01*
X477606Y461016D01*
X477627Y460981D01*
X477627Y460981D01*
X477639Y460961D01*
X477640Y460960D01*
X477640Y460959D01*
X477662Y460923D01*
X477710Y460843D01*
X477732Y460806D01*
X477732Y460805D01*
X477733Y460804D01*
X477744Y460786D01*
X477767Y460748D01*
X477767Y460747D01*
X477768Y460746D01*
X477780Y460726D01*
X477789Y460710D01*
X477790Y460709D01*
X477790Y460708D01*
X477813Y460670D01*
X477813Y460670D01*
X477836Y460631D01*
X477837Y460630D01*
X477837Y460630D01*
X477848Y460612D01*
X477849Y460611D01*
X477849Y460609D01*
X477857Y460596D01*
X477860Y460593D01*
X477861Y460589D01*
X477870Y460574D01*
X477870Y460574D01*
X477876Y460563D01*
X477877Y460563D01*
X477877Y460562D01*
X477888Y460543D01*
X477888Y460543D01*
X477899Y460526D01*
X477900Y460524D01*
X477901Y460522D01*
X477906Y460513D01*
X477906Y460513D01*
X477916Y460496D01*
X477918Y460494D01*
X477919Y460491D01*
X477940Y460455D01*
X477941Y460454D01*
X477942Y460453D01*
X477948Y460443D01*
X477982Y460385D01*
X477990Y460372D01*
X477992Y460369D01*
X477994Y460365D01*
X478009Y460339D01*
X478011Y460337D01*
X478012Y460335D01*
X478025Y460311D01*
X478028Y460308D01*
X478029Y460304D01*
X478039Y460289D01*
X478039Y460289D01*
X478045Y460279D01*
X478045Y460278D01*
X478046Y460277D01*
X478056Y460258D01*
X478056Y460258D01*
X478062Y460248D01*
X478063Y460248D01*
X478063Y460247D01*
X478074Y460228D01*
X478074Y460228D01*
X478079Y460221D01*
X478079Y460221D01*
X478085Y460211D01*
X478087Y460208D01*
X478089Y460204D01*
X478096Y460191D01*
X478097Y460189D01*
X478098Y460188D01*
X478102Y460181D01*
X478102Y460180D01*
X478108Y460170D01*
X478109Y460169D01*
X478110Y460168D01*
X478114Y460160D01*
X478114Y460160D01*
X478120Y460150D01*
X478121Y460149D01*
X478122Y460148D01*
X478126Y460140D01*
X478126Y460140D01*
X478132Y460130D01*
X478133Y460129D01*
X478133Y460127D01*
X478138Y460120D01*
X478138Y460120D01*
X478150Y460100D01*
X478151Y460099D01*
X478151Y460097D01*
X478159Y460084D01*
X478162Y460081D01*
X478163Y460077D01*
X478167Y460070D01*
X478167Y460070D01*
X478179Y460049D01*
X478180Y460048D01*
X478181Y460047D01*
X478189Y460034D01*
X478190Y460032D01*
X478191Y460029D01*
X478197Y460019D01*
X478198Y460018D01*
X478199Y460017D01*
X478203Y460009D01*
X478203Y460009D01*
X478212Y459993D01*
X478214Y459991D01*
X478215Y459989D01*
X478226Y459971D01*
X478226Y459970D01*
X478227Y459969D01*
X478242Y459943D01*
X478244Y459940D01*
X478246Y459936D01*
X478254Y459923D01*
X478255Y459921D01*
X478256Y459919D01*
X478265Y459903D01*
X478267Y459901D01*
X478268Y459898D01*
X478277Y459882D01*
X478280Y459879D01*
X478281Y459876D01*
X478289Y459862D01*
X478291Y459860D01*
X478292Y459858D01*
X478301Y459842D01*
X478302Y459840D01*
X478303Y459838D01*
X478313Y459822D01*
X478314Y459820D01*
X478315Y459818D01*
X478330Y459792D01*
X478332Y459790D01*
X478333Y459787D01*
X478342Y459771D01*
X478344Y459770D01*
X478345Y459767D01*
X478354Y459752D01*
X478354Y459751D01*
X478358Y459745D01*
X478363Y459733D01*
X478365Y459731D01*
X478366Y459728D01*
X478383Y459693D01*
X478385Y459691D01*
X478386Y459688D01*
X478403Y459652D01*
X478404Y459651D01*
X478404Y459650D01*
X478416Y459626D01*
X478417Y459624D01*
X478418Y459622D01*
X478428Y459601D01*
X478430Y459599D01*
X478431Y459596D01*
X478442Y459573D01*
X478442Y459572D01*
X478443Y459571D01*
X478455Y459547D01*
X478456Y459545D01*
X478456Y459543D01*
X478467Y459522D01*
X478467Y459521D01*
X478467Y459520D01*
X478474Y459507D01*
X478475Y459506D01*
X478475Y459505D01*
X478492Y459469D01*
X478493Y459468D01*
X478493Y459467D01*
X478505Y459443D01*
X478506Y459442D01*
X478506Y459441D01*
X478512Y459428D01*
X478513Y459427D01*
X478513Y459426D01*
X478530Y459392D01*
X478536Y459379D01*
X478537Y459378D01*
X478537Y459377D01*
X478550Y459351D01*
X478551Y459350D01*
X478551Y459349D01*
X478562Y459326D01*
X478568Y459315D01*
X478569Y459313D01*
X478569Y459311D01*
X478576Y459298D01*
X478576Y459297D01*
X478577Y459296D01*
X478583Y459283D01*
X478587Y459275D01*
X478588Y459273D01*
X478589Y459271D01*
X478594Y459260D01*
X478600Y459249D01*
X478601Y459247D01*
X478601Y459245D01*
X478607Y459234D01*
X478657Y459130D01*
X478675Y459094D01*
X478675Y459093D01*
X478676Y459092D01*
X478682Y459079D01*
X478682Y459079D01*
X478687Y459067D01*
X478689Y459066D01*
X478689Y459064D01*
X478693Y459055D01*
X478699Y459043D01*
X478700Y459042D01*
X478700Y459041D01*
X478713Y459015D01*
X478714Y459014D01*
X478714Y459013D01*
X478720Y458999D01*
X478720Y458999D01*
X478729Y458980D01*
X478731Y458979D01*
X478731Y458977D01*
X478738Y458963D01*
X478738Y458963D01*
X478739Y458962D01*
X478744Y458950D01*
X478755Y458927D01*
X478757Y458925D01*
X478758Y458922D01*
X478761Y458914D01*
X478774Y458888D01*
X478775Y458886D01*
X478776Y458884D01*
X478799Y458835D01*
X478804Y458825D01*
X478805Y458824D01*
X478806Y458822D01*
X478818Y458797D01*
X478818Y458797D01*
X478823Y458786D01*
X478823Y458786D01*
X478829Y458772D01*
X478831Y458771D01*
X478831Y458769D01*
X478841Y458748D01*
X478842Y458747D01*
X478842Y458746D01*
X478848Y458733D01*
X478854Y458721D01*
X478854Y458720D01*
X478855Y458719D01*
X478861Y458706D01*
X478861Y458706D01*
X478865Y458698D01*
X478866Y458697D01*
X478866Y458695D01*
X478873Y458681D01*
X478873Y458681D01*
X478874Y458680D01*
X478880Y458666D01*
X478880Y458666D01*
X478926Y458570D01*
X478927Y458569D01*
X478927Y458568D01*
X478944Y458531D01*
X478944Y458531D01*
X478968Y458480D01*
X478968Y458480D01*
X478968Y458479D01*
X478980Y458456D01*
X479004Y458405D01*
X479016Y458378D01*
X479051Y458304D01*
X479051Y458304D01*
X479074Y458254D01*
X479099Y458201D01*
X479099Y458201D01*
X479120Y458155D01*
X479155Y458079D01*
X479167Y458053D01*
X479167Y458053D01*
X479178Y458028D01*
X479201Y457980D01*
X479236Y457903D01*
X479259Y457851D01*
X479280Y457804D01*
X479291Y457779D01*
X479302Y457755D01*
X479326Y457702D01*
X479348Y457653D01*
X479358Y457631D01*
X479379Y457583D01*
X479402Y457530D01*
X479423Y457483D01*
X479434Y457456D01*
X479456Y457406D01*
X479467Y457382D01*
X479486Y457336D01*
X479486Y457336D01*
X479497Y457310D01*
X479520Y457258D01*
X479534Y457225D01*
X479549Y457189D01*
X479566Y457148D01*
X479582Y457111D01*
X479595Y457078D01*
X479612Y457039D01*
X479625Y457006D01*
X479640Y456969D01*
X479657Y456929D01*
X479672Y456892D01*
X479685Y456861D01*
X479701Y456820D01*
X479715Y456786D01*
X479731Y456746D01*
X479743Y456715D01*
X479821Y456517D01*
X479857Y456420D01*
X479894Y456322D01*
X479930Y456224D01*
X479967Y456124D01*
X479997Y456041D01*
X480028Y455953D01*
X480060Y455862D01*
X480089Y455779D01*
X480118Y455696D01*
X480148Y455605D01*
X480177Y455518D01*
X480206Y455430D01*
X480234Y455343D01*
X480264Y455252D01*
X480293Y455160D01*
X480318Y455079D01*
X480348Y454984D01*
X480374Y454896D01*
X480400Y454810D01*
X480424Y454729D01*
X480447Y454651D01*
X480470Y454572D01*
X480490Y454502D01*
X480514Y454417D01*
X480535Y454346D01*
X480558Y454262D01*
X480578Y454187D01*
X480600Y454109D01*
X480621Y454028D01*
X480642Y453952D01*
X480661Y453878D01*
X480683Y453795D01*
X480703Y453717D01*
X480723Y453638D01*
X480744Y453557D01*
X480782Y453404D01*
X480801Y453323D01*
X480821Y453241D01*
X480840Y453161D01*
X480858Y453089D01*
Y453089D01*
X480876Y453008D01*
X480894Y452931D01*
X480914Y452845D01*
X480930Y452772D01*
X480947Y452695D01*
X480966Y452609D01*
X480982Y452534D01*
X480998Y452458D01*
X481016Y452374D01*
X481031Y452300D01*
X481048Y452215D01*
X481062Y452145D01*
X481082Y452045D01*
X481098Y451962D01*
X481116Y451866D01*
X481132Y451779D01*
X481150Y451684D01*
X481166Y451589D01*
X481182Y451501D01*
X481197Y451410D01*
X481212Y451319D01*
X481227Y451226D01*
X481241Y451138D01*
X481256Y451041D01*
X481269Y450953D01*
X481283Y450860D01*
X481295Y450775D01*
X481310Y450667D01*
X481323Y450566D01*
X481336Y450460D01*
X481349Y450355D01*
X481361Y450252D01*
X481365Y450219D01*
X481369Y450178D01*
X481374Y450136D01*
X481378Y450097D01*
X481382Y450062D01*
X481386Y450019D01*
X481390Y449980D01*
X481394Y449945D01*
X481398Y449901D01*
X481402Y449865D01*
X481405Y449826D01*
Y449826D01*
X481409Y449782D01*
X481413Y449747D01*
X481417Y449705D01*
X481420Y449665D01*
X481424Y449623D01*
X481427Y449585D01*
X481429Y449557D01*
X481433Y449507D01*
Y449507D01*
X481436Y449479D01*
X481438Y449453D01*
X481438Y449453D01*
X481442Y449401D01*
X481444Y449372D01*
X481444Y449372D01*
X481446Y449347D01*
X481448Y449318D01*
X481448Y449318D01*
X481450Y449292D01*
X481452Y449266D01*
X481456Y449208D01*
X481458Y449183D01*
X481458Y449183D01*
X481460Y449154D01*
X481462Y449131D01*
Y449131D01*
X481466Y449075D01*
X481469Y449021D01*
X481469Y449021D01*
X481473Y448967D01*
X481475Y448940D01*
X481480Y448856D01*
X481483Y448803D01*
Y448803D01*
X481487Y448746D01*
X481489Y448695D01*
X481494Y448609D01*
X481497Y448553D01*
X481500Y448498D01*
X481503Y448444D01*
Y448444D01*
X481506Y448386D01*
X481506Y448386D01*
X481510Y448302D01*
X481510Y448302D01*
X481511Y448278D01*
X481511Y448278D01*
X481514Y448219D01*
X481515Y448218D01*
X481514Y448217D01*
X481516Y448192D01*
X481517Y448167D01*
X481517Y448165D01*
X481517Y448163D01*
X481518Y448137D01*
X481519Y448108D01*
X481520Y448106D01*
X481520Y448104D01*
X481521Y448079D01*
X481521Y448079D01*
X481521Y448079D01*
X481522Y448055D01*
X481522Y448052D01*
X481522Y448050D01*
X481523Y448025D01*
X481524Y448023D01*
X481523Y448021D01*
X481524Y447996D01*
X481524Y447996D01*
X481524Y447996D01*
X481526Y447952D01*
X481526Y447952D01*
X481526Y447952D01*
X481528Y447913D01*
X481529Y447910D01*
X481528Y447908D01*
X481530Y447869D01*
X481530Y447866D01*
X481530Y447864D01*
X481531Y447829D01*
X481532Y447827D01*
X481532Y447824D01*
X481533Y447795D01*
X481533Y447795D01*
X481533Y447795D01*
X481534Y447770D01*
X481534Y447768D01*
X481534Y447766D01*
X481536Y447727D01*
X481536Y447726D01*
X481536Y447726D01*
X481537Y447682D01*
X481537Y447682D01*
X481537Y447682D01*
X481539Y447653D01*
X481539Y447653D01*
X481539Y447653D01*
X481539Y447628D01*
X481540Y447626D01*
X481540Y447624D01*
X481541Y447599D01*
X481541Y447597D01*
X481541Y447594D01*
X481541Y447581D01*
X481542Y447555D01*
X481543Y447553D01*
X481543Y447550D01*
X481544Y447526D01*
X481544Y447526D01*
X481544Y447526D01*
X481544Y447501D01*
X481545Y447486D01*
X481545Y447484D01*
X481545Y447482D01*
X481546Y447467D01*
X481546Y447467D01*
X481546Y447467D01*
X481547Y447442D01*
X481547Y447427D01*
X481548Y447425D01*
X481547Y447423D01*
X481548Y447413D01*
X481548Y447398D01*
X481549Y447396D01*
X481549Y447394D01*
X481549Y447383D01*
X481550Y447354D01*
X481550Y447352D01*
X481550Y447350D01*
X481551Y447325D01*
X481551Y447325D01*
X481551Y447325D01*
X481552Y447296D01*
X481552Y447296D01*
X481552Y447295D01*
X481553Y447266D01*
X481553Y447266D01*
X481553Y447266D01*
X481554Y447237D01*
X481554Y447237D01*
X481554Y447237D01*
X481555Y447208D01*
X481555Y447208D01*
X481555Y447207D01*
X481556Y447193D01*
X481556Y447183D01*
X481557Y447180D01*
X481556Y447178D01*
X481557Y447150D01*
X481558Y447139D01*
X481558Y447136D01*
X481558Y447134D01*
X481558Y447119D01*
X481559Y447109D01*
X481559Y447107D01*
X481559Y447105D01*
X481560Y447065D01*
X481561Y447051D01*
X481561Y447048D01*
X481561Y447046D01*
X481562Y447031D01*
X481562Y447021D01*
X481562Y447019D01*
X481562Y447017D01*
X481563Y447002D01*
X481563Y446992D01*
X481563Y446992D01*
X481563Y446977D01*
X481564Y446975D01*
X481564Y446973D01*
X481564Y446959D01*
X481564Y446948D01*
X481564Y446948D01*
X481565Y446933D01*
X481566Y446931D01*
X481565Y446929D01*
X481566Y446904D01*
X481567Y446889D01*
X481567Y446887D01*
X481567Y446885D01*
X481567Y446870D01*
X481568Y446860D01*
X481568Y446860D01*
X481568Y446847D01*
Y436886D01*
X470212D01*
Y438505D01*
X471159Y439922D01*
X471514Y441706D01*
X471159Y443490D01*
X470212Y444907D01*
Y445000D01*
X469728Y446166D01*
X468562Y446650D01*
X465975D01*
X464910Y447802D01*
X464555Y449586D01*
X464158Y450180D01*
X464073Y451040D01*
X463128Y454154D01*
X461595Y457024D01*
X459530Y459539D01*
X459530Y459539D01*
X459530Y459539D01*
X456883Y462186D01*
X456815Y462288D01*
X456713Y462356D01*
X374485Y544584D01*
X374235Y544958D01*
X357055Y562138D01*
X356898Y562243D01*
X354366Y565328D01*
X352396Y569013D01*
X351184Y573011D01*
X350792Y576983D01*
X350829Y577169D01*
Y590543D01*
X350816Y590609D01*
X351083Y592638D01*
X351892Y594591D01*
X353138Y596215D01*
X353194Y596253D01*
X353249Y596335D01*
X354548Y598027D01*
X355402Y600089D01*
X355680Y602204D01*
X355700Y602301D01*
Y603599D01*
X355863Y603843D01*
X356217Y605627D01*
X355863Y607411D01*
X355817Y607480D01*
X356173Y608750D01*
X360019D01*
X360377Y607480D01*
D02*
G37*
D16*
X350264Y599183D02*
G03*
X351556Y602301I-3118J3118D01*
G01*
X350264Y599183D02*
G03*
X346686Y590543I8640J-8640D01*
G01*
Y577169D02*
G03*
X354125Y559208I25400J0D01*
G01*
X460248Y447802D02*
G03*
X456600Y456609I-12455J0D01*
G01*
X364539Y605479D02*
G03*
X364640Y605723I-245J245D01*
G01*
X351556Y605627D02*
Y617898D01*
Y605627D02*
X351640Y605543D01*
X453851Y459358D02*
X453885D01*
X346686Y577169D02*
Y590543D01*
X351556Y602301D02*
Y605627D01*
X364640Y605723D02*
Y617982D01*
X351556Y617898D02*
X351640Y617982D01*
X453851Y459358D02*
X456600Y456609D01*
X354125Y559208D02*
X371305Y542028D01*
Y541904D02*
X453851Y459358D01*
X371305Y541904D02*
Y542028D01*
D20*
X453604Y433375D02*
D03*
X430604Y435963D02*
D03*
X440396Y433375D02*
D03*
X447000Y438693D02*
D03*
X460208Y438693D02*
D03*
X466812Y433375D02*
D03*
X476604Y435963D02*
D03*
D21*
X447000Y428500D02*
D03*
X466812D02*
D03*
X460208D02*
D03*
X453604D02*
D03*
X440396D02*
D03*
D22*
X430604Y427000D02*
D03*
X476604D02*
D03*
D23*
X377640Y617982D02*
D03*
X364640D02*
D03*
X351640Y617982D02*
D03*
X338640D02*
D03*
D24*
X380606Y601824D02*
D03*
X373388Y601869D02*
D03*
X356338Y584029D02*
D03*
X356446Y592715D02*
D03*
X427870Y462328D02*
D03*
X472561Y461502D02*
D03*
X476268Y453594D02*
D03*
X430069Y453576D02*
D03*
X334811Y593329D02*
D03*
X364539Y605479D02*
D03*
X351556Y605627D02*
D03*
X334811Y602327D02*
D03*
X440484Y442160D02*
D03*
X446978Y447688D02*
D03*
X476593Y444662D02*
D03*
X453681Y442174D02*
D03*
X460248Y447802D02*
D03*
X466852Y441706D02*
D03*
X430500Y445000D02*
D03*
D25*
X340531Y621606D02*
D03*
X338680Y618659D02*
D03*
X336829Y623458D02*
D03*
X336885Y615958D02*
D03*
X340550Y613577D02*
D03*
X353672Y621487D02*
D03*
X351820Y618540D02*
D03*
X349969Y623338D02*
D03*
X350025Y615839D02*
D03*
X353690Y613458D02*
D03*
X379472Y621187D02*
D03*
X377621Y618240D02*
D03*
X375770Y623038D02*
D03*
X375826Y615539D02*
D03*
X379491Y613158D02*
D03*
X366470Y613412D02*
D03*
X362805Y615793D02*
D03*
X362749Y623293D02*
D03*
X364600Y618494D02*
D03*
X366451Y621441D02*
D03*
X478790Y421386D02*
D03*
X474980D02*
D03*
X466852Y427228D02*
D03*
X460248Y432308D02*
D03*
X453644Y427228D02*
D03*
X447040Y432562D02*
D03*
X440436Y427482D02*
D03*
X440396Y421750D02*
D03*
X447000D02*
D03*
X432228Y421386D02*
D03*
X428418D02*
D03*
X466812Y421750D02*
D03*
X460208D02*
D03*
X453604D02*
D03*
X430604Y429818D02*
D03*
X476604D02*
D03*
X476604Y426000D02*
D03*
X430604D02*
D03*
M02*
